<svg xmlns="http://www.w3.org/2000/svg" viewBox="0 0 213.23 60.92"><defs><style>.cls-1{fill:#fff;}</style></defs><title>Author Profile</title><g id="Layer_2" data-name="Layer 2"><g id="Layer_1-2" data-name="Layer 1"><path class="cls-1" d="M71.88,58.13a.73.73,0,0,1,.15-.32c-2,0-4-.24-6-.36l-1.54-.09a1,1,0,0,1,.3.42l4.69.25,2.44.1"/><path class="cls-1" d="M132.73,21.73a1.41,1.41,0,0,1-.85.38,1.33,1.33,0,0,1,.85-.38"/><path class="cls-1" d="M131.57,39a1,1,0,0,1-1.07-.12c-1.57-.8-3-1.82-4.52-2.7a9,9,0,0,0-2.08-1c-.24-.07-.54-.19-.43-.58a.53.53,0,0,1,.73.11A8.68,8.68,0,0,0,126.3,36l4.57,2.63.7.36"/><path class="cls-1" d="M104.32,41.45c2.24,1.25,4.27,2.71,6.68,3.44-.15.28-.37.18-.55.15a8.2,8.2,0,0,1-3-1.31,24.59,24.59,0,0,0-2.83-1.61c-.22-.11-.22-.11-.27-.67"/><path class="cls-1" d="M133.54,30.91a.47.47,0,0,1,.57,0c.88.58,1.75,1.2,2.63,1.78a43.5,43.5,0,0,0,3.86,2.2c.14-.07.05-.21.14-.28s.23.07.27.18.28.24.15.45-.31.15-.5.09a9.18,9.18,0,0,1-2.51-1.29c-1.32-.88-2.73-1.62-4-2.55a3.17,3.17,0,0,1-.59-.62"/><path class="cls-1" d="M151.67,31.13a.67.67,0,0,1-.71.2c-1.15-.32-2.25-.79-3.38-1.17-.16-.05-.27-.15-.24-.31s.23-.17.36-.17a.82.82,0,0,1,.37.13,11,11,0,0,0,3,1.09,1.32,1.32,0,0,1,.57.23"/><path class="cls-1" d="M207.21,8.8c-.28.17-.46.28-.78,0s-.73-.12-1.06-.32a1.6,1.6,0,0,1,2.33,0,5.91,5.91,0,0,0-.49.33m-4.64,1a1.51,1.51,0,0,1,1-.37l1.14.1c-.1-.37-.51-.25-.66-.48.43-.52,1.28-.36,2.1.28-1.21,1-2,1.08-3.6.47m-1.13.69c.45-.39.45-.39,2.52.06-.88.66-1.66.14-2.52-.06m.21,1.13c-.48-.21-1-.2-1.57-.41.41-.3.77-.54,1.29-.29a6.12,6.12,0,0,0,1.11.32c.1,0,.21,0,.22.18-.32.17-.6.4-1,.2m-2.72.17c.86-.7,1.54.08,2.29.17-.26.58-1.18.52-2.29-.17m.08,1.27a9,9,0,0,1-1.52-.5c.95-.81,1.78,0,2.65.11-.33.32-.62.59-1.13.39m-3,.35c.48-.36.85-.62,1.44-.36a7.71,7.71,0,0,1,1.28.43c-.95.79-1.78.13-2.72-.07m-1.27.69c.43-.53,1.63-.43,2.55.2a2.4,2.4,0,0,1-2.55-.2m-1.29.75c.5-.57,1.21-.52,2.31.1-.83.71-1.51-.12-2.31-.1m-1.84.81a8.12,8.12,0,0,0,1.08-.59.24.24,0,0,1,.28,0c.43.22.93.26,1.42.45a2,2,0,0,1-2.78.17m-1.75.95a2.19,2.19,0,0,1,2.52-.2,2.09,2.09,0,0,1-2.52.2m-1.59.88a1.63,1.63,0,0,1,2.27-.09,2.59,2.59,0,0,1-2.27.09m.28.74c-1.39.65-2.84,1.15-4.21,1.83a.34.34,0,0,1-.25,0c-.56-.34-1,.09-1.42.28a1,1,0,0,1-.95-.09c1-.35,1.83-1,2.92-.85.12-.19-.12-.24-.08-.39.36-.16.75-.32,1.11-.52s.53,0,.79.07.48.13.62-.14c-.07-.25-.35-.1-.44-.32.69-.65,1.44-.3,2.18-.17,0,.21-.16.21-.27.26m-6.36,3.15a41.28,41.28,0,0,1,4.56-2,34.36,34.36,0,0,1-4.56,2m-2.43-.3c.66-.23,1.26-.8,2-.2-.65.31-1.26.83-2,.2m-.95,1.27c.06-.57-.54-.22-.65-.53a1.29,1.29,0,0,1,1.83,0l-1.18.53M176,23.54a1.94,1.94,0,0,1-2-.08c.77-.15,1.28-.82,2.1-.48.41.16.42.12.59-.29l-.22-.12c.09-.44,1.28-.48,1.93,0a14.61,14.61,0,0,0-2.42,1m-4.52,1.66a.54.54,0,0,1-.44-.05l2.23-1.07c-.29-.14-.45.06-.68,0a1.81,1.81,0,0,1,1.89,0,25.67,25.67,0,0,0-3,1.06m1.5-.13c.22-.29.53-.27.78-.32a2,2,0,0,1-.78.32m-2.27-.16a2.73,2.73,0,0,1,1-.44,1.42,1.42,0,0,1-1,.44m-1.26,1a1.74,1.74,0,0,1,1-.36,2.31,2.31,0,0,1-1,.36m-5.21,2.38a34.68,34.68,0,0,1,4.63-1.7,38.31,38.31,0,0,1-4.63,1.7m.24-.62a3.64,3.64,0,0,1,1.4-.64,3.31,3.31,0,0,1-1.4.64m-1-.65c-1.49-.6-3-1.23-4.47-1.83a41.13,41.13,0,0,1-4.13-1.83,1.6,1.6,0,0,1,1.52-.36,54.18,54.18,0,0,0,5.28,2.23,34.77,34.77,0,0,0,4.15,1.28,4.91,4.91,0,0,1-1.55.78c-.24.1-.54-.16-.8-.27m-1.65,1c-1.42-.53-2.87-1-4.26-1.6a23.83,23.83,0,0,1-3.86-2,1.54,1.54,0,0,0-1-.36.9.9,0,0,0,.64.78A70.87,70.87,0,0,0,160.48,28a5.34,5.34,0,0,0,1.14.42,1.85,1.85,0,0,1-1.16.39,6.61,6.61,0,0,1-2.43-.58Q155,27.16,151.91,26a5,5,0,0,1-1.4-.66,1.2,1.2,0,0,0-.31-.13c-.12,0-.25,0-.3.1s.06.22.17.27c.36.16.72.34,1.1.48,2.15.79,4.25,1.73,6.43,2.44.7.23,1.4.43,2.1.65,0,.15-.17.14-.28.18a3.4,3.4,0,0,1-2.74-.08c-1.52-.63-3.06-1.2-4.56-1.86-1.27-.56-2.52-1.17-3.83-1.88.93-.39,1.78-.67,2.64-1s1.71-.59,2.56-.92a1.12,1.12,0,0,1,.86,0c1.75.68,3.46,1.45,5.18,2.19,1.35.59,2.74,1.06,4.13,1.52a.23.23,0,0,1,0,.25,2.62,2.62,0,0,1-1.76.44m-4.58,2.52a1.13,1.13,0,0,1,.81-.29,1.41,1.41,0,0,1-.81.29m-1.23-.3a67.72,67.72,0,0,1-9.08-4,.48.48,0,0,1-.23-.19,1.22,1.22,0,0,1,1.38-.28,65.65,65.65,0,0,0,6.3,2.95,16.17,16.17,0,0,0,2.64.92,1.13,1.13,0,0,1,.22.11,1.42,1.42,0,0,1-1.23.44m-1.91.59a42.73,42.73,0,0,1-6.87-2.9,2.4,2.4,0,0,1-1.41-1.65l.65-.22c-.23.38-.07.49.22.63,2.1,1,4.21,2,6.4,2.87.72.27,1.44.51,2.15.77a.22.22,0,0,1,.2.17c-.44.15-.92.48-1.34.33m-1.77.69a6.6,6.6,0,0,0-1.21.55,1.3,1.3,0,0,1-1.21,0,4.33,4.33,0,0,0-1.35-.38c.51.91,1.45.77,2.23,1.1l-1.67.48a14.91,14.91,0,0,1-2.58-5.36c2.37,1.31,4.61,2.73,7.32,3.1-.51.17-1,.34-1.53.53m-3.92,2.14a6.53,6.53,0,0,1-1.44.39c.4-.43,1-.41,1.46-.77.16.16.25.26,0,.38m-1.92-.25c-.88-2.16-1.75-4.29-2.62-6.44l.84-.33c1,2.13,2.23,4.11,3.38,6.15a8,8,0,0,1-1.6.62m-.9-.18a12.11,12.11,0,0,1-1.4-3.73,5.15,5.15,0,0,0-.49-1.56,1.09,1.09,0,0,1-.12-.74l2.58,6.34c-.37.17-.45-.12-.57-.31M142.87,35c.1-.22,0-.34-.18-.41A17,17,0,0,1,138,31.92c-.9-.62-1.8-1.27-2.74-1.94l2.81-1,1.46-.52a1.2,1.2,0,0,1,1.6.74,3.14,3.14,0,0,1-1.22-.4c-.18.26-.16.44.11.62a8.07,8.07,0,0,1,.93.7c.16.13.36.27.34.56-.73-.47-1.21-1.25-2-1.58a.58.58,0,0,0,.29.74,18.42,18.42,0,0,1,2.22,1.92.75.75,0,0,1,.25.67,28.34,28.34,0,0,0-4-3c-.07.49.26.67.54.83a20.18,20.18,0,0,1,3.18,2.49l1.34,1.16a10.58,10.58,0,0,1-2.17-1.3c-.6-.41-1.18-.87-1.8-1.25-.34-.22-.52-.58-.83-.82a1.3,1.3,0,0,0-1.09-.32c0,.41.34.6.61.79,1.61,1.07,3.23,2.13,4.78,3.29.22.16.5.23.66.47-.1.14-.26.1-.41.15m-1.71.71a1.75,1.75,0,0,1-2-.19c-.82-.55-1.74-1-2.58-1.47a22.7,22.7,0,0,0-2.09-1.43,16.65,16.65,0,0,1-1.58-1.05,1.38,1.38,0,0,0-.92-.3c0-.19.24-.2.37-.25.64-.22,1.29-.4,1.92-.65a.82.82,0,0,1,.86.11c1.58,1.06,3.11,2.2,4.73,3.21a22.84,22.84,0,0,0,2.69,1.44c-.46.3-1,.35-1.37.58m-3.08,1.15a1.52,1.52,0,0,1-1.58-.16c-2.09-1.27-4.2-2.48-6.25-3.81a2.66,2.66,0,0,0-.92-.54c-.17,0-.33,0-.4.15a.22.22,0,0,0,.19.32c.72.06,1.16.59,1.7.95,1.83,1.22,3.77,2.26,5.65,3.4a1,1,0,0,1,.19.15l-1.14.45a.4.4,0,0,1-.32,0A67.19,67.19,0,0,1,128.66,34l-1.15-.76s-.08,0-.13,0c-.17.23-.21.36.1.56a56.64,56.64,0,0,0,7.29,4s0,0,0,.1a8.73,8.73,0,0,1-1.42.56c-.08,0-.16,0-.23-.08-1.67-1-3.35-1.89-5-2.89-.73-.44-1.38-1-2.12-1.46-.24-.14-.51-.31-.78,0a.63.63,0,0,0,.35.42,33,33,0,0,1,3.57,2.14c1.11.61,2.17,1.32,3.26,2l.23.19a15.27,15.27,0,0,0-1.81.64,1.71,1.71,0,0,1-2-.21,43.91,43.91,0,0,0-5.39-2.94c-.34-.18-.65-.43-1-.62a.76.76,0,0,0-.77-.11c0,.17,0,.35.2.42a29.29,29.29,0,0,1,5,2.64,9.06,9.06,0,0,0,2.46,1.2,1.89,1.89,0,0,1-1.78.28c-.93-.52-1.88-1-2.8-1.52-1.26-.72-2.51-1.49-3.78-2.2a1.25,1.25,0,0,0-1-.2,1.44,1.44,0,0,0,.72.66c2.24,1.12,4.42,2.38,6.61,3.6a1.35,1.35,0,0,1-1.41.26c-2-1.13-4.08-2.28-6.14-3.39a7.29,7.29,0,0,1-1.74-1c.71-.28,1.41-.59,2.12-.85,3.1-1.14,6.21-2.25,9.3-3.42.53-.2.76.12,1.09.34.09.06.15.16.27.2a24.86,24.86,0,0,1,3.67,2.13c.79.41,1.58.81,2.37,1.23.2.11.37.27.58.36a.4.4,0,0,0,.57-.18c-2.59-1.31-5-2.95-7.5-4.39.45-.13.85-.46,1.37-.42,0,.39.3.57.55.71,2.39,1.34,4.6,3,7.12,4.28-.56.21-1.07.37-1.55.59m-13.66,4.58c-.14-.43-.53-.52-.85-.7-1.91-1-3.92-1.89-5.82-3-.27-.16-.42-.56-.88-.47a.8.8,0,0,0,.58.74c1.54.68,3,1.54,4.47,2.32l2.19,1.15c-.53.16-1,.31-1.44.44a.22.22,0,0,1-.2,0,7.32,7.32,0,0,0-2.14-1.26A34.12,34.12,0,0,0,115.47,38a1.15,1.15,0,0,0-.46-.1c2.3,1.42,4.64,2.76,7.18,4a4.87,4.87,0,0,1-2.06.54c-.39,0-.77-.4-1.16-.61a29.32,29.32,0,0,1-3.71-2.08,4.19,4.19,0,0,1-1.46-1.44c-.08-.16-.2-.23-.34-.18s-.14.26-.1.39c.16.46.58.66.92.94a34.28,34.28,0,0,0,5,3.06l.21.17a5.14,5.14,0,0,1-1.51.42,3.15,3.15,0,0,1-1.21-.51,40.76,40.76,0,0,1-5.55-3.45,2.44,2.44,0,0,1-.26-.28,8.22,8.22,0,0,1,1.53-.66c1.59-.59,3.2-1.12,4.76-1.79.24-.1.39,0,.56.12,2.29,1.26,4.57,2.53,6.86,3.78.38.21.79.36,1.28.58-.55.23-1.05.22-1.51.45m-8,2.77,1-.3c-.2.22-.47.31-1,.3m-11.13,3.07c3.57-1.16,7.23-2,10.85-2.95a96.57,96.57,0,0,1-10.85,2.95m-.72-.25c-.07-.25-.27-.31-.48-.39a19.66,19.66,0,0,1-5.23-2.93,1.83,1.83,0,0,1-.23-.24c2.49-1.08,5-1.82,7.55-2.92-.08.48.21.62.49.78a56.9,56.9,0,0,0,5.35,3l.71.31c0,.18-.2.16-.3.19-1.13.31-2.28.54-3.38.93-.23.08-.39,0-.57-.12-1.67-.8-3.24-1.78-4.86-2.67l-.75-.38a.69.69,0,0,0,.41.59,46.25,46.25,0,0,0,5.14,2.74c-.55.15-1,.31-1.42.39a1.32,1.32,0,0,1-.75-.23A55.78,55.78,0,0,1,101,43a.93.93,0,0,0-.25-.1c-.09.21.08.31.18.38.85.57,1.68,1.14,2.55,1.68a16,16,0,0,0,3,1.42l-1.89.59m-1.9.15C101.16,46.05,99.61,45,98,44a.51.51,0,0,1-.22-.27,1.07,1.07,0,0,1,1.13.39,12.48,12.48,0,0,0,3.84,2.4c.42.2.86.37,1.3.55a1.1,1.1,0,0,1-1.35.1m-1.44.29a22.6,22.6,0,0,1-3.34-2.1c-.48-.36-1-.71-1.47-1.07.59-.4.77-.41,1.35,0l4.68,3.2s0,0,0,.07a1.49,1.49,0,0,1-1.24-.08m-1.82.06-2.53-2.11A2.66,2.66,0,0,1,96.6,45c1.46.93,2.86,1.95,4.39,2.8-.65.36-1.1,0-1.54-.34m-1.71-.86c.67.41,1.21,1,1.85,1.47-.81-.24-1.24-1-1.85-1.47m-.88.85a7.22,7.22,0,0,1,1.68.92c-.87.06-1.22-.53-1.68-.92m-.48,1c-.89-.82-1.83-1.58-2.75-2.37-.17-.15-.33-.32-.52-.5.49-.4.7-.37,1.06.06a13.06,13.06,0,0,0,2.43,2.21,3.75,3.75,0,0,1,.89.72c-.43.06-.74.22-1.11-.12m-2.3.34a16.33,16.33,0,0,0-2-1.49,2.59,2.59,0,0,1-.35-.31c-.16-.15-.33-.2-.5,0s0,.33.06.46.52.32.65.58c.17,0,.1-.2.29-.2a11.71,11.71,0,0,0,1.67,1.41,2,2,0,0,1-1,.22c-.31,0-.51-.28-.73-.47a9,9,0,0,0-1.72-1.35.58.58,0,0,0-.43-.13,14.56,14.56,0,0,0,2.13,2c-1,.38-1.53-.3-2.16-.79-.27-.21-.66-.4-.36-.83-.25-.41-.77-.12-1.08-.46a22,22,0,0,1,2.74-1.21c.86-.37,1.58-.61,2.28.38a9.83,9.83,0,0,0,1.79,1.6,4.83,4.83,0,0,1-2.3-1.42,1.23,1.23,0,0,0-1.18-.55C92.8,47.26,94.1,47.89,95,49a.82.82,0,0,1-1-.21m-4.63.07c.58.37.64,1,1,1.45a2.55,2.55,0,0,1-1-1.45m-.59.77,1,1.08a1.35,1.35,0,0,1-1-1.08m-.7.61-1.44-2.27.58-.22a16.93,16.93,0,0,0,1.22,2.12,1.26,1.26,0,0,1-.36.37m-2.52-1.6c.19-.4.51-.4.76-.54.48.76.95,1.5,1.41,2.25-.74-.59-1-1.65-2.17-1.71M85,51.7c.35-.23.74-.14,1-.44-.13.32-.46.47-1,.44m-1.13.38a1,1,0,0,1,1-.27c-.35.17-.59.37-1,.27m-1.65.56,1.1-.44,0,.11a1.41,1.41,0,0,1-1.15.33m.65-.88c-.11-.11-.06-.23-.09-.34a.39.39,0,0,1,.38,0c.05.27-.16.24-.29.31m-1.06.5c-.23-.52.21-.47.47-.6l.06.41-.53.19m-1,.53c-.3.16-.54.19-.66-.2a1.34,1.34,0,0,0-.17-.27l1.14-.63c0,.47-.39.2-.53.41,0,0,0,.14.09.22.23.06.46-.34.74.1-.34,0-.41.27-.61.37m-1.83,1.1.94-.49a.89.89,0,0,1-.94.49m-.49-.59a1.76,1.76,0,0,1,1.06-.61,1.16,1.16,0,0,0,.14.24,2.9,2.9,0,0,0,.19.22c-.3.24-.72.12-.94.46,0,.08-.34-.12-.45-.31m-.38.4a1.69,1.69,0,0,1-.83.46c.28-.3.5-.51.83-.46m-1.62,1.22a1.39,1.39,0,0,1,.91-.57,2.12,2.12,0,0,1-.91.57m3.27-4c-.54.44-1.11.84-1.66,1.26a3.37,3.37,0,0,0-1,1.17,2.52,2.52,0,0,1-.71.82,13.18,13.18,0,0,0-2.45,2.27s-.07,0-.13.07a2.93,2.93,0,0,0-2.34-.89,4.82,4.82,0,0,1-1.84-.28.31.31,0,0,0-.25,0,8.15,8.15,0,0,1-2,.22c-.3,0-.66,0-.78.39,0,.09-.13.1-.22.12-2,.4-3.95,1-5.91,1.56a.5.5,0,0,1-.35,0c4.24-2.22,8.38-4.55,12.73-6.47,0,0,.06.08.06.1-.08.61.15.85.8.79a3.36,3.36,0,0,0,3-2.57c0-.3.27-.32.46-.39,1.79-.73,3.59-1.44,5.39-2.16l1.91-.75c.3.69.39,1.45.72,2.14-.3.09-.56.19-.84.25a11,11,0,0,0-4.6,2.36m-4-1.11a7.75,7.75,0,0,1-2.17,1,15.4,15.4,0,0,1,2.17-1m-1.86,1.54,1.35-.75c-.36.39-.65.92-1.35.75M84.9,45.94c.44-.1.6.16.74.46a5.66,5.66,0,0,0,.58,1.34,1,1,0,0,1-.69.38,7.8,7.8,0,0,1-.63-2.18m-2.58,5.31a1.34,1.34,0,0,1-.85.38,1.52,1.52,0,0,1,.85-.38m2.28-2.38c.16-.28.4-.34.79-.23l-.79.23m2.57-1.4a1.06,1.06,0,0,1-.52.17,5.35,5.35,0,0,1-.87-3.06,17.42,17.42,0,0,0,1.39,2.89m1.66,1.24a3.59,3.59,0,0,1-.93-1.19c.29-.15.66.3.93,1.19M98,47.44A13.78,13.78,0,0,1,94.43,45c.35-.27.61-.33,1,0,.92.75,1.69,1.65,2.57,2.44M95.72,44.7a2.54,2.54,0,0,1,1,.85c-.5-.18-.68-.58-1-.85m19-.54a2.42,2.42,0,0,1-2.08-.11c-1.78-1-3.64-1.83-5.32-3a1.82,1.82,0,0,1-.7-.6l1.53-.59a32.46,32.46,0,0,0,3.35,2.23A16.12,16.12,0,0,0,115,43.87c0,.23-.23.24-.36.29m-6.15-4.39c.64-.38,1.32-.47,1.94-.79.26.61.86.78,1.33,1.11a32.26,32.26,0,0,0,4.48,2.79l.82.37c0,.26-.22.26-.37.31a5.06,5.06,0,0,0-.87.23.27.27,0,0,1-.29,0,77.05,77.05,0,0,1-7-4M87.28,43.44c.69.33,1.13-.15,1.62-.45,1.91-1.15,3.74-2.42,5.65-3.58,2.25-1.38,4.65-2.49,6.93-3.83a14.47,14.47,0,0,1,3-1.47.67.67,0,0,0,.25-.16,2.27,2.27,0,0,1,1-.59,9.39,9.39,0,0,0,1.36-.73c2.55-1.25,5.11-2.49,7.65-3.75,2.35-1.17,4.77-2.2,7.17-3.26,2.79-1.22,5.62-2.33,8.48-3.38,1.14-.42,2.3-.8,3.43-1.28a14.28,14.28,0,0,1,2.44-.82.43.43,0,0,1,.36,0,30,30,0,0,1-2.9,1.19,20.42,20.42,0,0,0,4-1.23c-.21-.4-.49-.05-.74-.16a10.47,10.47,0,0,1,1.95-.69,49.45,49.45,0,0,0,2.45,8.23c-2,.93-4.11,1.53-6.16,2.25-2.67.94-5.35,1.86-8,2.82-3.89,1.4-7.76,2.86-11.66,4.25-1.87.66-3.68,1.46-5.55,2.12-3.77,1.31-7.48,2.78-11.23,4.15a.6.6,0,0,1-.79-.17c-.12-.15-.24-.34-.49-.34-.32.48.21.54.43.8l-.5.21c-.31-.26-.52-.67-1-.7,0,.47.5.41.63.75a1.26,1.26,0,0,1-1.56.12.67.67,0,0,0,0,.19c0,.13.13.28-.06.39s-.27,0-.37-.13a.21.21,0,0,0-.31,0c-.19.15.06.25.06.38a1.12,1.12,0,0,1-1.08.09c0,.31-.26.4-.53.51-1.36.52-2.7,1.13-4.09,1.59-.68.23-.6.39-.92-.43-.1-.25-.18-.51-.28-.77s-.29-.69,0-1c.13-.12.1-.32.08-.5-.47-.15-.68,0-.74.43a3.77,3.77,0,0,0,.5,1.94c.11.25.23.49.34.73a.28.28,0,0,1-.46-.07,3.93,3.93,0,0,1-.75-3.26c0-.18.15-.47.39-.36m53.46-24.95a.59.59,0,0,1-.09-.73c.1.28.2.48.09.73m-.05,1.78c-.24-.37-.18-.71.14-.87s.33.05.4.2c.16.32,0,.48-.54.67M141.76,22c-.69-.06-.81-.2-1-1.2.21-.05.35-.2.56-.18a9.54,9.54,0,0,1,.42,1.38m.7,5.58c.19-.17.43-.17.66-.28a15.78,15.78,0,0,1,.85,3.11c-.5-.94-1-1.88-1.51-2.83m-.26.29,2.12,4c-.82-1.27-2-2.38-2.12-4m-.41.7c-.43,0-.58-.31-.86-.43.38-.05.55.24.86.43m-.49-6.1a.56.56,0,0,1,.73.5c.28,1.16.6,2.31.92,3.46.18.68.19.68-.55.88a12.91,12.91,0,0,1-1.43-4c.21.21.17.62.6.6.25-.53-.29-.9-.27-1.4M140.85,16c.43,0,.84,0,.93-.55a3,3,0,0,0,1.14.52c-.33.68-1.18.47-1.58,1a.35.35,0,0,0,.49.19,26.47,26.47,0,0,0,2.8,9.32l-.18.1c-.55.28-.57.28-.83-.28A28.73,28.73,0,0,1,142,21c-.17-.68-.35-1.36-.53-2,.47-.32.46-.31,0-.59-.27-.16-.26-.45-.21-.71a.48.48,0,0,0-.09-.41,1.74,1.74,0,0,1-.26-1.21m2.09,2.22c.17,1,.25,1.94.44,2.9s.51,2.13.78,3.22c-.73-.95-2-5.73-1.89-7.19a1.25,1.25,0,0,1,.67,1.07m2.49,8c-.47.23-.61.14-.56-.36a1.14,1.14,0,0,0-.08-.55,14.48,14.48,0,0,1-.73-3.15c.07.07.11.1.12.13.4,1.32.79,2.64,1.25,3.93m.26.53c.31,1,.8,2,1.18,3a1,1,0,0,1,0,.27l-1.75-3.32c.26-.2.47-.19.56.1m24-8.24-.19-.14c.5-.08.83-.43,1.33-.2,2.43,1.09,4.92,2,7.4,3l.35.16c-.31.2-.62.22-.84.41s-.18,0-.28,0a72.13,72.13,0,0,1-7.77-3.21m5.77,3.89c-2.67-.88-5.3-1.88-7.89-3a.49.49,0,0,1-.34-.23,5.37,5.37,0,0,1,1.49-.51c.24-.06.41.25.64.32,2,.64,3.94,1.63,5.93,2.39.5.19,1,.35,1.64.56-.53.26-.94.61-1.47.44m-2.58.73c-2.41-1-4.8-2.07-7.18-3.14-.12-.05-.25-.07-.33-.21l1.52-.53c.07.32.31.45.59.57,2.29.95,4.56,2,6.94,2.69a1.56,1.56,0,0,1,.66.25c-.76.28-1.32.73-2.2.37m-9.74-2.4-.19-.17c.82-.25,1.47-.7,2.34-.32,1.83.78,3.62,1.61,5.43,2.42.69.31,1.39.6,2.09.9a1.12,1.12,0,0,1-1.1.37c-2.86-1-5.81-1.88-8.57-3.2m6.44,4A60.23,60.23,0,0,1,162,21.63l-.9-.49,1.11-.42a.48.48,0,0,1,.45,0,35.32,35.32,0,0,0,8,3.2l.58.19a1.73,1.73,0,0,1-1.73.55m.26.58a1,1,0,0,0,0,.1l-2.7,1.19a13.9,13.9,0,0,1,2.66-1.29m-2,.53a2.45,2.45,0,0,1-1.93.34c-1.25-.45-2.54-.76-3.79-1.21-1.63-.59-3.2-1.31-4.82-1.91a1.71,1.71,0,0,1-.54-.3c.6-.49,1.37-.49,2-.84.08.19.12.32.31.38,1.36.41,2.62,1.06,3.94,1.57a40.1,40.1,0,0,0,4.74,1.73l.15,0a.17.17,0,0,1-.1.2m-3.58-1.88c-1.64-.63-3.25-1.33-4.87-2,0,0-.12,0-.12-.14.41-.16.83-.32,1.26-.47a.56.56,0,0,1,.29.07,8.21,8.21,0,0,0,1.31.6c.16,0,.37.3.6.4,2,.88,4.09,1.76,6.2,2.47.15,0,.32.05.43.25a1.08,1.08,0,0,1-.89.21c-1.42-.42-2.83-.87-4.21-1.4m32.53-11.5c-1.15-.29-2.21-.82-3.42-1.18a2.35,2.35,0,0,1,2-.17,18.22,18.22,0,0,0,2.48.89,1,1,0,0,1-1.08.46m-2,.64c-1.1-.47-2.25-.82-3.38-1.21l-.23-.1.29-.08a3.6,3.6,0,0,1,2.65.19,15.58,15.58,0,0,1,2.46.94,1.58,1.58,0,0,1-1.79.26m-5.56-.52s-.08-.07-.21-.17a4,4,0,0,1,2-.22,20.56,20.56,0,0,1,3.18,1l1.09.35c-.38.22-.67.56-1,.46-1.67-.44-3.32-.93-5-1.41m3.34,2.06-5-1.49L187,13a2.59,2.59,0,0,1,1.74-.16c1.67.29,3.19,1.08,4.85,1.44a1,1,0,0,1-1.17.36M190.58,16c-.57.15-1,.63-1.63.44-2.18-.6-4.29-1.42-6.46-2.06,0,0,0,0-.06-.09a3.89,3.89,0,0,1,1.69-.19,15.86,15.86,0,0,1,4.34,1.12c.58.2,1.17.4,1.77.55a.54.54,0,0,1,.35.23m0-.47a38.81,38.81,0,0,0-6-1.76,4.57,4.57,0,0,1,3.4-.16c.93.25,1.83.59,2.74.92a16.92,16.92,0,0,0,1.7.4c-.23.34-.62.34-.88.54a.89.89,0,0,1-.95.06m8.56-4.59c-.73-.24-1.48-.39-2.31-.74a4.37,4.37,0,0,1,3.38.6c-.34.38-.69.27-1.07.14M144.2,16a13.3,13.3,0,0,0,2.45-.82A44.29,44.29,0,0,1,151,13.71c2.52-.71,5-1.46,7.56-2.12,3-.78,6-1.5,9.06-2.24,3.18-.78,6.4-1.32,9.62-1.84,1.08-.17,2.17-.47,3.25-.62,2-.27,3.88-.74,5.84-1,2.48-.35,5-.61,7.46-.89a34.81,34.81,0,0,1,5-.23c1.05,0,2.12-.15,3.17-.09s2.15-.07,3.23,0,2.18,0,3.27,0a4.67,4.67,0,0,1,2.65.46c.28.17.71.35.68.65s-.44.57-.76.77a3.21,3.21,0,0,1-.33.12c-.06,0-.18,0-.19.08-.13.63-.79.57-1.15.91-.79.72-1.63.38-2.49.08,1-.78,2.38-.86,3.17-2a1,1,0,0,0-.93.28,10,10,0,0,1-2.69,1.5.53.53,0,0,1-.5-.06,2,2,0,0,0-.82-.22c0,.22,0,.22.68.62-.47.6-1.22.3-1.81.5.07.22.28.13.34.3s-.13.16-.21.18a3.26,3.26,0,0,0-1.36.72,1.92,1.92,0,0,1-1.54.17c-.36-.06-.7-.16-1.11-.26.5-.41,1.18-.22,1.68-.74a15.26,15.26,0,0,0-2.87.84,10.58,10.58,0,0,1,2.67.55c-1.11.83-2-.16-3-.23,0-.25.29-.15.34-.32-.38,0-.73.39-1.13.07,0,0-.11,0-.15.07a2.11,2.11,0,0,1-1.58.39c-.37,0-.39.38-.66.45,1.39-.3,2.51.61,3.81.82a1,1,0,0,1-1.26.37c-.89-.38-1.86-.53-2.74-.91,0-.16.17-.17.21-.28a2.64,2.64,0,0,1-1.55-.22c-.2.19,0,.34,0,.52a2.9,2.9,0,0,1-1.93.15c0,.23.28.06.3.28a4.8,4.8,0,0,1-2,.44c-.2,0-.49-.22-.46.24,0,.08-.11.07-.18.09a2.65,2.65,0,0,1-1.21.24.32.32,0,0,0-.25,0,3.36,3.36,0,0,1-2.09.54c-.13,0-.26-.05-.37.07a2.41,2.41,0,0,1-2.12.64.58.58,0,0,0-.65.33c-.18.33-.59.33-.93.34a8.67,8.67,0,0,1-.89-.06s0,.08,0,.12l7.67,2.57a1.47,1.47,0,0,1-1.59.4,32,32,0,0,1-7.33-2.79c-.12-.07-.26-.23-.45,0,2.32,1.65,5.07,2.22,7.74,3.14a1.75,1.75,0,0,1-1.69.34c-1.52-.52-3.06-1-4.57-1.58-1-.39-2-.8-3-1.14-.16-.05-.31-.16-.49-.07,0,.28.18.34.36.42,2.37,1,4.8,1.88,7.25,2.66a.76.76,0,0,1,.4.18,3.12,3.12,0,0,1-2.61.44,32.37,32.37,0,0,1-7.08-2.36c-.09,0-.24-.16-.34,0a.27.27,0,0,0,.08.35.59.59,0,0,0,.29.19c1,.25,2,.81,3,1.14,1.24.42,2.52.74,3.79,1,.2,0,.39.11.68.2a18.67,18.67,0,0,1-1.85.76c-.24.07-.56-.11-.83-.2-1.79-.64-3.57-1.31-5.37-1.93a7.71,7.71,0,0,1-2.14-1c-.29.22-.3.36.05.51A58.29,58.29,0,0,0,180,20.25a1.37,1.37,0,0,1,.44.24c-.54.11-.92.65-1.61.4-2.5-.94-5-1.84-7.44-3,0,0-.11,0-.11-.11s.43-.05.53-.42c-.57.31-1.19.16-1.69.51a1.35,1.35,0,0,1-1.18.25c-.1,0-.24-.06-.28.05-.12.38-.46.34-.74.44l-1.74.63a3.43,3.43,0,0,1-1.45.23.37.37,0,0,0-.32.11,2.6,2.6,0,0,1-2.14.69c-.13.08,0,.23-.14.33a3.72,3.72,0,0,0-1.06.29c-.21.08-.39.09-.53-.12s-.32-.25-.49-.11,0,.3.13.47c-.83.32-1.65.69-2.5.93s-1.68.56-2.52.83c-2.14.67-4.27,1.35-6.35,2.2a1.3,1.3,0,0,1-1,.11c-.13,0-.37-.12-.33.2s-.12.13-.19.16c-.48.19-1,.36-1.5.55-.22-.61-.44-1.21-.65-1.81a22.63,22.63,0,0,1-1.36-5.43,4.24,4.24,0,0,1,.09-2c0-.13.09-.34-.13-.4s-.23.16-.28.3,0,.49-.13.73c-.19-.23-.18-.6-.57-.73A3.2,3.2,0,0,1,144.2,16m10.9-4,0,.1a2.93,2.93,0,0,1-1.37.31Zm24.15-5.37a1,1,0,0,1-.63.29c-3.25.48-6.47,1.14-9.68,1.82-3,.65-6.05,1.33-9,2.14-1.18.31-2.34.68-3.54.93l-.2,0a148.77,148.77,0,0,1,23.09-5.21m19.81-2.48a.53.53,0,0,1,0,.13l-7.76.55a55.92,55.92,0,0,1,7.75-.68M182.44,2.29A7.83,7.83,0,0,1,184.76,2a8.28,8.28,0,0,1-2.32.32m-1.25.12a.88.88,0,0,1,.91-.05l-.91.05m-26.81,6c.75-1.48,3.13-3.57,4.3-3.69-.66.61-1.25,1.13-1.81,1.67S155.78,7.46,155.24,8a1.45,1.45,0,0,1-.86.39m-1.06.37a21.83,21.83,0,0,1,3.19-3.46c-1.19,1-1.92,2.5-3.19,3.46M150.9,9.9c0-.14.07-.2.14-.27.65-.64,1.33-1.25,2-1.92a12.59,12.59,0,0,0,1.33-1.59,1,1,0,0,1,.9-.42A15.58,15.58,0,0,1,153,8.29c-.44.36-.77.82-1.18,1.21a1.44,1.44,0,0,1-.91.4m-.6-.42A19.14,19.14,0,0,0,152.53,7a2.63,2.63,0,0,1,1.4-.89c-1.45,1.35-2.64,2.92-4.08,4.41a1.16,1.16,0,0,1,.45-1m-1.89,1.45a3.12,3.12,0,0,1,1-1.59c.19-.16.31,0,.45.12-.16.43-.59.69-.7,1.17-.05.23-.44.2-.74.3m-1.15.36A4.85,4.85,0,0,1,149,9c-.64.7-.74,1.81-1.71,2.26m3.25-4a3.91,3.91,0,0,1-1.31,1.4,2.6,2.6,0,0,1,1.31-1.4M150,9.39c-.4-.36-.2-.62.06-.86.44-.42.73-1,1.2-1.36a2.73,2.73,0,0,1,.88-.49c-.52,1.11-1.53,1.74-2.14,2.71m3-3.56c-.34.49-.46.56-1,.49a3.12,3.12,0,0,1,1-.49m3.1-1a4.69,4.69,0,0,1-2.45,1c.74-.69,1.64-.63,2.45-1m1.42-.51c-.21.49-.56.54-1,.67.19-.56.61-.46,1-.67M159.41,4c-.31.45-.84.39-1.27.58A1.18,1.18,0,0,1,159.41,4m2.07-.5a1.11,1.11,0,0,1-1.16.42c.32-.42.74-.3,1.16-.42m4.21-.79a14.62,14.62,0,0,1-3.39.71,12.35,12.35,0,0,1,3.39-.71M212,6.83a.39.39,0,0,0,.28-.45.57.57,0,0,1,.23-.53,3.55,3.55,0,0,1,.7-.54c0-.37-.09-.71-.13-1L213,4.19c-.43.25-.82.34-1.15-.19-.17-.28-.52-.11-.66,0a2,2,0,0,1-1.6.33H204.7c0-.08,0-.14,0-.19-.2-.4-.24-.91-.69-1.14a14.47,14.47,0,0,0-2.72-1,23.11,23.11,0,0,0-5-.65,18.67,18.67,0,0,0-4.42,0,2.09,2.09,0,0,1-.56,0,48.28,48.28,0,0,0-5,.06c-2.6.13-5.17.51-7.74.86s-5.17.87-7.73,1.41c-4.42.92-8.76,2.17-13.08,3.45l-1.36.39c0-.1,0-.13,0-.15,1-1,2.11-2,3.23-2.87a1.76,1.76,0,0,1,.78-.33c.14,0,.23,0,.25.17-.58.71-1.51,1.14-1.8,2.16.39,0,.53-.2.67-.41a5.29,5.29,0,0,1,.32-.5c.53-.6,1.33-.9,1.76-1.61a.48.48,0,0,1,.24-.09c3.22-.79,6.45-1.54,9.72-2.08,2.35-.39,4.72-.55,7.09-.83,1.54-.18,3.09-.38,4.65-.45,1.09-.05,2.17-.08,3.26-.07,1.76,0,3.52-.2,5.26-.09,2,.12,4,.31,6.07.55,2.4.29,4.78.69,7.16,1.11.18,0,.43,0,.45.25,0,.44.29.39.54.22s.43-.1.55.2a2.87,2.87,0,0,0,.69,1c.11.1.21.15.33,0a.6.6,0,0,0-.08-.8,1,1,0,0,1-.3-.31c-.39-.79-1.13-.86-1.87-.93-.23,0-.47-.06-.69-.11A68.44,68.44,0,0,0,194.91.42c-1.36-.11-2.72-.22-4.09-.31a63.72,63.72,0,0,0-9.47.16c-1.87.17-3.72.45-5.59.62-3.13.29-6.26.67-9.36,1.19s-6.07,1.1-9.08,1.76a32.12,32.12,0,0,0-8.09,2.77c-.13.07-.33.13-.29.27.09.31-.12.35-.3.43a6.88,6.88,0,0,0-3.19,3.31.85.85,0,0,0,.05.93A1.05,1.05,0,0,0,147,12c.18.2.28.39.57.41a8.05,8.05,0,0,0,3.08-.4A12.91,12.91,0,0,0,153,10.83c.36-.19.93-.34.83-1,1.41-.65,2.83-1.22,4.26-1.75C161.05,7,164,6.18,167,5.32a23.68,23.68,0,0,1,3.34-.85c.84-.11,1.68-.24,2.51-.42A57.81,57.81,0,0,1,181,2.82c2.32-.18,4.64-.36,6.94-.7a9.8,9.8,0,0,1,2.7-.33c1.58.22,3.19.14,4.78.3a14,14,0,0,1,4.92,1.27,1.81,1.81,0,0,1,.76.49c-1.42.13-2.8.17-4.19.23s-2.64,0-4,.21c-2.15.3-4.3.65-6.45,1-4.22.66-8.44,1.3-12.66,2a22.08,22.08,0,0,0-3.1.53c-1.32.41-2.72.51-4,.94-.78.25-1.61.33-2.41.54-3.33.87-6.67,1.76-10,2.78-2.06.64-4.11,1.32-6.15,2-1.39.47-2.77,1-4.15,1.49-.18.06-.39.2-.51-.09a1.89,1.89,0,0,0-.83-.73,2.53,2.53,0,0,0-2.2-.24,1.92,1.92,0,0,1,0-1c.11.28.12.57.44.68a1.86,1.86,0,0,0-.13-.86c-.09-.2-.1-.56-.42-.51s-.3.36-.32.61a2.17,2.17,0,0,0,0,.26,12.56,12.56,0,0,0,.2,1.37c0,.11.11.25,0,.32-.42.28-.43.84-.75,1.15a1.92,1.92,0,0,0-.52,1.22.55.55,0,0,1-.48.5c-3.35,1-6.65,2.16-9.92,3.39-3.62,1.36-7.18,2.85-10.78,4.24-1.45.56-2.87,1.19-4.27,1.83s-3,1.28-4.44,2c-1.27.64-2.58,1.22-3.86,1.88a8.77,8.77,0,0,0-1.75.9,2.75,2.75,0,0,1-1.08.6,3.32,3.32,0,0,0-.51.23c-.5.25-.93.6-1.42.87-2.1,1.17-4.19,2.33-6.18,3.67-.91.62-1.83,1.2-2.73,1.83-.67.47-1.31,1-2,1.48a.34.34,0,0,0,.39,0c1.32-.93,2.69-1.78,4-2.67C95.76,37.24,97.62,36,99.56,35c2.84-1.54,5.68-3.09,8.61-4.43,1.65-.75,3.24-1.6,4.92-2.29,2-.82,3.91-1.72,5.89-2.53,4.82-2,9.66-3.92,14.59-5.6,1.28-.43,2.58-.82,3.87-1.21a2.66,2.66,0,0,1,1.47-.07,8,8,0,0,1-1.54.6c-2.31.71-4.61,1.48-6.85,2.4-1.37.56-2.78,1-4.16,1.53-3.12,1.21-6.15,2.62-9.16,4.07-2.61,1.26-5.3,2.35-7.87,3.69-1.51.78-3,1.59-4.53,2.37-4.35,2.27-8.78,4.4-12.9,7.1-.64.42-1.31.8-1.94,1.26a11.94,11.94,0,0,1-2,1.25,2.07,2.07,0,0,1,.06-.26.41.41,0,0,0-.06-.48c-.16-.15-.29,0-.43.07a1,1,0,0,0-.45.39,7.54,7.54,0,0,0-.65,1.23,2,2,0,0,1,.09-1.57l.34.32c.27-.68,1.26-.6,1.42-1.45-.12,0-.22,0-.25,0-.27.27-.57.21-.91.17a.84.84,0,0,0-.88.43c-.3.54-.61,1.08-.89,1.63a2.06,2.06,0,0,0-.23.74,1.55,1.55,0,0,1-1,1.38c-1.2.48-2.4.94-3.58,1.46L73.7,50.22c-.07-.35-.26-.45-.53-.29a.69.69,0,0,0-.34.39,1.35,1.35,0,0,1-.86.82l-1.27.62-8.94,4.41-2.94,1.45s-1.63.89-2.84,1.63v0h0a12.46,12.46,0,0,0-1,.7c.07.08.14.17.22.25l0,0a3.43,3.43,0,0,1,1.48-.39h0c.56,0,1,.12,1.22.06a1.14,1.14,0,0,0,.7-.56.88.88,0,0,1,.48-.79,28.25,28.25,0,0,1,4.3-1.27h0a6.27,6.27,0,0,1,1.59-.39,18.94,18.94,0,0,1,7.53.39.67.67,0,0,0,.57,0,.24.24,0,0,1,.35.14.76.76,0,0,1-.07.13c.13.05.27.1.41.17a1.19,1.19,0,0,0,.45.17,4.8,4.8,0,0,1,1-1.7c.11-.16.18-.35.4-.43A37.2,37.2,0,0,0,79.86,54c.48-.25,1-.33,1.55-.6s1,0,1.32-.53c0,0,.08,0,.12,0a8,8,0,0,0,1.9-.63,3.85,3.85,0,0,1,1.61-.34c.32,0,.64-.21.89.2.13.19.42.23.66.3s.43.07.51.19c.24.39.57.26.9.24.64,0,.87-.26.89-1.06,0-.41-.44-.1-.61-.26a.49.49,0,0,1-.08-.13c.25,0,.51-.17.72-.11s.49,0,.52-.35a3.33,3.33,0,0,0,2.45-.06,3.36,3.36,0,0,1,1.86-.35.85.85,0,0,0,.85-.32.64.64,0,0,1,.57-.3,17,17,0,0,0,2-.37c.62-.15,1.14-.55,1.76-.67,1.14-.22,2.28-.42,3.39-.72,4.39-1.18,8.83-2.17,13.14-3.63,1.76-.6,3.63-.79,5.35-1.51a9.45,9.45,0,0,1,1.28-.39c2.9-.8,5.81-1.57,8.7-2.4,4.06-1.17,8-2.57,12.11-3.73a1.42,1.42,0,0,1,1.69.48c.58.63,1.29,1.12,2.2.65.24.16.35.42.6.55.28-.12.28-.39.34-.62a1.67,1.67,0,0,1,.25-.54c.16-.23.63-.33.27-.75l.07-.1c.26-.29.11-.52-.14-.64s-.46.08-.54.34-.17.46-.45.51c0,.26.2.49,0,.81-.41-.93-1.19-1.6-1.41-2.6a4.39,4.39,0,0,1,1.08-.31c.19.37.36.72.55,1.1l.85-.32,8.36-3.24c1.4-.55,2.79-1.15,4.19-1.69,1.21-.47,2.44-.85,3.64-1.35,2.55-1,5.12-2,7.66-3.12,4.59-1.94,9.15-3.95,13.73-5.92,2.46-1.06,4.78-2.43,7.21-3.57.83-.38,1.56-1.1,2.6-.87,0-.43,0-.42.4-.6a46.57,46.57,0,0,0,4.57-2.31,13.15,13.15,0,0,1,3.3-1.62c.09,0,.22,0,.22-.12,0-.48.46-.51.75-.67,1.94-1.06,3.83-2.2,5.84-3.11"/><path class="cls-1" d="M89.65,60.47a126.3,126.3,0,0,0-16.84-.7c-5.73.07-11.46.19-17.2.12-1.49,0-3-.09-4.47,0-1,0-2.32.21-3.2-.35l.06-.15a.2.2,0,0,0-.16-.27c-3.35-1.1-6.92.35-10.31-.47a3.1,3.1,0,0,1,1.06-.24c.45-.06.91-.08,1.37-.12.3,0,.35-.47,0-.45-2.46.15-4.9.46-7.34.73-1.79.19-3.72.73-5.51.29a4.55,4.55,0,0,1,1.51-.5c.68-.14,1.37-.22,2.05-.37,1.41-.31,3.13-.2,4.33-1.11a.22.22,0,0,0,0-.36,7.45,7.45,0,0,0-3.36-.17c-1.55.07-3.08.3-4.62.49C24,57.16,21,57.85,17.9,58.1c-1.08.09-2.19.15-3.28.16a3.17,3.17,0,0,1-1.37-.15c-.08,0-.14-.11-.21-.15a5.46,5.46,0,0,1,.7-.3,14.51,14.51,0,0,1,1.63-.19l2.19-.21c.67-.06,1.34-.13,2-.24,1.34-.22,2.66-.47,4-.77A20,20,0,0,0,27.62,55a1.82,1.82,0,0,0,.92-.74c.22-.5-.29-.79-.71-.9a11.09,11.09,0,0,0-1.29-.16c-.67-.09-1.34-.17-2-.2C23,53,21.4,53,19.83,53a75.26,75.26,0,0,0-18.11,2.4,5.47,5.47,0,0,0-1.6.66c-.27.17,0,.56.22.38A5.94,5.94,0,0,1,2,55.82c.71-.19,1.41-.37,2.13-.54,1.49-.35,3-.65,4.51-.88a90.32,90.32,0,0,1,9.16-.82c1.5-.07,3-.11,4.52-.12a40.62,40.62,0,0,1,4.28.24,3.58,3.58,0,0,1,1.31.23c.17.08.21.15.15.25-.17.32-.74.5-1.06.62A26.85,26.85,0,0,1,22.78,56c-1.17.24-2.34.47-3.53.65-1,.16-2,.2-3,.3l-1.72.18a4.18,4.18,0,0,0-1.45.31c-.21.11-.71.3-.65.61s.48.5.74.58a7.37,7.37,0,0,0,2.65.07c1.34-.08,2.67-.14,4-.32,1.48-.19,3-.46,4.43-.7a81.85,81.85,0,0,1,8.69-1,4.91,4.91,0,0,1,1.38.06,6.51,6.51,0,0,1-2,.47c-.7.1-1.39.22-2.09.35s-1.42.22-2.12.4a3,3,0,0,0-1.65.81.21.21,0,0,0,.09.37c1.89.63,4,.06,5.9-.16,1.49-.17,3-.35,4.47-.5a.64.64,0,0,0-.08.14A.21.21,0,0,0,37,59c3.42,1,7-.5,10.44.49a1,1,0,0,1,0,.1.2.2,0,0,0,0,.22,4.35,4.35,0,0,0,2.55.57c1.15,0,2.28,0,3.42,0,3,0,6,.07,8.93.06,5.8,0,11.59-.26,17.39-.13,3.25.08,6.51.27,9.74.66.28,0,.46-.41.15-.44"/></g></g></svg>