<svg id="Layer_1" data-name="Layer 1" xmlns="http://www.w3.org/2000/svg" viewBox="0 0 237 110.48"><defs><style>.cls-1{fill:#fff;}.cls-2{fill:#a6a8ab;}</style></defs><title>Beginning</title><path class="cls-1" d="M194.82,61.92a.61.61,0,0,0-.15-.23c1.93-2.11,3.75-4.32,5.6-6.5a62.1,62.1,0,0,1-5.45,6.73m-13,2.72,0-.07c.68.17,1.35.34,2,.48-.69-.11-1.37-.25-2.06-.41m-16.21-2.8a47.8,47.8,0,0,1,8.88,2.61,29.47,29.47,0,0,1-8.88-2.61m-11.87-4.19c-.44-.07-.88-.11-1.32-.17,1.09.07,2.17.16,3.25.27l2.82.4.08,0c1.33.27,2.67.49,4,.7,3,.67,6,1.6,9,2.38a1.19,1.19,0,0,0-.32.51,157.34,157.34,0,0,0-17.48-4.11m30.62-.51c1-.07,1.46.84,2.21,1.22-1,.16-1.63-.5-2.21-1.22m-6.82-1.94c1.21.11,2,1,3.06,1.49.66.32,1.2,1.41,2.21.44.19-.18.87.34,1.08.84-2.85.81-4.27-1.77-6.35-2.77m12.35,3.9a10.37,10.37,0,0,1,2.89-3.25,60.63,60.63,0,0,1,5.25-3.64,19.43,19.43,0,0,0,6.17-6.69.78.78,0,0,0,.08.58,3,3,0,0,0-.57.51,1,1,0,0,0-.2.48,15.23,15.23,0,0,0-1.27,1.61l-.18.2a1.28,1.28,0,0,0-.16.27h0a.89.89,0,0,0-.3.19l-1.86,1.73a19.72,19.72,0,0,0-2.67,2.51h0a.79.79,0,0,0-1.12.06c-.33.32-.68.64-1,1a14.36,14.36,0,0,0-2.51,2.21,18,18,0,0,0-3.25,3.67.54.54,0,0,0,0,.11H189a.9.9,0,0,0-.37-.12h0a2.87,2.87,0,0,0,1.32-1.4m19.5-11.9c-.65-.15-.74.71-1.39.61.14-.83,1.15-1.46.65-2.43-.45,0-.63.27-.82.5-1.77,2.1-3.52,4.21-5.27,6.32l-.07.08a.76.76,0,0,0,0-.15,29.42,29.42,0,0,0,2.33-3.28.75.75,0,0,0,.12-.44c.46-.4.92-.8,1.4-1.19a.63.63,0,0,0,.28-.61,4.84,4.84,0,0,0,.79-.39c.63-.41.53-1.51-.34-1.45a20.27,20.27,0,0,1-2.06.08.77.77,0,0,0-.53.2l.13-.23a7.18,7.18,0,0,1-3.59.51,2.33,2.33,0,0,0-1.82.74,11.68,11.68,0,0,1-2.71,2L193,50.32c.15.63.86.51.94,1-.82.31-1.39-.64-2.17-.46-.08.49.61.56.58,1-.59.14-1-.51-1.59-.23.27.64,1.14.6,1.43,1.76-2.41-2.38-4.25-.65-6.17.44.67,1,2.11,1,2.8,2.08-.21.16-.34,0-.5-.05-.86-.49-1.71-1-2.6-1.44a1,1,0,0,0-1.44.36c-.25.52.28.74.62,1,.66.6,1.62.73,2.22,1.48-.68.76-1-.06-1.38-.27-1.75-1.1-3.33-2.6-5.54-2.59a28.85,28.85,0,0,1-4.76-.25c1.39,1.26,3,2,4.43,3.47a3.57,3.57,0,0,1-1.78-.86c-1.33-1-2.63-1.94-4-2.89-.74-.54-.9-.5-1,.17l3.32,2.55c.72.49,1.13,1.33,2.1,1.58,2.5.67,4.95,1.54,7.45,2.19l-1,0c-2.12-.75-4.31-1.32-6.51-1.88l-.07,0a53.43,53.43,0,0,0-9.24-2.79.8.8,0,0,0-.56.11c-.33-.15-.67-.28-1-.41a7.8,7.8,0,0,0-2.88-1l-.45-.09a.73.73,0,0,0-.51-.5,27.82,27.82,0,0,0-11.4-.86,22.53,22.53,0,0,0-12.31.58.83.83,0,0,0-.16.09c-.9.24-1.78.51-2.63.76-1.34.4-5.41,1-5.89,2.64a.73.73,0,0,0,.74.95c.76-.09,1.51-.19,2.27-.3a.72.72,0,0,0,.52.2,20.68,20.68,0,0,0,4.55-.67,20.68,20.68,0,0,0,2.83-.12c.65,0,1.29,0,1.94,0a43.84,43.84,0,0,0-8.51,1.36c-6.07,1.6-12.14,3.21-18.13,5.15a24.84,24.84,0,0,1-6.23,1.1c-1.69.11-3.39.26-5.1.49a13.35,13.35,0,0,0,7.69.16c4.19-1,8.31-2.27,12.48-3.39a78.42,78.42,0,0,1,21.37-2.88,58,58,0,0,1,8.65.66c1.15.19,2.46,0,3.64.94a6.45,6.45,0,0,1-2.34-.05c-1.6-.29-3.21-.45-4.82-.69-3.3-.51-6.6,0-9.9,0a51.67,51.67,0,0,0-10.3,1.3c-7.39,1.52-14.53,4-21.92,5.62a15.29,15.29,0,0,0,4.57-.37c2.71-.48,5.22-1.66,7.91-2.16,2-.37,3.94-.46,5.89-.82a47.59,47.59,0,0,1,11.33-.94c5.6.35,11.24.13,16.8,1A117.23,117.23,0,0,1,169.72,66a52.6,52.6,0,0,0,9.72,2.18c2,.15,4-.15,6,.28,2.31.51,4.6.07,6.89.16.35,0,.64-.08.71-.48a.71.71,0,0,0-.56-.84,6,6,0,0,0-1.2-.09c-2.07-.08-4.12.6-6.22.05-1.52-.4-3.11-.52-4.66-.8-.38-.06-.9.05-1.09-.66a34.46,34.46,0,0,1,3.56.47,22.55,22.55,0,0,0,8.74.15c.48-.08,1-.12.89-.76s-.62-.64-1.05-.63l-.23,0a.77.77,0,0,0,.05-.42l.31-.13h0c.3-.12.58-.24.86-.38l-.16.21a1.94,1.94,0,0,0,1.15.68c4.74-4.93,8.82-10.54,13.49-15.6l.31.29c-.61.85-1.16,1.74-1.83,2.52Q199.62,59,193.8,65.78c-.6.7-.65,1.26.27,1.73a2.88,2.88,0,0,0,.54-.42c3.26-4,6.55-7.87,9.76-11.86,1.65-2.06,3.18-4.24,4.72-6.39.33-.46.89-1,.34-1.64"/><path class="cls-1" d="M117.4,49c-.37-1.59-.86-2.68-.44-4,.74.64,0,1.68.77,2.17.07-.08.17-.16.16-.2-.79-2.92,1.16-4.46,3.1-5.64,7.3-4.42,14.44-9.25,23-11.07,2.95-.63,5.93-1.09,8.88-1.73,4.82-1.05,9.24-3.23,13.74-5.18A138,138,0,0,0,182,15.14c-3.11,2.73-6.25,5.4-9.61,7.81,4.52-1.84,7.73-5.54,11.45-8.29l13.78,5.23c0,.57-.45.74-.84,1-5.66,3.5-11.86,5.64-18.19,7.43-8.34,2.36-16.59,5-24.73,8-4.34,1.62-8.8,2.93-13,4.9-6.17,2.9-12.41,5.77-18,9.69A50,50,0,0,0,110,63.22c-.57.82-.68.84-2.13.54a4.57,4.57,0,0,1,.89-2.41c2.45-3.22,4.7-6.57,7.34-9.67,6.77-8,15.42-12.78,24.75-16.68,3.68-1.54,7.58-2.17,11.39-3.15a68.21,68.21,0,0,0,16.33-6.66c.5-.28,1.06-.48,1.59-.72s1-.27,1.43-.92a8.73,8.73,0,0,0-3.72,1.24A60.46,60.46,0,0,1,152.32,31c-3.33.89-6.77,1.46-10,2.64a66.28,66.28,0,0,0-17.6,9.24c-2.45,1.85-5.2,3.3-7.3,6.1"/><path class="cls-1" d="M184.32,73.21c-1.64,0-3.3-.38-5.18.43,1.94,0,3.6.29,5.18-.43m-75.65-3.88a23.34,23.34,0,0,0,5-.66c3.71-.72,7.44-1.35,11.14-2.09a29.45,29.45,0,0,1,5.51-.63c6.62,0,13.23-.62,19.85-.34a81.51,81.51,0,0,1,13.34,2.07c4.93,1,9.71,2.7,14.72,3.33a8.29,8.29,0,0,0,1.21.13,78.85,78.85,0,0,1,9.22.45,16,16,0,0,0,5.09-.62c1-.26,1.69,0,1.87,1.17-.67.62-1.65.49-2.53.84,1,1,2.72-.39,3.66,1.25-2.51,1.08-5.08.72-7.56,1.22a3.25,3.25,0,0,0,2.11.29c1.82-.31,3.7,0,5.49-.68a.76.76,0,0,1,1.09.53c.12.59-.31.73-.78.9a16.76,16.76,0,0,1-4.81.74c-.5,0-1.1-.14-1.55.52a18.07,18.07,0,0,0,5.8-.39c1.58-.37,1.58-.36,2.42,1a1.47,1.47,0,0,1-1.38.9c-3.7.13-7.37,1-11.09.55-5.3-.62-10.66-.25-16-1.06a29.86,29.86,0,0,1-3.64-.27,4.79,4.79,0,0,1-1.68-.82c-.89,1.48-4.33.47-5.64-1.72,5.86.82,11.67,1.64,18,1.36a22.31,22.31,0,0,0-5.91-.74c-6.45-.17-12.62-1.8-18.86-3.24-6.51-1.49-13.13-2.65-19.85-2.08-4.08.35-8.14,1-12.21,1.54-1.19.15-1.33.07-2-1.15,1.77-.67,3.66-.4,5.47-.67,4.65-.7,9.35-1,14-1.32a55,55,0,0,1,9.33.59c6.63.74,12.92,3.13,19.45,4.4a21.84,21.84,0,0,0,6.4.68c-.62-.82-1.5-.57-2.16-.65-5.56-.66-10.85-2.5-16.27-3.79A59,59,0,0,0,136.4,69c-6.71.56-13.43,1.08-20.07,2.2-1.72.29-3.43.67-5.16,1-.5.09-.87.13-1.2-.3-.21-.27-.4-.57-.2-.87a1,1,0,0,1,1.1-.35c2.71.8,5.12-.77,7.69-1,3.64-.33,7.26-.88,10.9-1.24,4.45-.44,8.93-.61,13.4-1a39.28,39.28,0,0,1,10.61,1c6.88,1.34,13.59,3.41,20.43,4.88,1.29.27,2.72.74,4.14.06a1.2,1.2,0,0,0-.9-.46c-5.17-.22-10-1.92-15-3.2-6.43-1.67-12.86-3.41-19.55-2.9-6.36.47-12.73.64-19.06,1.52-3.36.47-6.7.89-10,1.67a9,9,0,0,1-4.87-.62"/><path class="cls-1" d="M175.82,44.18c1.05,1.23,1.23,1.31,2.32,1.2l-2.32-1.2m-6.14,1.18c1.44.9,1.58.94,2.59.86a7.47,7.47,0,0,0-2.59-.86m3.46.41c1,.34,1.53,1.46,2.86.82a6.57,6.57,0,0,0-1.4-.67c-.39-.08-.71-.44-1.46-.15m14-.38c-.74-1.33-2.62-.83-2.95-2.51,2.33-.36,4.51-.8,6.82,0a18.5,18.5,0,0,0,7.81,1.3c.53,0,1-.44,1.7-.16-2.3,1.93-4.48,3.93-7.14,5.15-2.45,1.13-4.77,2.49-7.18,3.68A9.36,9.36,0,0,1,180,54c-3.89-.74-7.84-1.18-11.66-2.23a25.1,25.1,0,0,0-8.3-.86c-3.09.18-6.15-.35-9.24-.26a44,44,0,0,0-11.07,1.6,6.1,6.1,0,0,1-.85.08A5.69,5.69,0,0,1,141.29,51c.82-.37,1.69-.63,2.53-.94a147.67,147.67,0,0,1,15.27-4.38,94.1,94.1,0,0,1,11.57-2,3,3,0,0,1,1.67.45,6.15,6.15,0,0,0,1.88.81c-.41-.61-1-.75-1.56-1.2a7.08,7.08,0,0,1,2.23-.39,29.09,29.09,0,0,0,6.18-.51c.46-.08.77.19,1.13.35a34.57,34.57,0,0,0,5,2.19"/><path class="cls-1" d="M145.7,77l-2-1.72c.35.91.71,1.81,2,1.72m54.12,2.39c0,1.43-.85,1.57-1.56,1.73a33.6,33.6,0,0,1-6.84.85c-3,.07-6,0-9-.1a72.51,72.51,0,0,1-8.85-.92,8.27,8.27,0,0,0-3,.12c-1.95.42-3.89,0-5.81-.22-4.35-.42-8.68-1.08-13-1.9-2.56-.49-5.06-1.2-7.67-1.49a60,60,0,0,0-10.28-.58c-2,.14-4-.18-6-.17-1.06,0-1.38-1.19-2.07-1.92,4.93-.53,9.84-1.21,14.67.46.4.13.09-.3.38-.48s.52.55,1,.54c.14-.5.38-.69,1.07-.6a65.15,65.15,0,0,1,13.36,3.18A26.06,26.06,0,0,0,162.44,79c2.75.28,5.5.11,8.25.47a73.65,73.65,0,0,0,8.41.39c3.64.07,7.26.53,10.89.77a14.65,14.65,0,0,0,4.56-.53c1.7-.42,3.47.07,5.27-.69"/><path class="cls-1" d="M119.46,39.75c1.14-1.86,2.91-3,4.49-4.29,8.13-6.75,17.57-10.49,27.75-12.75A158.66,158.66,0,0,0,171.89,17c.35-.12.72-.45,1.16-.22a2.21,2.21,0,0,1-1.06,1,76.63,76.63,0,0,1-20.44,9c-3.63,1-7.43,1.27-11.08,2.26a61.29,61.29,0,0,0-17.94,8.63c-1,.69-2,1.39-3.07,2.09"/><path class="cls-1" d="M126,56.18a64.17,64.17,0,0,1,10.81-5.56A180.34,180.34,0,0,1,160.08,43c5-1.22,10-2.21,15-3.12a40.34,40.34,0,0,1,5.38-.53c2.81-.14,5.59-.41,8.38-.64,3.62-.3,7.12.74,10.69,1.4-2.35.36-4.7.7-7,1.09-5.86,1-11.82.66-17.69,1.43-3.7.49-7.41.86-11.11,1.46a104.56,104.56,0,0,0-21.56,5.82c-5,2-10.09,3.55-14.95,5.81-.39.19-.8.34-1.21.51"/><path class="cls-1" d="M114.73,79.47c1.39-1,2.59-1.07,3.5-.1.35-1.32,1.65-1.09,2.41-1.2a96.33,96.33,0,0,1,20.58-.34A65.62,65.62,0,0,1,151,79.56a51.92,51.92,0,0,0,9.2,1.34c3.43.16,6.81,1.07,10.26.78,3.06-.26,6,.45,9,.71s5.79.17,8.69.17c3.84,0,7.68,0,11.42-1.09.54-.17.95.14,1.23.7A6.16,6.16,0,0,1,197,83.36a78.28,78.28,0,0,0-8.93.26c-3.07.3-6.15-.2-9.22-.37-3.3-.19-6.59-.41-9.88-.72-3.62-.33-7.29.11-10.86-.35-5.27-.67-10.61-.79-15.81-2a5.5,5.5,0,0,0-1.07-.14c-8.33-.08-16.66-.44-25-.29-.51,0-1.1.21-1.54-.29"/><path class="cls-1" d="M210.19,95.11c-.91-.75-2.43-1-2.25-2.8-.65.12-1.4.65-2.12-.44,1.73-.08,2.87-1.08,4.29-1.84-.5-.53-.58-1.07,0-1.46-.19-.46-.65-.38-.92-.63.23-.74,1.75,0,1.43-1.39-.58-.09-1.1.53-1.91.23.65-1,1.62-.41,2.31-.7-.42-1.06.91-1.25,1-2.12-.71-.68-1.69-.11-2.77-.48,1.3-.54,2.09-1.59,3.38-1.31.22-.63-.53-.27-.41-.8.61-.24,1.64-1.05,1.55-1.32-.37-1.13.69-1.26,1-2h-.88c.14-.62.77-.42,1-.73,0-1-.74-.22-1.14-.48.23-.26.45-.51.77-.89a3,3,0,0,1-1.64-.27c.47-.66.47-.71.05-1.23,1-1,1-1,.72-1.83.62-.26,1.45,0,1.93-.72-.34-.49-1,0-1.49-.62,1.89-.12,2.43-2,4-2.48-.52-.71-.92,0-1.46-.4,1-.38,1.29-1.55,2.73-1.55-.87-.64-1.57.12-2.25-.38l3.3-.85c-1.06-.42-1.95.42-3-.13,1.08-.76,2.33-.49,3.33-1.22-.88-.31-1.63.49-2.46,0,.91-.55,2-.47,3.14-.94-.92-.32-1.66.29-2.42-.13,1-1,2.39-.66,3.44-1.27-.13-.5-.63-.07-.76-.38,1.85-.78,2.81-2.84,4.76-3.47-5.17,12.41-12.16,24-16.35,37"/><path class="cls-1" d="M216.28,63.23a3.67,3.67,0,0,0,1.23-2.48,5.65,5.65,0,0,0-1.23,2.48m-8.77,16.06a7.48,7.48,0,0,0-2.06,3.85c.72-1.28,1.75-2.38,2-3.9a5.65,5.65,0,0,0,1.51-3c-.74.89-1.56,1.74-1.46,3.06m-2.72,7.64c-.48-1.05.21-1.93.17-2.85-.53,0-.55.73-1.15.67-.43-.92.61-1.53.53-2.45-.77.07-.71,1-1.29,1.26-1.13-.51-.82-1.31-.35-2.1,2.22-3.69,4.62-7.27,6.63-11.08,2.17-4.12,4.23-8.32,6.41-12.45.18-.35.2-.92.87-.88.19.75-.61,1.26-.36,2.09l.86-1.16c.57.51,1.61.48,1,1.68,1.13-.09,1.46.35,1,1.33-1.77,3.36-3.64,6.67-5.28,10.09-2.29,4.8-5.32,9.18-7.41,14.08-.3.7-.52,1.51-1.54,1.77"/><path class="cls-1" d="M116.47,67.15c4.47-1.22,8.84-2.64,13.5-3,3.92-.32,7.81-.91,11.75-.71,4.44.21,8.89.24,13.31.56,2.41.17,4.78.88,7.19,1.18,5.46.66,10.61,2.76,16,3.55,2.54.38,5.14.3,7.71.51a34.72,34.72,0,0,0,6.76.07c.53-.06,1,0,1,.78a14.44,14.44,0,0,1-7.14.71,11.11,11.11,0,0,0-1.61-.16c-5.71.36-11.14-1-16.63-2.41-7.11-1.82-14.28-3.3-21.72-3.29-6,0-12,.61-18,.47-2.88-.07-5.65,1.09-8.51,1.48a9.92,9.92,0,0,1-3.6.29"/><path class="cls-1" d="M115.82,81c.22-.49.63-.4,1-.39,3.76.11,7.51-.28,11.27-.25,4.78.05,9.62-.08,14.32.64s9.41.84,14.06,1.76a37.44,37.44,0,0,0,6.1.34c6.11.18,12.19.64,18.29,1.06,4.41.3,8.83.71,13.27-.11,2.1-.39,4.32,0,6.43-.67.5-.17,1.36-.23,1.43.58s-.75.75-1.31.81a64.93,64.93,0,0,1-13.14.47c-5.24-.53-10.5.18-15.72-.48-5.62-.7-11.25-1.06-16.89-1.44-2.08-.13-4.17-.22-6.25-.17-3,.07-5.84-.79-8.79-.59-4.53.32-9-.41-13.55-.35-3.19,0-6.36-.78-9.57-.78a1.29,1.29,0,0,1-.92-.43"/><path class="cls-1" d="M118.51,83.85c2.64.25,4.92.37,7.18.69a93.27,93.27,0,0,0,12.15.76,40.88,40.88,0,0,1,5.53.5,26.67,26.67,0,0,0,3.9-.16c5,.06,10-.39,15,.42a16.13,16.13,0,0,0,6.2.15c1.72-.4,3.52.13,5.28.22,4.16.19,8.35.15,12.48.62a101.18,101.18,0,0,0,12.05.49,20.51,20.51,0,0,0,3.75-.51,2.13,2.13,0,0,1,2.17.43.72.72,0,0,1-.08,1c-.59.72-1.34.46-2.11.32a12.67,12.67,0,0,0-3.24-.22,15,15,0,0,1-4.73-.18c-2.5-.56-5,0-7.57-.22-5.19-.45-10.42-.41-15.59-1-4-.43-8-.19-11.92-.34-4.7-.17-9.4.08-14.1-.33-3.65-.32-7.35-.1-11-.12-3.26,0-6.54.24-9.77-.28a11.62,11.62,0,0,1-5.61-2.28"/><path class="cls-1" d="M159.9,35.47a2.62,2.62,0,0,0,2.45.53,3.6,3.6,0,0,0-2.45-.53m4.72.76c-1.42-.3-2.75,1-4.19.23-.12-.06-.46,0-.49.11-.46,1.28-1.72,1.14-2.65,1.5-5.49,2.14-11.06,4.07-16.49,6.33A105.64,105.64,0,0,0,127,51.52c-.32.19-.62.53-1.07.19s-.39-.78-.44-1.23.29-.54.54-.67c6.93-3.79,13.85-7.63,21.2-10.49,3.63-1.41,7.42-2.42,11-3.94,2.3-1,4.33-.15,6.4.85"/><path class="cls-1" d="M93.52,62.89c-.22.46-.39.89-.93.7a1.32,1.32,0,0,1-.92-1.52c-.83.91-1.56.19-1.87-.17a2.69,2.69,0,0,0-2.14-.8,6.56,6.56,0,0,1-1.87-.7,12.71,12.71,0,0,0-9.45-.65A98.57,98.57,0,0,0,62,65.6a124.27,124.27,0,0,1-24.71,9.57,15.72,15.72,0,0,1-3.88.53c1.93-.67,3.85-1.39,5.81-2a74.33,74.33,0,0,0,11.69-4.52c4.55-2.32,9.5-3.74,14-6.17a60.67,60.67,0,0,1,10.84-4.47,16.78,16.78,0,0,1,14.68,1.93c1.06.69,2,1.56,3.08,2.42"/><path class="cls-1" d="M206.6,94.38c-.13-1.22-2.21-2.67-3.73-2.55a19.74,19.74,0,0,1-4.71-.4l1.64-.35c-2.33.08-4.55-.82-6.86-.69,1.46.7,3.11.37,4.61.88a.4.4,0,0,1-.47.3c-2.26-.35-4.56-.22-6.81-.79-1.23-.32-2.63-.82-3.85-.3a4.74,4.74,0,0,1-3.14.2,20.6,20.6,0,0,0-4.87-.89,2,2,0,0,0-.38.08c.25.26.75.16.74.69-1.08.15-2.46.29-3.11-.41-.89-1-1.6-.63-2.49-.45a3,3,0,0,1-.95,0,78.43,78.43,0,0,0-8.94-.37c-6.51-.12-13,0-19.54-.45a52.18,52.18,0,0,0-5.34.46,20,20,0,0,1-7.94-.83c-2-.72-4.22-.41-6.31-1.43-1.43-.7-3.16-.93-4.63-1.76-.35-.19-.74-.48-1.14-.32a6.84,6.84,0,0,1-3.62,0,31.24,31.24,0,0,1-10.83-3.67c-4.54-2.6-8.09-6.3-11.48-10.24-1.47-1.72-3-3.41-5.65-3.36a48.63,48.63,0,0,0-7.81.77c-3.45.62-6.84,1.52-10.28,2.25-3.82.8-7.45,2.35-11.21,3.4-5.1,1.41-10.26,2.62-15.37,4-9.59,2.52-19,5.76-28.38,9-.33.11-.71.29-1-.11,0,0,0,0,0,0,1.09-.64,2.12-1,3.09-1.7a6.34,6.34,0,0,0,.78-.14C21.88,83.85,27,82,32.08,80.31c6.15-2,12.49-3.34,18.67-5.26,5.14-1.6,10.12-3.68,15.14-5.6,2.39-.92,4.73-2.09,7.28-2.42a3.34,3.34,0,0,0,2.5-1.79c-.67-.24-1,.35-1.47.37a23.22,23.22,0,0,0-7,1.88c-5.95,2.23-11.75,4.88-17.78,6.79-6.31,2-12.67,3.88-19,5.78-3.62,1.07-7.26,2.06-10.94,2.88a14.83,14.83,0,0,0-1.56.41l1.15-1.16c3.28-.55,6.33-1.73,9.47-2.52-2.58.06-5.11.57-7.67.63l.55-.62c.11-.13.21-.27.31-.4,2.24,0,4.41-.39,6.59-.5A44.07,44.07,0,0,0,34.46,78c3.81-.75,7.28-2.62,11.08-3.37A16.32,16.32,0,0,0,52,72.29a17.09,17.09,0,0,1,3.53-1.69,71.53,71.53,0,0,0,7.62-3.11,44.69,44.69,0,0,1,7.15-3.15c3.38-1.15,6.79-2.53,10.57-2.24.79.06,2,.68,2.87-.42.1.33.17.54.24.75a2.52,2.52,0,0,0,1.52-1.33,11.67,11.67,0,0,0-4.86-1.34c-2.64-.25-5.07.85-7.43,1.68a54.8,54.8,0,0,0-10.28,4.43,43.68,43.68,0,0,1-4,2c-3.26,1.51-6.51,3-9.89,4.27a85.22,85.22,0,0,1-10.59,3.6C33.22,76.93,28,78.15,22.58,78l.51-.83a21.64,21.64,0,0,0,8.05-1c-2.42,0-4.82-.06-7.22-.28.2-.28.4-.55.63-.82a22.65,22.65,0,0,0,6.1.08c3.6-.25,6.86-1.79,10.25-2.81a58.76,58.76,0,0,0,7.47-2.77c3.65-1.65,7.14-3.66,11-5,4.87-1.64,9.22-4.49,14.09-6.18,6.72-2.33,13-2.17,18.79,2.38,1,.8,2.17,1.48,3.27,2.2.6.41,1.07.29,1.37-.48-1.11-.84-2.27-1.64-3.33-2.55-4.06-3.46-8.61-5.34-14-4.4-1.47.26-3,0-4.4.7-2.67,1.42-5.5,2.47-8.29,3.62-4.54,1.88-9.09,3.72-13.5,5.92-2.78,1.39-5.8,2.18-8.58,3.6a33.62,33.62,0,0,1-9.41,3.59,39.41,39.41,0,0,1-9.75.51l.5-.76.14,0c3.24.57,6.37-.16,9.52-.75,5.06-.94,9.36-3.87,14.11-5.62,5.65-2.09,10.91-5.18,16.61-7.1,3.7-1.25,6.9-3.85,10.91-4.17,2-.16,3.87-.74,5.88-.59,4.45.32,8,2.55,11.27,5.38a18.69,18.69,0,0,0,4.33,2.95c-1.29-2-3.07-3.13-4.42-4.66-3.53-4-8-5.26-13.18-5.05a19.54,19.54,0,0,0-5.21,1.25c-4.07,1.27-8,3.08-12,4.31-3.3,1-6.1,3.1-9.25,4.44-2.66,1.14-5.34,2.23-7.89,3.61a38.44,38.44,0,0,1-7.71,3.45,37.38,37.38,0,0,1-12.28,1.39,9,9,0,0,1,.75-.92c3,0,6,.39,9-.67,3.2-1.14,6.63-1.61,9.47-3.71a1,1,0,0,1,.25-.07c-.5-.45-.94,0-1.36.17-2.11.78-4.16,1.75-6.3,2.39a39.21,39.21,0,0,1-7.86,1.21,15.25,15.25,0,0,0-2.77.3,2.34,2.34,0,0,1,.65-.39.65.65,0,0,0,.46-.59c1.41-.05,2.8-.32,4.21-.47a34.3,34.3,0,0,0,9-2.3c2.36-.92,4.45-2.39,6.75-3.33,3.2-1.29,6.1-3.13,9.2-4.58,4.35-2,8.57-4.43,13.2-5.74,4.87-1.38,9.66-3.29,14.92-2.41a15.05,15.05,0,0,1,8.65,4.09c2.34,2.35,4.1,5.15,6.17,7.71.44.55.82,1.23,1.73,1s.84-.85,1-1.47a39.41,39.41,0,0,1,6.73-13.57A37.1,37.1,0,0,0,114.59,43a20.24,20.24,0,0,0-4.43-3.48,6.61,6.61,0,0,0-2.53-2c-1.29-.62-2.65-1.7-4.15-1.57l-.08,0a4.55,4.55,0,0,0-.64-.27A39.31,39.31,0,0,0,97.1,34a45,45,0,0,0-15.49-.07,46.48,46.48,0,0,0-16.4,6.33c-2.25,1.33-4.45,2.93-7,3.52a7,7,0,0,0-4.35,2.8c-3.31,4.38-7.59,7.79-11.7,11.34A137.17,137.17,0,0,1,27.65,69.25l-.1.07,0,0h0a6.57,6.57,0,0,0-1.75,2.12,2,2,0,0,1-.16.24.48.48,0,0,0-.25.4c-.35.49-.72,1-1.1,1.41-.56.08-.79.44-.91,1.11a12.2,12.2,0,0,0-1,1.36.71.71,0,0,0-.27.41,25.33,25.33,0,0,1-3.18,4,1.2,1.2,0,0,0-.82.87l-.8.85c-1.13,1.21-1.76,2.22-3.32,3-.6.31-1.19.55-1.77.87a3,3,0,0,0-2.1,2.32,7.48,7.48,0,0,0,2.23-.09c3.14-.59,6.14-1.67,9.21-2.56C30,83.19,38.52,81,47,78.6s16.56-5.11,25-7.08c4.88-1.14,9.72-2.28,14.76-2.32a3.93,3.93,0,0,1,3.32,1.51c1.23,1.48,2.55,2.88,3.79,4.35,6,7.17,13.83,10.76,22.8,11.88A20.72,20.72,0,0,1,122,88.05a37.94,37.94,0,0,0,11.1,2.09c4.3.36,8.6,0,12.89.07,3.27,0,6.59-.34,9.87-.36a139.84,139.84,0,0,1,15.69,1c6.29.66,12.64.8,18.91,1.75a161.58,161.58,0,0,1,17.66,3.73c.62.17,1.32.78,2.12-.09-1.1-.94-2.09-1.95-3.68-1.83"/><path class="cls-1" d="M194.82,70c-.62-1.12-.43-1.69.08-2.27q7.62-8.62,14.42-18a16.48,16.48,0,0,1,1.19-1.32c.33.42.33.42.07,2.25.51.12.65-.59,1.27-.54a5.52,5.52,0,0,1-1.75,3.71,114.42,114.42,0,0,0-11.16,15.09A31.92,31.92,0,0,1,196.55,72a1.68,1.68,0,0,1-.27-2.59c2-2.64,4.26-5,6.28-7.61,1.82-2.34,3.5-4.79,5.24-7.2a1.64,1.64,0,0,0,.45-1.45C203.9,59,199.66,64.63,194.82,70"/><path class="cls-1" d="M46.39,66.32A6.08,6.08,0,0,1,49.49,64c5-2.23,9.82-5,14.79-7.29a54.85,54.85,0,0,1,18.54-5.44,14,14,0,0,1,12.05,4.36c1.93,2,3.32,4.48,5.26,6.47a1.3,1.3,0,0,1,.32,1c-1.89-1.9-3.78-3.81-5.68-5.7a17.09,17.09,0,0,0-10.8-5c-4.39-.45-8.06,1.22-11.81,2.72-3.18,1.28-6.49,2.11-9.64,3.47-2.13.91-4.11,2.07-6.17,3.09-3.28,1.64-6.75,2.85-10,4.63Z"/><path class="cls-1" d="M172.43,85.49a66.33,66.33,0,0,1-12.59-.34,44.17,44.17,0,0,0-10.72-.25,45.52,45.52,0,0,1-9.48-.3c-1.26-.14-2.54,0-3.8-.11a149.44,149.44,0,0,1-17.93-1.72c-.11,0-.19-.16-.26-.43,18.13,1.55,36.38.87,54.78,3.15"/><path class="cls-1" d="M167.15,32.76c1.51-.63,2.89.32,4.5.3a6.23,6.23,0,0,0-2.19-1c1.32-.32,2.51.28,4,.56-.61-.93-1.51-.78-2.11-1.23,1.61,0,3,1.06,4.66,1L172.54,31c1.67-.76,3,.53,4.48.43-.59-.67-1.45-.56-2.24-1.11,1.62-.46,2.78.86,4.26.58-.7-.64-1.56-.61-2.41-1.09,1.43-.34,2.56.56,3.81.48-.34-.88-1.28-.55-1.87-1,1.68-1,3.29-.6,5,.19-.22-.86-.92-.76-1.35-1.52,4.33.36,8.46.61,12.45,1.95-.24.37-.6.15-.9.19a5,5,0,0,1-.95,0c-3.84-.32-7.52.63-11.2,1.52-1.89.45-3.78.91-5.65,1.38-.85.21-1.82,1.25-2.89.47-2.16,1.49-3.9-1-5.92-.64"/><path class="cls-1" d="M173.14,54.17l3.32,2.55c.13.79-.32.54-.72.42-3.51-1.08-7.06-2.07-10.54-3.26a37.15,37.15,0,0,0-8.83-1.58c-3-.28-6.05-.19-9.08-.33-1.08,0-2.11.57-3.45.13a59.4,59.4,0,0,1,12.41-.63c1.53.05,3.07,0,4.6-.06a24.15,24.15,0,0,1,4.73.37c1,.14,2.33.07,2.64,1.82.12.74,1.38,1.14,2.53,1.36l-1.3-1.05c1.42.2,2.23,1.16,3.4,1.42-.28-.82-1-.93-1.6-1.26s-1.26-.68-2.17-1.16c1.76-.18,2.74,1.09,4.06,1.26"/><path class="cls-1" d="M160.3,77.7c-1.62.34-2.19-.81-3-1.4-.36.3.2.61-.14,1a52.77,52.77,0,0,0-9.79-2.63,36.68,36.68,0,0,0-4.66-.72,4.33,4.33,0,0,1-3.1-1.55c-.37.44.32.64.11,1-.78-.06-1.05-.73-1.74-1.42a37.91,37.91,0,0,1,6.92.58c3,.5,5.9,1.16,8.87,1.67,1.25.21,1.95,1.15,2.86,1.88.35-.47-.31-.65-.16-1,1.89-.14,2.66,1.36,3.86,2.64"/><path class="cls-1" d="M214.66,54.3c.41.63,0,1.11-.28,1.62-3.16,6.6-7,12.81-10.64,19.15a47.36,47.36,0,0,1-2.87,4.68c-.66-1-.65-1.14,0-2.33,3.07-5.19,6.42-10.21,9.26-15.54,1.24-2.34,2.55-4.63,3.86-6.93.14-.24.18-.64.62-.65"/><path class="cls-1" d="M211.91,52.5c-.75,2.34-12.57,19.54-14.37,21.15-1.06-.47-.56-1.14-.14-1.7,3.22-4.32,6-9,9.46-13.11,1.73-2.08,3.37-4.23,5-6.34"/><path class="cls-1" d="M199.71,77.79a1.56,1.56,0,0,1-.11-2.32c4.89-6.29,8.46-13.46,12.74-20.15A8.34,8.34,0,0,1,214,53.09c-.62,2.34-12.27,22.52-14.24,24.7"/><path class="cls-1" d="M201.78,81.68c-.79-.29-.87-.69-.45-1.34,4.35-6.71,7.91-13.9,12-20.74.72-1.19,1-2.65,2-3.74a2.29,2.29,0,0,1-.32,2c-4.09,7.77-8.14,15.56-12.72,23.05-.16.27-.37.5-.55.76"/><path class="cls-1" d="M86.52,66.69c-7.83.72-15.4,2.71-23,4.59a93.61,93.61,0,0,1,11.25-3.92c3.89-.91,7.73-1.86,11.76-.67"/><path class="cls-1" d="M176.1,85.7c9-.31,18,1.27,26.8-.77.49,1-.1,1.3-.67,1.44a29.19,29.19,0,0,1-9.95.43c-2.11-.24-4.25.06-6.36-.35-3.24-.63-6.55-.33-9.82-.75"/><path class="cls-1" d="M198.61,75.76a1.53,1.53,0,0,1-.12-2c4.17-5.83,8.33-11.68,12.23-17.7a.74.74,0,0,1,.45-.35c-4,6.76-7.72,13.74-12.56,20.06"/><path class="cls-1" d="M122.27,73.48c4.79-1.54,14.15-2,15.57-.85a1.73,1.73,0,0,1-1.75.77,59.5,59.5,0,0,0-10.16.51,2.27,2.27,0,0,1-1.59-.15c-.3-.17-.53-.39-.84.25s-.81,0-1.23-.53"/><path class="cls-1" d="M106.13,58.22c3.1-6.84,7-13.09,13.47-17.26a63.88,63.88,0,0,0-13.47,17.26"/><path class="cls-1" d="M120.72,40.14A57,57,0,0,1,140.2,30.07c-7,2.39-13,6.74-19.48,10.07"/><path class="cls-1" d="M113.1,77.1a17,17,0,0,1,3.37-.87c.75-.21,1,.55,1.43,1-3.94,1.43-4.15,1.42-4.8-.16"/><path class="cls-1" d="M128.05,56.29a50.27,50.27,0,0,1,8.51-3.15c-1.43,1.36-6.58,3.37-8.51,3.15"/><path class="cls-1" d="M116.05,75.07c-1.63,1.19-3.61,1.05-4.07-.24,1.34,0,2.72-1,4.07.24"/><path class="cls-1" d="M112.16,82a6.8,6.8,0,0,1-4.08-3c-.88-1.47-.51-3.31-1.58-4.91a1.5,1.5,0,0,1,1,1.37,12.56,12.56,0,0,0,1.21,3.62,3.92,3.92,0,0,0,2.26,2c.38.15.9.14,1.14.86"/><path class="cls-1" d="M116.18,45.92c.57,1,.31,2,.32,3.15-.52-.37-.48-.92-.85-1.31v2.8c-1.2-2.06-1-3.69.53-4.64"/><path class="cls-1" d="M74.75,64c-1.79,1.27-3.92,1.52-6.15,2.31,1.82-1.92,4-2,6.15-2.31"/><path class="cls-1" d="M163.09,34c1.9-.91,3.47.17,5.1.91-1.84.53-3.4-.6-5.1-.91"/><path class="cls-1" d="M111,73.3c1.49-.27,3-1.39,4.5-.15-1.51-.17-3,1.55-4.5.15"/><path class="cls-1" d="M126.46,76.6c-3,.37-3.2.29-3.87-1.36.93-.17,1,1.15,1.82,1.07.24-.44-.35-.72-.2-1.22,1.05-.09,1.41.84,2.25,1.51"/><path class="cls-1" d="M111.6,80.45a4.89,4.89,0,0,1-2.91-4.77c1,1.65,1.86,3,2.91,4.77"/><path class="cls-1" d="M119.45,75.65c.79.09,1.09.67,1.57,1,.34-.51-.53-.75-.15-1.29,1-.11,1.44.67,1.91,1.45-1.82.78-2.5.56-3.33-1.16"/><path class="cls-1" d="M101.87,65.24a4.21,4.21,0,0,1,2.06,1c-.28.72-.69,1.43-1.52,1.08s-.87-1.14-.54-2.09"/><path class="cls-1" d="M106.92,68.52c-1,.47-1.78.81-2.44-.06a.84.84,0,0,1,.33-1.27c1-.4,1.36.6,2.11,1.33"/><path class="cls-1" d="M100.07,65.56c-.23,1,0,2.06-1.36,2a.79.79,0,0,1-.81-.89c.26-1.06,1.24-.87,2.17-1.09"/><path class="cls-1" d="M79.51,65.5c.27-1,.27-1,3.8-.51a7.45,7.45,0,0,1-3.8.51"/><path class="cls-1" d="M123.25,59.22c.86.19,1.08,1,1.79,1,.4-.26-.12-.64.08-1,.73.42,1.54.21,2.36.48-2.11,1.32-2.78,1.27-4.23-.4"/><path class="cls-1" d="M96.63,67.75c0,.51-.2.91-.6.84a1.45,1.45,0,0,1-1.25-1.26c-.08-.54.4-.58.83-.64.92-.11.71.74,1,1.06"/><path class="cls-1" d="M166.59,33.49a9.61,9.61,0,0,1,4.33.79c-1.86,1-3-.49-4.33-.79"/><path class="cls-1" d="M225.89,57.17c-1.09,1.51-1.75,1.61-3.79.83,1.14-.62,2.39-.32,3.79-.83"/><path class="cls-1" d="M93.15,67.27a1.07,1.07,0,0,1,.77,1.16c0,.45-.09.94-.58.91a1.23,1.23,0,0,1-1-1.14c-.07-.5.41-.75.83-.93"/><path class="cls-1" d="M104.83,70.65a3.55,3.55,0,0,1,2,2.46c-1.31-.43-2.1-1-2-2.46"/><path class="cls-1" d="M107.67,67.72c1.55-.08,3.09.26,4.66.17-1.58.93-3.12.18-4.66-.17"/><path class="cls-1" d="M108.61,71.67c-1.54-.06-1.89-.74-1.23-2.13a3.06,3.06,0,0,1,1.23,2.13"/><path class="cls-1" d="M194,89.72a15,15,0,0,1,5.69.59L194,89.72"/><path class="cls-1" d="M161.91,34.71a10.38,10.38,0,0,1,4.21.84l-.09.36-4.12-1.2"/><path class="cls-1" d="M114.2,48.36a5.86,5.86,0,0,1,.43,3.76,6.11,6.11,0,0,1-.43-3.76"/><path class="cls-1" d="M112.5,78.68a.9.9,0,0,1,.87.57c.22.37.64.71.36,1.21a.47.47,0,0,1-.45.15,1.17,1.17,0,0,1-.84-1.1,8.31,8.31,0,0,1,.06-.83"/><path class="cls-1" d="M114.69,83.19c-.8-.51-1-1.06-.44-1.63.37-.4.76-.08,1,.28.55.84-.4.86-.55,1.35"/><path class="cls-1" d="M105.06,65.43a7.73,7.73,0,0,1-.82-.34c-.38-.21-.75-.45-1.27-.77.73-.23,1.39.07,1.88-.44.37.48.18.92.21,1.55"/><path class="cls-1" d="M219.68,59.47a16.18,16.18,0,0,1,3.67-.28,4,4,0,0,1-3.67.28"/><path class="cls-1" d="M78.23,63.24a1.89,1.89,0,0,1-2.19.92,1.54,1.54,0,0,1,2.19-.92"/><path class="cls-1" d="M109.29,72.79c.59.58,1.15,1.08.54,2-.82-.54-1.26-1.07-.54-2"/><path class="cls-1" d="M111.06,75.75c.57.67,1.28,1.08.8,2.16-.67-.6-1.34-1-.8-2.16"/><path class="cls-1" d="M132.13,58.51a2.43,2.43,0,0,1-2.25-.2c.07-.31.9-.14,0-1.09l2.22,1.29"/><path class="cls-1" d="M159.24,87.84h-4.05v-.16h4.06a.92.92,0,0,0,0,.16"/><path class="cls-1" d="M186,89.66a8.15,8.15,0,0,1,4.27.3c-1.43-.06-2.85-.28-4.27-.3"/><path class="cls-1" d="M85.08,62.74c.41-.41.35-1.33,1.2-1.17.11,0,.29.31.26.4a1.16,1.16,0,0,1-1.46.77"/><path class="cls-1" d="M113.36,52.79V49.5c.12,1.09.52,2.17,0,3.29"/><path class="cls-1" d="M117.54,84.09c-.69.57-1.1.19-1.47-.2a.35.35,0,0,1,.12-.57c.69-.26,1,.31,1.35.77"/><path class="cls-1" d="M109.68,54.36V58c-.13-1.15-.71-2.3,0-3.64"/><path class="cls-1" d="M118,76.19a1.24,1.24,0,0,1,1.57.85c-.73.26-.73.26-1.57-.85"/><path class="cls-1" d="M91.18,63.67c-.31.88-.72,1.26-1.56,1,.37-.53.68-1,1.56-1"/><path class="cls-1" d="M216.28,63.23a5.65,5.65,0,0,1,1.23-2.48,3.67,3.67,0,0,1-1.23,2.48"/><path class="cls-2" d="M159.9,35.47a3.6,3.6,0,0,1,2.45.53,2.62,2.62,0,0,1-2.45-.53"/><path class="cls-2" d="M102.06,55.2c-3-2.24-5.43-5.13-8.33-7.48,3.29,1.89,5.74,4.78,8.33,7.48"/><path class="cls-2" d="M95.05,47.15a28.3,28.3,0,0,1,6.88,5.91c-2.5-1.71-4.56-4-6.88-5.91"/><path class="cls-2" d="M100.81,56.09,95,49.72l-.34.33c2.41,1.61,4.17,4,6.12,6"/><path class="cls-2" d="M103.86,51.46a32.06,32.06,0,0,0-7.09-6c2,.21,6.88,4.25,7.09,6"/><path class="cls-2" d="M103.79,49.47l-5.32-4.83c2.42.83,3.89,2.8,5.58,4.51-.09.11-.18.21-.26.32"/><path class="cls-2" d="M98.58,48.06a16.9,16.9,0,0,1,5.12,4.55c-2.06-1.12-3.32-3.13-5.12-4.55"/><path class="cls-2" d="M108.08,40.89c-1.18-1.59-3-2.33-4.5-3.52,2.09.38,3.51,1.89,5.07,3.14.46.38.22.62-.29.64l-.28-.26"/><path class="cls-2" d="M101.07,43.58c1.81.85,3.54,1.8,4.42,3.79l-4.42-3.79"/><path class="cls-2" d="M104.72,48.2c-1.56-1.4-3.08-2.84-4.68-4.2a9.34,9.34,0,0,1,4.68,4.2"/><path class="cls-2" d="M102.05,42.26a10,10,0,0,1,3.9,4.11q-2.08-1.9-4.19-3.79l.29-.32"/><path class="cls-2" d="M107.85,44.76,103.27,41c2,.62,3.38,2.12,4.82,3.5l-.24.31"/><path class="cls-2" d="M95.14,52.77A12.56,12.56,0,0,1,99,55.83c-1.63-.56-2.61-2-3.82-3.06"/><path class="cls-2" d="M105.39,40.35c1,1.14,2.58,1.55,3.18,3.07a21.72,21.72,0,0,1-3.74-3l.6-.07Z"/><path class="cls-2" d="M105.43,40.39c-.89-1-2.27-1.23-3.47-2.26a8,8,0,0,1,4.17,2c-.22.39-.54,0-.75.21l.05,0"/><path class="cls-2" d="M106.47,45a10.24,10.24,0,0,1-3.18-2.56A6.55,6.55,0,0,1,106.47,45"/><path class="cls-2" d="M108.08,40.89l.28.26.49,1.06-.15.17-1.81-1.51c.55-.57.81.17,1.19,0"/><path class="cls-2" d="M91.18,63.67c-.88-.06-1.19.45-1.56,1,.84.27,1.25-.11,1.56-1M118,76.19c.84,1.11.84,1.11,1.57.85a1.24,1.24,0,0,0-1.57-.85m-8.27-21.83c-.71,1.34-.13,2.49,0,3.64Zm7.86,29.73c-.38-.46-.66-1-1.35-.77a.35.35,0,0,0-.12.57c.37.39.78.77,1.47.2m-4.18-31.31c.52-1.11.12-2.19,0-3.28Zm-28.28,10A1.16,1.16,0,0,0,86.54,62c0-.09-.15-.37-.26-.4-.85-.16-.79.75-1.2,1.17M186,89.66c1.42,0,2.84.23,4.27.3a8.15,8.15,0,0,0-4.27-.3m-26.75-1.82a.92.92,0,0,1,0-.16h-4.06a.81.81,0,0,1,0,.16ZM132.13,58.51l-2.22-1.29c.87,1,0,.78,0,1.09a2.43,2.43,0,0,0,2.25.2M111.06,75.75c-.54,1.18.13,1.56.8,2.16.48-1.09-.23-1.49-.8-2.16m-1.77-3c-.72,1-.28,1.49.54,2,.61-.95,0-1.45-.54-2M78.23,63.24a1.54,1.54,0,0,0-2.19.92,1.89,1.89,0,0,0,2.19-.92m141.45-3.77a4,4,0,0,0,3.67-.28,16.18,16.18,0,0,0-3.67.28m-114.62,6c0-.63.16-1.07-.21-1.55-.49.51-1.15.21-1.88.44.52.32.89.56,1.27.77a7.73,7.73,0,0,0,.82.34m9.63,17.76c.15-.49,1.1-.51.55-1.36-.23-.35-.62-.67-1-.28-.54.58-.36,1.13.44,1.64m-2.19-4.51a8.31,8.31,0,0,0-.06.83,1.17,1.17,0,0,0,.84,1.1.47.47,0,0,0,.45-.15c.28-.5-.14-.84-.36-1.21a.9.9,0,0,0-.87-.57m1.7-30.32a6.11,6.11,0,0,0,.43,3.76,5.86,5.86,0,0,0-.43-3.76m47.71-13.65,4.12,1.2.09-.36a10.38,10.38,0,0,0-4.21-.84m32.1,55,5.69.59a15,15,0,0,0-5.69-.59m-85.4-18a3.09,3.09,0,0,0-1.23-2.13c-.66,1.39-.31,2.07,1.23,2.13m-.94-4c1.54.35,3.07,1.1,4.66.17-1.57.09-3.11-.25-4.66-.17m-2.84,2.93c-.1,1.44.69,2,2,2.46a3.55,3.55,0,0,0-2-2.46M93.15,67.27c-.42.18-.9.43-.83.93a1.23,1.23,0,0,0,1,1.14c.49,0,.57-.46.58-.91a1.07,1.07,0,0,0-.77-1.16m132.74-10.1c-1.4.51-2.65.21-3.8.83,2,.78,2.71.68,3.8-.83m-59.3-23.68c1.36.3,2.47,1.76,4.33.79a9.61,9.61,0,0,0-4.33-.79m-70,34.26c-.31-.32-.1-1.17-1-1.06-.43.06-.91.1-.83.63A1.45,1.45,0,0,0,96,68.59c.4.07.58-.33.6-.84m26.62-8.53c1.44,1.67,2.12,1.72,4.23.4-.82-.27-1.63-.06-2.36-.48-.2.41.32.78-.08,1-.71.07-.93-.78-1.79-1M79.51,65.5a7.45,7.45,0,0,0,3.8-.51c-3.53-.53-3.53-.53-3.8.51m20.56.06c-.93.22-1.91,0-2.17,1.09a.79.79,0,0,0,.81.89c1.32.08,1.13-1,1.36-2m6.85,3c-.75-.73-1.07-1.74-2.11-1.33a.84.84,0,0,0-.33,1.27c.66.86,1.44.53,2.44.06m-5-3.28c-.33,1-.27,1.76.54,2.09s1.24-.36,1.52-1.08a4.21,4.21,0,0,0-2.06-1m17.58,10.41c.83,1.72,1.51,1.94,3.33,1.16-.47-.78-.9-1.56-1.91-1.45-.38.54.49.78.15,1.29-.48-.33-.78-.91-1.57-1m-7.85,4.8c-1-1.72-1.91-3.12-2.91-4.77a4.89,4.89,0,0,0,2.91,4.77m14.86-3.85c-.84-.67-1.2-1.6-2.25-1.51-.15.5.44.78.2,1.22-.82.07-.89-1.24-1.82-1.07.67,1.65.89,1.73,3.87,1.36M111,73.3c1.55,1.4,3-.32,4.5-.15-1.52-1.24-3-.12-4.5.15M163.09,34c1.7.31,3.26,1.44,5.1.91-1.63-.74-3.2-1.82-5.1-.91M74.75,64c-2.12.33-4.33.39-6.15,2.31,2.23-.79,4.36-1,6.15-2.31m41.43-18c-1.5.95-1.73,2.58-.53,4.64v-2.8c.37.39.33.94.85,1.31,0-1.13.25-2.17-.32-3.15m-4,36.12c-.24-.72-.76-.71-1.14-.86a3.92,3.92,0,0,1-2.26-2,12.56,12.56,0,0,1-1.21-3.62,1.5,1.5,0,0,0-1-1.37c1.07,1.6.7,3.44,1.58,4.91a6.8,6.8,0,0,0,4.08,3m3.89-7c-1.35-1.22-2.73-.27-4.07-.24.46,1.29,2.44,1.43,4.07.24m12-18.78c1.93.22,7.08-1.79,8.51-3.15a49.12,49.12,0,0,0-8.51,3.15m-15,20.81c.65,1.58.86,1.59,4.8.16-.41-.49-.68-1.24-1.43-1a16.37,16.37,0,0,0-3.37.87m-82-.89a70.34,70.34,0,0,1-8.09-.36c-.77-.08-1.07.29-1,1.2a20,20,0,0,0,9.12-.84m109.6-19.52c-1.48-1-2.51-2-4.18-1.54.71.65,1.76.3,2.47,1.2-1.94.28-3.73-1.4-5.56,0,2.22,2.54,4.6.32,7.27.31M17.94,82.36c3.71-.44,7.09-1.81,10.59-2.69-3,.07-5.91.74-8.9.62-1.37-.05-1.66.73-1.69,2.07M120.72,40.14c6.52-3.33,12.51-7.69,19.48-10.07a57,57,0,0,0-19.48,10.07M106.13,58.22A63.88,63.88,0,0,1,119.6,41c-6.46,4.17-10.37,10.42-13.47,17.26m16.14,15.26c.42.49.94,1.12,1.23.53s.54-.42.84-.25a2.27,2.27,0,0,0,1.59.15,59.5,59.5,0,0,1,10.16-.51,1.73,1.73,0,0,0,1.75-.77c-1.42-1.19-10.78-.69-15.57.85m76.34,2.28c4.84-6.32,8.52-13.3,12.56-20.06a.74.74,0,0,0-.45.35c-3.9,6-8.06,11.86-12.23,17.69a1.54,1.54,0,0,0,.12,2M176.1,85.7c3.27.42,6.58.11,9.82.75,2.11.41,4.25.11,6.36.35a28.94,28.94,0,0,0,9.95-.44c.57-.13,1.16-.38.67-1.43-8.84,2-17.84.46-26.8.77m-89.58-19c-4-1.19-7.87-.24-11.76.67a95.33,95.33,0,0,0-11.25,3.91c7.61-1.87,15.18-3.86,23-4.58m115.26,15c.18-.26.39-.49.55-.76,4.58-7.49,8.63-15.28,12.72-23.05a2.3,2.3,0,0,0,.32-2c-1,1.1-1.27,2.56-2,3.75-4.14,6.84-7.7,14-12,20.74-.42.65-.34,1,.45,1.34m-2.07-3.89c2-2.18,13.62-22.36,14.24-24.7a8.34,8.34,0,0,0-1.61,2.23c-4.28,6.69-7.85,13.86-12.74,20.15a1.56,1.56,0,0,0,.11,2.32m12.2-25.29c-1.68,2.11-3.32,4.26-5,6.34C203.41,63,200.62,67.63,197.4,72c-.42.56-.92,1.23.14,1.69,1.8-1.6,13.62-18.8,14.37-21.14m2.75,1.8c-.44,0-.48.41-.62.65-1.31,2.3-2.62,4.59-3.86,6.93-2.84,5.33-6.19,10.35-9.26,15.54-.7,1.19-.71,1.3,0,2.32a45.14,45.14,0,0,0,2.87-4.68c3.63-6.33,7.48-12.54,10.64-19.14.24-.51.69-1,.28-1.62M160.3,77.7c-1.2-1.29-2-2.78-3.86-2.64-.15.39.51.57.16,1-.91-.73-1.61-1.67-2.86-1.88-3-.51-5.91-1.17-8.87-1.67A37.91,37.91,0,0,0,138,72c.69.69,1,1.36,1.74,1.42.21-.38-.48-.58-.11-1a4.33,4.33,0,0,0,3.1,1.55,35,35,0,0,1,4.66.72,52.77,52.77,0,0,1,9.79,2.63c.34-.36-.22-.67.14-1,.84.59,1.41,1.73,3,1.4m6.85-44.94c2-.34,3.76,2.13,5.92.64,1.07.78,2-.26,2.89-.47,1.87-.47,3.76-.93,5.65-1.38,3.68-.89,7.36-1.84,11.2-1.52a5,5,0,0,0,.95,0c.3,0,.66.18.9-.19-4-1.35-8.12-1.59-12.45-1.95.43.75,1.13.66,1.35,1.52-1.7-.79-3.31-1.19-5-.19.59.48,1.53.15,1.87,1-1.25.08-2.38-.82-3.81-.48.85.48,1.71.45,2.41,1.09-1.49.27-2.64-1-4.26-.58.79.55,1.65.44,2.24,1.11-1.52.1-2.81-1.19-4.48-.43L176,32.34c-1.65.1-3-.92-4.66-1,.6.45,1.5.3,2.11,1.23-1.46-.28-2.65-.88-4-.56a6.05,6.05,0,0,1,2.19,1c-1.62,0-3-.93-4.5-.3m5.28,52.73c-18.4-2.28-36.65-1.6-54.78-3.15.07.27.15.42.26.43a149.44,149.44,0,0,0,17.93,1.72c1.26.06,2.54,0,3.8.11a45.52,45.52,0,0,0,9.48.3,44.17,44.17,0,0,1,10.72.25,66.33,66.33,0,0,0,12.59.34m34.5-36,.31.29c-.61.85-1.16,1.74-1.83,2.52Q199.62,59,193.8,65.78c-.6.7-.65,1.26.27,1.73a2.88,2.88,0,0,0,.54-.42c3.26-4,6.55-7.87,9.76-11.86,1.65-2.06,3.18-4.24,4.72-6.39.33-.46.89-1,.34-1.64-.65-.15-.74.71-1.39.61.14-.83,1.15-1.46.65-2.43-.45,0-.63.27-.82.5-1.77,2.1-3.52,4.21-5.27,6.32-3.23,3.88-5.8,8.34-9.79,11.54a4.06,4.06,0,0,0-.52.62,1.94,1.94,0,0,0,1.15.68c4.74-4.93,8.82-10.54,13.49-15.6M194.81,70c4.85-5.36,9.09-11,13.44-16.81a1.64,1.64,0,0,1-.45,1.45c-1.74,2.41-3.42,4.86-5.24,7.2-2,2.6-4.31,5-6.28,7.61a1.68,1.68,0,0,0,.27,2.59,31.92,31.92,0,0,0,2.39-3.08A114.42,114.42,0,0,1,210.1,53.85a5.52,5.52,0,0,0,1.75-3.71c-.62,0-.76.65-1.28.54.27-1.83.27-1.83-.06-2.25a14.77,14.77,0,0,0-1.19,1.32q-6.8,9.33-14.42,18c-.51.58-.7,1.14-.09,2.27M15.21,85.33a5.55,5.55,0,0,0,1.43-.17C21.88,83.85,27,82,32.08,80.31c6.15-2,12.49-3.34,18.67-5.26,5.14-1.6,10.12-3.68,15.14-5.6,2.39-.92,4.73-2.09,7.28-2.42a3.36,3.36,0,0,0,2.5-1.79c-.67-.24-1,.34-1.47.37a23.22,23.22,0,0,0-7,1.88c-5.95,2.22-11.75,4.88-17.78,6.79-6.31,2-12.67,3.88-19,5.77-3.62,1.08-7.26,2.07-10.94,2.89-1.64.37-3.15.69-4.26,2.39M93.52,62.88c-1.08-.85-2-1.72-3.08-2.41a16.78,16.78,0,0,0-14.68-1.93A61.07,61.07,0,0,0,64.91,63c-4.47,2.43-9.42,3.85-14,6.17a74.06,74.06,0,0,1-11.7,4.52c-2,.61-3.87,1.33-5.8,2a15.72,15.72,0,0,0,3.88-.53A123.37,123.37,0,0,0,62,65.59a100.25,100.25,0,0,1,14.32-5.84,12.71,12.71,0,0,1,9.45.65,6.56,6.56,0,0,0,1.87.7,2.69,2.69,0,0,1,2.14.8c.31.36,1,1.08,1.87.17a1.3,1.3,0,0,0,.92,1.51c.54.19.71-.23.93-.7m71.1-26.65c-2.07-1-4.1-1.81-6.4-.85-3.6,1.52-7.39,2.53-11,3.94C139.86,42.18,132.93,46,126,49.81c-.25.13-.6.2-.54.67s0,.89.44,1.23.75,0,1.07-.19A105.64,105.64,0,0,1,140.8,44.4c5.43-2.26,11-4.19,16.49-6.33.93-.36,2.19-.22,2.65-1.5,0-.09.37-.17.49-.11,1.44.75,2.78-.53,4.19-.23M98.9,62.93c-1.29-2-3.07-3.12-4.42-4.65-3.53-4-8-5.26-13.18-5.05a19.92,19.92,0,0,0-5.21,1.24c-4.07,1.28-8,3.09-12,4.32-3.3,1-6.1,3.1-9.25,4.44-2.66,1.14-5.34,2.23-7.89,3.61a38.44,38.44,0,0,1-7.71,3.45,37.52,37.52,0,0,1-12.84,1.36c-.54,0-.93-.07-1,.5s.47.61.92.69c3.24.57,6.37-.16,9.52-.75,5.06-.94,9.36-3.87,14.11-5.63,5.65-2.09,10.91-5.17,16.61-7.09,3.7-1.25,6.9-3.85,10.91-4.17,2-.16,3.87-.74,5.88-.59,4.45.31,8,2.55,11.27,5.38a18.36,18.36,0,0,0,4.33,2.94m19.61,20.92a11.5,11.5,0,0,0,5.61,2.27c3.23.53,6.51.27,9.77.29,3.67,0,7.37-.2,11,.12,4.7.41,9.4.16,14.1.33,4,.15,7.93-.09,11.92.34,5.17.55,10.4.51,15.58,1,2.54.21,5.08-.34,7.58.22a15,15,0,0,0,4.73.18,12.67,12.67,0,0,1,3.24.22c.77.14,1.52.4,2.11-.32a.72.72,0,0,0,.08-1,2.13,2.13,0,0,0-2.17-.43,21.41,21.41,0,0,1-3.75.51,101.18,101.18,0,0,1-12.05-.49c-4.13-.47-8.32-.43-12.48-.62-1.76-.09-3.56-.62-5.28-.22a16.13,16.13,0,0,1-6.2-.15c-5-.81-10-.36-15-.42a26.67,26.67,0,0,1-3.9.16,41,41,0,0,0-5.53-.5,93.27,93.27,0,0,1-12.15-.76c-2.26-.32-4.54-.44-7.18-.69M85.46,61.1a11.67,11.67,0,0,0-4.86-1.34c-2.64-.25-5.07.85-7.43,1.68a54.8,54.8,0,0,0-10.28,4.43,43.68,43.68,0,0,1-4,2c-3.26,1.51-6.51,3-9.89,4.27a83.55,83.55,0,0,1-10.59,3.59C33,77,27.44,78.27,21.76,78c-.85,0-1.17.42-1.22,1.25,2.66.16,5.21-.35,7.77-.47A44.07,44.07,0,0,0,34.46,78c3.81-.75,7.28-2.63,11.08-3.37A16.32,16.32,0,0,0,52,72.29a16.6,16.6,0,0,1,3.53-1.69,71.53,71.53,0,0,0,7.62-3.11,44.69,44.69,0,0,1,7.15-3.15c3.38-1.15,6.79-2.53,10.57-2.24.79.06,2,.68,2.87-.42.1.33.17.53.24.75a2.52,2.52,0,0,0,1.52-1.33M115.82,81a1.29,1.29,0,0,0,.91.43c3.22,0,6.39.82,9.58.78,4.53-.06,9,.67,13.55.35,2.95-.2,5.83.66,8.79.59,2.08,0,4.17,0,6.25.17,5.63.38,11.27.74,16.88,1.44,5.23.66,10.49,0,15.73.48a64.93,64.93,0,0,0,13.14-.47c.56-.06,1.38,0,1.31-.81s-.93-.75-1.43-.58c-2.11.7-4.33.28-6.43.67-4.44.82-8.86.41-13.27.11-6.1-.42-12.19-.88-18.29-1.06a37.44,37.44,0,0,1-6.1-.34c-4.65-.92-9.38-1-14.06-1.76s-9.54-.59-14.32-.64c-3.76,0-7.51.36-11.27.25-.34,0-.75-.1-1,.39m-19-18.41c-1.11-.84-2.27-1.64-3.33-2.55-4.06-3.46-8.61-5.34-14-4.4-1.47.25-3,0-4.4.7-2.67,1.42-5.5,2.47-8.29,3.62-4.54,1.88-9.09,3.72-13.5,5.92-2.78,1.39-5.8,2.18-8.58,3.6a33.62,33.62,0,0,1-9.41,3.59,39.31,39.31,0,0,1-10.66.44c-.92-.08-1.24.3-1.38,1.15a5.22,5.22,0,0,0,.83.39,21,21,0,0,0,6.48.15c3.6-.26,6.86-1.79,10.25-2.81a58.76,58.76,0,0,0,7.47-2.77c3.65-1.66,7.14-3.66,11-5,4.87-1.64,9.22-4.49,14.09-6.18,6.72-2.33,13-2.17,18.79,2.38,1,.8,2.17,1.48,3.27,2.2.6.4,1.07.29,1.37-.48m19.62,4.57a10,10,0,0,0,3.61-.29c2.85-.39,5.62-1.55,8.5-1.49,6,.15,12-.46,18-.46,7.44,0,14.61,1.47,21.72,3.29,5.49,1.4,10.92,2.77,16.63,2.41a11.11,11.11,0,0,1,1.61.16,14.44,14.44,0,0,0,7.14-.71c0-.83-.48-.84-1-.78a34.61,34.61,0,0,1-6.75-.07c-2.57-.21-5.18-.13-7.72-.51-5.42-.79-10.57-2.89-16-3.55-2.41-.3-4.78-1-7.19-1.18-4.42-.32-8.87-.35-13.31-.56-3.94-.2-7.83.39-11.75.71-4.66.39-9,1.81-13.5,3m88.32,19.78c1-.26,1.24-1.07,1.54-1.77,2.09-4.9,5.12-9.28,7.41-14.08,1.64-3.42,3.51-6.73,5.28-10.09.51-1,.18-1.42-1-1.33.65-1.2-.39-1.17-1-1.68l-.86,1.16c-.25-.83.55-1.34.36-2.09-.67,0-.69.53-.87.88-2.18,4.13-4.24,8.33-6.41,12.45-2,3.81-4.41,7.39-6.63,11.08-.47.79-.78,1.59.35,2.1.58-.27.52-1.19,1.29-1.26.08.92-1,1.53-.53,2.45.6.06.62-.71,1.15-.67,0,.92-.65,1.8-.17,2.85m5.4,8.18c4.19-13,11.18-24.54,16.35-36.95-1.95.63-2.91,2.69-4.76,3.47.13.31.63-.12.76.38-1,.6-2.48.26-3.44,1.27.76.42,1.5-.19,2.42.13-1.14.47-2.23.39-3.14.94.83.46,1.58-.34,2.46,0-1,.73-2.25.45-3.33,1.22,1,.55,1.93-.29,3,.13l-3.3.85c.68.5,1.38-.26,2.25.38-1.44,0-1.74,1.17-2.73,1.55.54.37.94-.31,1.46.4-1.6.48-2.14,2.36-4,2.48.52.62,1.15.13,1.49.61-.48.75-1.31.47-1.93.73.27.83.27.83-.72,1.83.42.52.42.57-.05,1.23a2.9,2.9,0,0,0,1.64.26l-.77.9c.4.26,1.13-.56,1.14.48-.26.31-.88.11-1,.73h.88c-.33.69-1.39.82-1,2,.1.27-.93,1.08-1.54,1.32-.12.52.63.17.41.8-1.29-.28-2.08.77-3.38,1.31,1.08.37,2.06-.2,2.77.48-.08.87-1.41,1.06-1,2.12-.69.29-1.66-.32-2.31.69.81.31,1.32-.31,1.91-.22.32,1.36-1.2.65-1.43,1.38.27.26.73.18.92.64-.62.39-.53.93,0,1.46-1.42.76-2.56,1.76-4.29,1.84.72,1.09,1.47.56,2.12.44-.18,1.8,1.34,2,2.25,2.8M114.73,79.47c.44.5,1,.3,1.54.29,8.33-.15,16.66.21,25,.29a5.5,5.5,0,0,1,1.07.14c5.2,1.2,10.54,1.32,15.81,2,3.57.46,7.24,0,10.86.35,3.29.31,6.58.53,9.88.72,3.07.17,6.15.67,9.22.37a78.28,78.28,0,0,1,8.93-.26,6.16,6.16,0,0,0,3.79-1.19c-.28-.56-.69-.87-1.23-.7-3.74,1.12-7.58,1.1-11.42,1.09-2.9,0-5.81.08-8.69-.17s-5.95-1-9-.71c-3.45.29-6.83-.62-10.26-.78a51.92,51.92,0,0,1-9.2-1.34,65.62,65.62,0,0,0-9.79-1.73,96.33,96.33,0,0,0-20.58.34c-.76.11-2.06-.12-2.41,1.2-.91-1-2.11-.94-3.5.1M126,56.18c.41-.17.82-.32,1.21-.51,4.86-2.26,10-3.86,14.95-5.81A104.56,104.56,0,0,1,163.73,44c3.7-.6,7.41-1,11.11-1.46,5.87-.78,11.83-.44,17.69-1.43,2.34-.39,4.69-.73,7-1.09-3.57-.66-7.07-1.7-10.69-1.4-2.79.23-5.57.5-8.38.64a40.34,40.34,0,0,0-5.38.53c-5,.91-10.07,1.9-15,3.12a180.34,180.34,0,0,0-23.26,7.67A64.17,64.17,0,0,0,126,56.18m-6.55-16.43c1-.7,2-1.4,3.07-2.09A61.17,61.17,0,0,1,140.47,29c3.65-1,7.45-1.26,11.08-2.26a76.63,76.63,0,0,0,20.44-9,2.21,2.21,0,0,0,1.06-1c-.44-.23-.81.09-1.16.22a158.66,158.66,0,0,1-20.19,5.71c-10.18,2.26-19.62,6-27.75,12.74-1.58,1.31-3.35,2.44-4.49,4.3m80.36,39.61c-1.8.75-3.57.27-5.27.69a14.65,14.65,0,0,1-4.56.53c-3.63-.25-7.25-.7-10.89-.77a76,76,0,0,1-8.41-.39c-2.75-.36-5.5-.19-8.25-.47a25.57,25.57,0,0,1-6.06-1.1A65.78,65.78,0,0,0,143,74.68c-.69-.09-.93.1-1.07.6-.52,0-.61-.66-1-.54s0,.61-.38.48c-4.83-1.67-9.74-1-14.67-.46.69.73,1,1.92,2.07,1.92,2,0,4,.31,6,.17a60,60,0,0,1,10.28.58c2.61.29,5.11,1,7.67,1.49,4.29.82,8.62,1.48,13,1.9,1.93.18,3.87.64,5.82.22a8.27,8.27,0,0,1,3-.12,72.51,72.51,0,0,0,8.85.92c3,0,6,.17,9,.1a34.32,34.32,0,0,0,6.84-.85c.71-.16,1.57-.3,1.56-1.73m-189.73,9a7.48,7.48,0,0,0,2.23-.09c3.14-.59,6.14-1.67,9.21-2.57C30,83.19,38.52,81,47,78.6s16.56-5.11,25-7.08c4.88-1.14,9.72-2.28,14.76-2.32a3.93,3.93,0,0,1,3.32,1.51c1.23,1.48,2.55,2.88,3.79,4.35,6,7.17,13.83,10.76,22.8,11.88A20.72,20.72,0,0,1,122,88.05a37.94,37.94,0,0,0,11.1,2.09c4.3.36,8.6,0,12.89.07,3.27,0,6.59-.34,9.87-.36a139.84,139.84,0,0,1,15.69,1c6.29.66,12.64.8,18.91,1.75a161.58,161.58,0,0,1,17.66,3.73c.62.17,1.32.78,2.12-.1-1.1-.93-2.09-1.94-3.68-1.82-.13-1.22-2.21-2.67-3.73-2.55a19.7,19.7,0,0,1-4.71-.4l1.64-.35c-2.33.07-4.55-.82-6.86-.69,1.46.7,3.11.37,4.61.88a.4.4,0,0,1-.47.3c-2.26-.35-4.56-.22-6.81-.8-1.23-.31-2.63-.81-3.85-.29a4.74,4.74,0,0,1-3.14.2,21.13,21.13,0,0,0-4.87-.9,1.48,1.48,0,0,0-.38.09c.25.26.75.15.74.69-1.08.15-2.46.29-3.11-.41-.89-1-1.6-.63-2.49-.45a3,3,0,0,1-.95,0,80.8,80.8,0,0,0-8.94-.38c-6.51-.11-13,0-19.54-.44a52.18,52.18,0,0,0-5.34.46,20,20,0,0,1-7.94-.83c-2-.72-4.22-.41-6.31-1.43-1.43-.7-3.16-.93-4.63-1.76-.35-.2-.74-.48-1.14-.32a6.84,6.84,0,0,1-3.62,0,31.17,31.17,0,0,1-10.83-3.67c-4.54-2.6-8.09-6.3-11.48-10.24-1.47-1.72-3-3.41-5.65-3.36a48.63,48.63,0,0,0-7.81.77c-3.45.62-6.84,1.52-10.28,2.24-3.82.81-7.45,2.36-11.21,3.41-5.1,1.41-10.26,2.62-15.37,4-9.59,2.53-19,5.77-28.38,9-.33.11-.71.29-1-.11A.78.78,0,0,1,13,86a3.77,3.77,0,0,1,.64-.47c-2.15.46-3.38,1.47-3.5,2.75m96.13-23a13.35,13.35,0,0,0,7.69.16c4.19-1,8.31-2.27,12.48-3.39a78.42,78.42,0,0,1,21.37-2.88,58,58,0,0,1,8.65.66c1.15.19,2.46,0,3.64.94a6.45,6.45,0,0,1-2.34-.05c-1.6-.29-3.21-.45-4.82-.69-3.3-.51-6.6,0-9.9,0a51.67,51.67,0,0,0-10.3,1.3c-7.39,1.52-14.53,4-21.92,5.62a15.29,15.29,0,0,0,4.57-.37c2.71-.48,5.22-1.66,7.91-2.16,2-.37,3.94-.46,5.89-.82a47.63,47.63,0,0,1,11.33-.94c5.6.35,11.24.13,16.8,1A117.23,117.23,0,0,1,169.72,66a52.6,52.6,0,0,0,9.72,2.18c2,.15,4-.15,6,.28,2.31.51,4.6.07,6.89.16.35,0,.64-.08.71-.48a.71.71,0,0,0-.56-.84,6,6,0,0,0-1.2-.09c-2.07-.08-4.12.6-6.22.05-1.52-.4-3.11-.52-4.66-.8-.38-.06-.9.05-1.09-.66a34.46,34.46,0,0,1,3.56.47,22.55,22.55,0,0,0,8.74.15c.48-.08,1-.12.89-.76s-.62-.64-1.05-.63c-.72,0-1.43.18-2.15.25-4.13.38-8.06-.79-12-1.86-7.8-2.15-15.52-4.52-23.54-5.8a43.51,43.51,0,0,0-18.1.89c-6.07,1.6-12.14,3.21-18.13,5.15a24.84,24.84,0,0,1-6.23,1.1c-1.69.11-3.39.26-5.1.49m80.94-19.89a34.57,34.57,0,0,1-5-2.19c-.36-.16-.67-.43-1.13-.35a29.76,29.76,0,0,1-6.18.51,7.08,7.08,0,0,0-2.23.39c.54.45,1.15.59,1.56,1.2a6.15,6.15,0,0,1-1.88-.81,3,3,0,0,0-1.67-.45,94.1,94.1,0,0,0-11.57,2A147.67,147.67,0,0,0,143.82,50c-.84.31-1.71.57-2.53.94a5.69,5.69,0,0,0-2.37,1.31,6.1,6.1,0,0,0,.85-.08,44,44,0,0,1,11.07-1.6c3.09-.09,6.15.44,9.24.26a25.1,25.1,0,0,1,8.3.86c3.82,1.05,7.77,1.49,11.66,2.23a9.36,9.36,0,0,0,6.18-1.06c2.41-1.19,4.73-2.55,7.18-3.68,2.66-1.22,4.84-3.22,7.14-5.15-.69-.28-1.17.12-1.7.16a18.5,18.5,0,0,1-7.81-1.3c-2.31-.84-4.49-.4-6.82,0,.33,1.68,2.21,1.18,2.95,2.51m-78.5,23.94a9,9,0,0,0,4.88.62c3.3-.78,6.64-1.2,10-1.67,6.33-.88,12.7-1,19-1.52,6.7-.51,13.13,1.23,19.56,2.9,4.95,1.28,9.82,3,15,3.2a1.2,1.2,0,0,1,.9.46c-1.42.68-2.85.21-4.14-.07-6.84-1.46-13.55-3.53-20.43-4.87a39.28,39.28,0,0,0-10.61-1c-4.47.36-9,.53-13.4,1-3.64.36-7.26.91-10.9,1.24-2.57.23-5,1.8-7.69,1a1,1,0,0,0-1.1.35c-.2.3,0,.6.2.87.33.43.7.39,1.2.3,1.72-.3,3.44-.68,5.16-1,6.64-1.12,13.36-1.64,20.07-2.2A59,59,0,0,1,155,70.82c5.42,1.29,10.71,3.13,16.27,3.79.66.08,1.54-.17,2.16.65a21.84,21.84,0,0,1-6.4-.68c-6.53-1.27-12.82-3.66-19.45-4.4a55,55,0,0,0-9.33-.59c-4.69.3-9.39.62-14,1.32-1.81.27-3.7,0-5.47.67.63,1.22.77,1.3,2,1.15,4.07-.52,8.12-1.19,12.21-1.54,6.72-.57,13.34.59,19.85,2.08,6.24,1.44,12.41,3.07,18.86,3.24a22.31,22.31,0,0,1,5.91.74c-6.29.28-12.1-.54-18-1.36,1.31,2.19,4.75,3.2,5.64,1.72a4.7,4.7,0,0,0,1.68.82,29.86,29.86,0,0,0,3.64.27c5.29.81,10.65.44,16,1.06,3.72.44,7.39-.42,11.09-.55a1.47,1.47,0,0,0,1.38-.9c-.84-1.31-.84-1.32-2.42-1a18.09,18.09,0,0,1-5.8.39c.45-.66,1-.5,1.55-.52a16.76,16.76,0,0,0,4.81-.74c.47-.17.9-.31.78-.9a.76.76,0,0,0-1.09-.53c-1.79.64-3.67.37-5.49.68a3.25,3.25,0,0,1-2.11-.29c2.48-.5,5.05-.14,7.56-1.22-.94-1.64-2.62-.25-3.66-1.25.88-.35,1.86-.22,2.53-.84-.18-1.18-.83-1.43-1.87-1.17a16,16,0,0,1-5.09.62,79,79,0,0,0-9.22-.45,8.29,8.29,0,0,1-1.21-.13c-5-.63-9.79-2.31-14.72-3.33a81.51,81.51,0,0,0-13.34-2.07c-6.62-.28-13.23.31-19.85.34a29.45,29.45,0,0,0-5.51.63c-3.7.74-7.43,1.37-11.14,2.09a23.35,23.35,0,0,1-5,.66M117.4,49c2.1-2.8,4.85-4.25,7.3-6.1a66.28,66.28,0,0,1,17.6-9.24c3.25-1.18,6.69-1.75,10-2.64a60.46,60.46,0,0,0,15.5-6.19,8.73,8.73,0,0,1,3.72-1.24c-.39.65-1,.7-1.43.92s-1.09.44-1.59.72a68.38,68.38,0,0,1-16.33,6.66c-3.81,1-7.71,1.61-11.39,3.15-9.33,3.9-18,8.72-24.75,16.68-2.64,3.1-4.89,6.45-7.34,9.67a4.57,4.57,0,0,0-.89,2.41c1.45.3,1.56.28,2.13-.54A50,50,0,0,1,122.86,50.9c5.61-3.92,11.85-6.79,18-9.69,4.2-2,8.66-3.28,13-4.9,8.14-3,16.39-5.65,24.73-8,6.33-1.79,12.53-3.93,18.19-7.43.39-.24.82-.41.84-1l-13.78-5.23c-3.72,2.75-6.93,6.45-11.45,8.29,3.36-2.41,6.5-5.08,9.61-7.81a138,138,0,0,1-15.46,8.13c-4.5,1.95-8.92,4.13-13.74,5.18-2.95.64-5.93,1.1-8.88,1.73-8.51,1.82-15.65,6.65-23,11.07-1.94,1.18-3.9,2.72-3.1,5.64,0,0-.09.12-.16.2-.78-.49,0-1.53-.77-2.17-.42,1.36.07,2.45.44,4M27.51,69.34a25.34,25.34,0,0,0,5.9-.41,34.3,34.3,0,0,0,9-2.3c2.36-.92,4.45-2.39,6.75-3.33,3.2-1.29,6.1-3.13,9.2-4.58,4.35-2,8.57-4.43,13.2-5.74,4.87-1.38,9.66-3.29,14.92-2.41a15.05,15.05,0,0,1,8.65,4.09c2.34,2.35,4.1,5.15,6.17,7.7.44.56.82,1.24,1.73,1s.84-.85,1-1.47a39.41,39.41,0,0,1,6.73-13.57A37.1,37.1,0,0,0,114.59,43a26,26,0,0,0-6.42-4.66c.09.78,1.1.85.92,1.66-.46.1-.58-.29-.83-.43-2-1.09-3.32-3.09-5.5-3.84A38.09,38.09,0,0,0,97.1,34a45.27,45.27,0,0,0-15.49-.08,46.62,46.62,0,0,0-16.4,6.34c-2.25,1.33-4.45,2.92-7,3.52a7,7,0,0,0-4.35,2.8c-3.31,4.38-7.59,7.79-11.7,11.34A135.08,135.08,0,0,1,27.51,69.34M173.14,54.17c-1.32-.17-2.3-1.44-4.06-1.26.91.48,1.55.81,2.17,1.16s1.32.44,1.6,1.26c-1.17-.26-2-1.22-3.4-1.42l1.3,1.05c-1.15-.22-2.41-.62-2.53-1.36-.31-1.75-1.65-1.68-2.64-1.82a24.15,24.15,0,0,0-4.73-.37c-1.53.09-3.07.11-4.6.06a59.36,59.36,0,0,0-12.41.63c1.34.44,2.37-.18,3.45-.13,3,.14,6.07.05,9.08.33a37.64,37.64,0,0,1,8.83,1.57c3.48,1.2,7,2.19,10.54,3.27.4.12.85.37.72-.42.72.49,1.13,1.33,2.1,1.58,2.56.69,5.06,1.59,7.63,2.24,1.46.37,2.82.37,3.74-1.44a10.37,10.37,0,0,1,2.89-3.25,60.63,60.63,0,0,1,5.25-3.64,19.8,19.8,0,0,0,6.57-7.39,7.18,7.18,0,0,1-3.59.51,2.33,2.33,0,0,0-1.82.74,11.68,11.68,0,0,1-2.71,2L193,50.32c.15.63.86.51.94,1-.82.31-1.39-.64-2.17-.46-.08.49.61.56.58,1-.59.14-1-.51-1.59-.23.27.64,1.14.6,1.43,1.76-2.41-2.38-4.25-.65-6.17.44.67,1,2.11,1,2.8,2.08-.21.16-.34,0-.5-.05-.86-.49-1.71-1-2.6-1.44a1,1,0,0,0-1.44.36c-.25.52.28.74.62,1,.66.6,1.62.73,2.22,1.48-.68.76-1-.06-1.38-.27-1.75-1.1-3.33-2.6-5.54-2.59a28.85,28.85,0,0,1-4.76-.25c1.39,1.26,3,2,4.43,3.47a3.57,3.57,0,0,1-1.78-.86c-1.33-1-2.63-1.94-4-2.89-.74-.54-.9-.5-1,.17M46.39,66.31c3.21-1.78,6.68-3,10-4.63,2.06-1,4-2.18,6.17-3.09,3.15-1.36,6.46-2.2,9.64-3.47C75.91,53.62,79.58,52,84,52.4a17.15,17.15,0,0,1,10.8,5c1.9,1.89,3.79,3.81,5.68,5.71a1.3,1.3,0,0,0-.32-1c-1.94-2-3.33-4.43-5.26-6.47a14,14,0,0,0-12.05-4.36A55.06,55.06,0,0,0,64.28,56.7c-5,2.34-9.76,5.07-14.79,7.3a6.08,6.08,0,0,0-3.1,2.32c-.51-.46-1,0-1.37.15-2.11.78-4.16,1.76-6.3,2.4a38.49,38.49,0,0,1-7.86,1.2,8.83,8.83,0,0,0-3.71.69c3.19,0,6.35.45,9.51-.68s6.63-1.6,9.47-3.7a.77.77,0,0,1,.26-.07M176.4,60c-.14.37.46.6.19,1a15.75,15.75,0,0,1-6.19-4,9.67,9.67,0,0,0-1.9-1.49c-.95.89-.39,1.5.29,2.2a29.75,29.75,0,0,1-6.27-3.35c.51,1,1.57,1.25,2.31,2.49-2.32-1-3.75-2.92-5.86-3.66-.16.55.17.65.4.82l0,0c-.13,0-.31.15-.38.1-1.33-.93-2.94-.63-4.57-1.08,1.26,1.36,3,1.81,4,3.21-1.95-.92-3.6-2.41-5.64-3.18.92,1.23,2.6,1.45,3.33,3l-4.09-2.57c.06.71.75.62.84,1.17-1.61-.18-2.66-1.75-4.49-1.86,1.11,1.15,2.55,1.5,3.66,2.9l-2.87-1.32.47.79c-1.58.64-2.73-.61-4.09-1-.08.65.72.44.78,1.12-1.53-.2-2.66-1.38-4.2-1.74.32.72,1.09.72,1.29,1.37-1,0-1.77-1-2.84-.69.09.69,1,.59,1.12,1.29-.9.13-1.51-.74-2.37-.77,1.3,1.85,3.08,1.82,5,1.52a27.46,27.46,0,0,1,8.24.47,115.71,115.71,0,0,1,18,4.07,129.88,129.88,0,0,0,13.69,3.57,14.27,14.27,0,0,0,6.07,0,8.85,8.85,0,0,0,4.76-3.7c2.31-3.21,4.92-6.14,7.35-9.23,1.7-2.16,3.26-4.43,5.15-6.43,1-1,2-1,2.27.38.49,2.38,2.45,3.69,3.49,5.63.6,1.12,1.45,2.06,2,3.23.42,1,1.39,1.51,2,2.25,2,2.47,4,.26,6,.33a13.86,13.86,0,0,0,2.26-.38,1.68,1.68,0,0,1,1.82.86c.49.75.12,1.2-.21,1.73-2.33,3.78-3.76,8-5.7,12-2.32,4.78-4.87,9.45-6.82,14.42-1,2.67-2.38,5.23-3.17,8a7.94,7.94,0,0,0-.18,2.05c0,1.59-.71,2.19-2.24,1.83-1.88-.44-3.66-1.22-5.57-1.58-4.47-.82-8.91-1.9-13.4-2.57-3.57-.54-7.2-.62-10.8-.93-3.42-.3-6.84-.66-10.27-.93-2.52-.2-5-.72-7.57-.47a15.59,15.59,0,0,1-2.28-.23c-4.35-.14-8.69.19-13,.44-2.2.13-4.43.07-6.62,0-3.57-.13-7.14.26-10.71-.36a59.09,59.09,0,0,1-7.69-2,10.6,10.6,0,0,0-3.45-.78,18.48,18.48,0,0,1-5.58-1c-4.33-1.35-8.72-2.61-12.46-5.46A50.07,50.07,0,0,1,93,75.3c-1.14-1.25-2.22-2.56-3.32-3.85A3.78,3.78,0,0,0,86.62,70a63.89,63.89,0,0,0-13.84,2.14C67,73.51,61.34,75.24,55.6,76.74c-3.17.82-6.24,2-9.4,2.87-3.85,1.06-7.66,2.27-11.53,3.26S27,85.1,23.14,86.16c-3.07.84-6,2.09-9.18,2.65a17.81,17.81,0,0,1-3.48.43c-.52,0-1.19.18-1.45-.46A1.64,1.64,0,0,1,9.53,87a9.66,9.66,0,0,1,4.33-2.74c1.78-.55,3.07-1.38,3.51-3.32a2,2,0,0,1,.74-1.13c1.76-1.16,2.51-3.09,3.62-4.73a12.67,12.67,0,0,1,1.78-2.26A8.42,8.42,0,0,0,25.65,70a4.26,4.26,0,0,1,1.87-1.93,90.1,90.1,0,0,0,13.11-10C43.7,55.42,47,53,49.74,50a40.49,40.49,0,0,0,3.57-4.17A5.65,5.65,0,0,1,57.22,43c3-.48,5.52-2.22,8-3.76a47.71,47.71,0,0,1,15.46-6.14,41.83,41.83,0,0,1,16.72.09,36.31,36.31,0,0,1,17.75,9.15,1.29,1.29,0,0,0,.28.12c1-.57,1.44-1.62,2.18-2.41a79,79,0,0,1,7.9-6.74,44.6,44.6,0,0,1,9.74-6.11A82.82,82.82,0,0,1,151.16,22a187.27,187.27,0,0,0,23.18-6.63A23.47,23.47,0,0,0,178,13.3a3.93,3.93,0,0,1,2.19-.85,75.88,75.88,0,0,1-27.53,14.94,20.62,20.62,0,0,0,6.53-1.74c4.63-2.25,9.56-3.79,14-6.36a74.17,74.17,0,0,0,9-5.57,1.44,1.44,0,0,1,2.13-.07,12.46,12.46,0,0,0,4.1,2.06c3.41,1.13,6.64,2.78,10.15,3.58A3.67,3.67,0,0,1,196.43,22a64.81,64.81,0,0,1-10.61,4.71,2.49,2.49,0,0,0-.85.49c3.12.57,6.25,1,9.32,1.7a45.71,45.71,0,0,1,9,3.2.86.86,0,0,1-1.39.41c-2.82-1.75-5.95-1.63-9.07-1.7a46.84,46.84,0,0,0-12.1,1.78c-5.5,1.31-10.81,3.41-16.32,4.53s-10.93,3.23-16.27,5.23a143.11,143.11,0,0,0-22.64,11c-3,1.76-5.77,3.74-8.55,5.77a2.19,2.19,0,0,0-1,1.24,25.28,25.28,0,0,0,2.81-1.44c4.18-2.83,8.9-4.57,13.34-6.89,3.77-2,7.82-3.19,11.74-4.74a127.86,127.86,0,0,1,15-4.66c4.78-1.23,9.66-2,14.5-3.07a49.73,49.73,0,0,1,7-.8c3.38-.22,6.75-.56,10.12-.87a19.79,19.79,0,0,1,4.27.59c3.14.4,6.24,1.1,9.43.54.11,0,.24.09.66.25a15,15,0,0,1-4.4,1.39c-1.49.35-3,.59-4.52.8s-3,.32-4.51.61c3.5,1.4,7,2,10.77.68,0,1-.85,1.26-.86,2.1,1.81-.56,3.67-.72,5.14-2,.48.93-.1,1.46-.46,2A32.49,32.49,0,0,1,195.31,55a3.66,3.66,0,0,0-1.74,1.47l0,0c-.4.25-.87.39-.14.93.42.31,1.15.41,1.21,1.24-1,.1-1.57-1.06-2.73-.74.7.95,1.74,1.22,2.53,1.89a1.34,1.34,0,0,1-2.18.42,8.82,8.82,0,0,0-.93-.56.63.63,0,0,0-.85.12c-.18.19-.26.38-.08.6.41.51.45-.27.63-.22a4.06,4.06,0,0,1,2.09,1.39c-.38.56-.72-.18-1.09,0,0,.2,0,.39.06.65-.91-.15-1.31-1.28-2.33-1.25.11.84,1,.82,1.24,1.54-1,.09-1.55-.89-2.49-1.07,0,.87,1,.66,1,1.43-.81.28-1.11-.64-1.72-.78-.35.23.22.44-.08.75-.83-.14-1.22-1.27-2.38-1.08l1.09.62-.35.42A10.26,10.26,0,0,1,183.77,61c-1-.94-1.35-1-2.55,0-.48.39-.62-.44-1-.16.27.35.54.69.82,1-2.11-1.23-3.66-3.29-6.05-4.1-.16.5.37.58.32.92l0,0c-1.15.07-1.56-1.35-2.82-1.48l.45.7c-1,0-1.34-1.45-2.61-1.33.72.59,1.33,1.1,2,1.6.34.28.64.32.75-.24,1.23.55,2.08,1.72,3.37,2.18Z"/><path class="cls-2" d="M159.37,54.09c1.17.79,2.57,1.27,3.31,2.64-1.12-.86-2.73-1-3.29-2.66l0,0"/><path class="cls-2" d="M175.3,58.66c1.56.37,2.36,1.67,3.31,2.79-.92-.19-1.26-1.29-2.21-1.43l0,0-1.1-1.43Z"/><path class="cls-2" d="M157.74,54.55a5.43,5.43,0,0,1,3,2.06,8.34,8.34,0,0,1-3-2.06"/><path class="cls-2" d="M193.57,56.44c.8-.06,1.27.52,2,1.06-1.05,0-1.79-.08-2-1.09Z"/><path class="cls-2" d="M184.32,73.21c-1.58.72-3.24.43-5.18.43,1.88-.81,3.54-.46,5.18-.43"/><path class="cls-2" d="M173.14,45.77c.75-.29,1.07.07,1.46.15a6.57,6.57,0,0,1,1.4.67c-1.33.64-1.86-.48-2.86-.82"/><path class="cls-2" d="M169.68,45.36a7.47,7.47,0,0,1,2.59.86c-1,.08-1.15,0-2.59-.86"/><path class="cls-2" d="M175.82,44.18l2.32,1.2c-1.09.11-1.27,0-2.32-1.2"/><path class="cls-2" d="M165.65,61.84a47.8,47.8,0,0,1,8.88,2.61,29.47,29.47,0,0,1-8.88-2.61"/><path class="cls-2" d="M145.7,77c-1.29.09-1.65-.81-2-1.72l2,1.72"/><path class="cls-2" d="M183.93,58c-2.85.81-4.26-1.77-6.35-2.77,1.21.11,2,1,3.06,1.49.66.32,1.2,1.41,2.21.44.19-.18.87.34,1.08.84"/><path class="cls-2" d="M186.61,58.36c-1,.16-1.63-.5-2.21-1.22,1-.07,1.46.84,2.21,1.22"/><path class="cls-2" d="M207.47,79.24c-.27,1.52-1.3,2.62-2,3.9a7.48,7.48,0,0,1,2.06-3.85Z"/><path class="cls-2" d="M207.51,79.29c-.1-1.31.72-2.17,1.46-3.06a5.71,5.71,0,0,1-1.5,3l0,.05"/></svg>