<svg xmlns="http://www.w3.org/2000/svg" viewBox="0 0 177.14 129.8"><defs><style>.cls-1{fill:#231f20;}</style></defs><title>Gist</title><g id="Layer_2" data-name="Layer 2"><g id="Layer_1-2" data-name="Layer 1"><path class="cls-1" d="M100.86,71.72c-.68.72-.68,1.24.08,1.72,1-.58.69-1.09-.08-1.72M50,79.6c.87.89,1.64,1.67,2.6,2.63A9.06,9.06,0,0,0,50,79.6M56.7,60.8h-.5c-.42,1,.78,1.88.5,2.48Zm43,10.54a.77.77,0,0,0,.2-1.23c-.32-.39-.67-.23-1,.06a1.62,1.62,0,0,0-.21.39c.25.38.48.74,1,.78M11.64,56.93a8.93,8.93,0,0,0,0-4ZM9.43,46.18c.07-.64.45-1.35-.44-1.84-.58.77-.56,1.39.44,1.84M58.1,93.81a2.42,2.42,0,0,0-1.34-2.3c-.14,1.15.44,1.71,1.34,2.3m74.15-52.28c.44.89.05,1.9.49,3.07.58-1.32.61-2.27-.49-3.07M97.61,70.18a2.15,2.15,0,0,0-.7,2.19c.65-.67,1.5-1.1.7-2.19m26.6,36.07c0-1.13.33-2.07-.38-3.25-.21,1.27-.51,2.21.38,3.25m2.09-43.87.21.06V57.83h-.21Zm-101-27.57-.37.3c.94.88,1.27,2.22,2.65,2.77l-2.28-3.07m115.6-16.27a5.16,5.16,0,0,0-3.74-.66,7.7,7.7,0,0,0,3.74.66m-12.46,27.2c.31-1.3-.17-2.28-.21-3.31a3.33,3.33,0,0,0,.21,3.31M100.57,75.68c.28-.67.24-1.27-.53-1.54a.62.62,0,0,0-.81.56,1,1,0,0,0,1.34,1m-45-25.3c.07-1.13,1-2.23.19-3.41-.12,1.14-.84,2.24-.19,3.41M36.38,32.28a6.54,6.54,0,0,0,2.48,3.24,7.91,7.91,0,0,0-2.48-3.24M97,73.73c0,1.23.35,1.91,1.66,2-.2-1-.39-1.75-1.66-2M57.91,89.31c.59-1.63-.79-1.72-1.59-2.53a2.7,2.7,0,0,0,1.59,2.53M9.05,18.87A12,12,0,0,0,8.78,24c-.06-1.73.59-3.41.27-5.12m21.28,13.8c.38,1.51,1.52,2.53,2.46,3.68a8.41,8.41,0,0,0-2.46-3.68m30-29c-1.71.35-1.86,1.21-1.2,2.55a2.66,2.66,0,0,0,1.2-2.55m38.85,100.2c-1.07-1.64-2.16-1.24-3.47-.51a4.94,4.94,0,0,0,3.47.51M8.3,57.7A4.52,4.52,0,0,0,8.75,62c1.17-1.54-1.06-2.73-.45-4.25M58.64,97.22A3.34,3.34,0,0,0,56.91,94a3.45,3.45,0,0,0,1.73,3.22M30.25,92.9C30,91.53,29.06,90.74,28,89.85c-.36,1.89,1.2,2.28,2.23,3.05m24.61-8.43c.29-1.42-2.21-4.51-3.94-5.07,1.23,1.8,3.31,2.73,3.94,5.07M33.69,89.08a6.79,6.79,0,0,0-3-3.25c.5,1.52,1.76,2.39,3,3.25m14.1-67.89c1.88-.16,2-.52,1.75-5.38-.24,1.89-.2,3.86-1.75,5.38M97.85,95.61c.29,1.36,0,3,1.89,4,.2-1.9-1-2.87-1.89-4M11.87,61A4.3,4.3,0,0,0,11,65.68c.91-1.49.6-3,.89-4.67M98,63.43c-1.75-1.83-3.5-.32-5-.5,1.53.17,3,1,5,.5M28.62,38.21l.46-.37c-1.3-1.72-2.33-3.64-4-5.08-.11.09-.22.18-.34.26l3.87,5.19M106.93,93.5a6.45,6.45,0,0,0-.78,4.53c1.12-1.5,1.78-2.7.78-4.53m-.57,8.06c-.23,1.72.63,2.39,3,2.52a4.5,4.5,0,0,0-3-2.52m.3,5.72a7.85,7.85,0,0,0,1.41,5c.3-2.39,0-3.46-1.41-5M29.78,37.61c.3-1.45-1.6-4.1-3.43-5a34.16,34.16,0,0,0,3.43,5M33.87,95c.17-2.15-1.7-3-2.82-4.26-.2,2.14,1.81,2.87,2.82,4.26M9.58,47.42l-.48,0c-.46,3.45.3,6.9,0,10.34h.45Zm19.27,22c-.44-.37-.45.68-1.07.15-1.24-1-1.43-.94-1.78.74,1.08.28,2.14.63,3.23.8s1.68-.21,1-1.42c-.54,0-.49.92-1.2.65-.08-.32-.16-.67-.22-.92M17,13.61c-.68,2.24.3,4.13,1.16,6.22,0-1.94,0-3.71,0-5.49,0-.85-.48-1-1.16-.73M33.64,92.06c.15-2.22-1.65-3.13-3-4.89-.28,2.81,1.68,3.63,3,4.89M135.88,105.7a46.86,46.86,0,0,0-.64-11.16,60.34,60.34,0,0,0,.64,11.16M33.32,84c.37-2.51-1.88-3.15-3.13-4.5-.29,2.45,1.93,3.11,3.13,4.5m13.57-5.15L55,86.41a1.16,1.16,0,0,0-.65-1.69c-2.49-1.1-3.86-3.4-5.6-5.28a1.85,1.85,0,0,0-1.86-.61M98.56,62.55c.15.93.28,1.73,1.57,1.07a3.78,3.78,0,0,1,3,0c.43.13.91.73,1.45.15-.85-1.58-2.88-2-6-1.18m-35.33,54.2a45.9,45.9,0,0,0-2.08-10.88,38.82,38.82,0,0,0,2.08,10.88m37.21-8.49A6.5,6.5,0,0,0,97,112.77c2.26-.78,3.77-2.76,3.42-4.51M9.54,64.73c1.22-4.45,2-8.92.76-13.5a68.53,68.53,0,0,1-.76,13.5m24.19,23c.52-3.12-2-3.91-3.4-5.84-.39,3.14,2,4,3.4,5.84M56.88,57c-1-3.42,1.16-6.68.37-10.35-1,3.16-1.77,7.28-.37,10.35M55,30.37c-.13-1.09-.15-2.54-1.45-2.29s-3,.28-4.21,1.33c.62,1.1,1.4.3,2.19.26l2.37,2.74.2-.17-1.31-2.15c.84-.52,1.59-.83,2.21.28M27.8,79.5c-1.45.7-.93,1.82,1.74,3.67a5.22,5.22,0,0,0,0-1.43c-.24-.81-.74-1.44-.27-2.46.37-.79-.54-1.41-1.28-1.81a.62.62,0,0,0-.85.27c-.52.81.28,1.12.63,1.61a.38.38,0,0,1,.05.15M57,68c-.44,1.34.06,2.75-.47,4.18-1-.69-1.93-1.58-3-.07a40.23,40.23,0,0,0,5.47,1V68.28c-.64.89-.86,1.79-1.87,1.74-.06-.69-.11-1.34-.16-2M103.64,66a1.69,1.69,0,0,0-1.9-1.69c-1.18,0-2,.54-2,1.79a1.92,1.92,0,0,0,1.7,2.19A2.27,2.27,0,0,0,103.64,66m8.8-18.46,13.75,1.87c-1.17-1.71-9.64-2.74-13.75-1.87M123.82,64.4c-5.5-.93-11.09-1-16.56-2.05,4.8,2.34,10,2.49,15.14,3.23.75.11,1.61.11,1.42-1.18m8.71,10.73q.91,15.23,1.84,30.44l.39,0c0-3.51.13-7,0-10.54a56.09,56.09,0,0,0-1-9.51c-.78-3.44-.11-7-1.2-10.37m34.28,3.64c-8.3-1.58-16.74-1.79-25.16-2.31a.59.59,0,0,0,.42.27c4.47.48,8.94.91,13.39,1.57a98.4,98.4,0,0,0,10.27,1.47c.69,0,1.22.08,1.08-1M125.29,61.09H125c-.12,2-.3,4-.36,6-.15,5.35-.18,10.7-.39,16-.21,5.62-.6,11.24-.8,16.86a2.19,2.19,0,0,0,1,2.24c.28-13.85.55-27.5.83-41.15M34.23,31.77c1.15,3.7,4.88,5.72,6,9.42-.94-1.76-2.72-2.77-3.81-4.38-1.22-1.8-2.11-4-4.82-4L37,41.61c.31.51.64,1,1.44.52-1.73-2.62-3.66-5-5-7.94a2.11,2.11,0,0,1,1.1,1q1.85,2.77,3.68,5.57c1.22,1.88,1.59,2,3.73.93a44.22,44.22,0,0,0-7.79-9.93M166.71,80.85a296.11,296.11,0,0,0-30.61-3.73,25.56,25.56,0,0,0,7,1.58c4,.28,7.86.86,11.77,1.46,3.1.47,6.18,1,9.29,1.45.74.1,1.71.42,2.51-.76m-61.95-15c.11.14.17.29.25.3,3.47.49,6.95.9,10.41,1.48,2.26.38,4.55.12,6.8.39,1.65.19,1.77.16,1.54-1.65-1.28-.08-2.59,0-3.87-.24-4.38-.68-8.85-.65-13.23-1.4a1.68,1.68,0,0,0-1.9,1.12m31.71,20.13c-.05,1.07.27,1.68,1.16,1.89,1.06.24,2.1.51,3.17.7,4.93.89,10.11.28,14.82,2.56-.11-2.25-1-3.19-3.31-3.2a90.47,90.47,0,0,1-9.73-.92c-2-.23-4-1.07-6.11-1m33.33-27c-1-1.27-2.42-1.29-3.68-1.5-3-.5-6.07-.51-9.1-.77-5.79-.49-11.57-1-17.38-1.24a13.43,13.43,0,0,0-3.71.5l33.87,3M102.19,77.12c-.09,2.12,1.41,2.64,3,2.82,5.6.63,11.21,1.16,16.82,1.75.79.09,1.47.12,1.53-.88s-.28-1.41-1.38-1.52c-5.07-.47-10.13-1.09-15.19-1.6-1.6-.17-3.15-.86-4.78-.57m4.35,42.61c-1,.24-1.86.45-2.74.69a7.2,7.2,0,0,1-7.15-2.64c-1.75-2.55-2.15-5.49-2.51-8.44a44.09,44.09,0,0,1,.33-9.74c.41-4,.8-8,2.61-11.64a31.88,31.88,0,0,1,2.51-4.89,1,1,0,0,0-1.18.56c-2.61,3.16-3.86,7-4.92,10.81s-.53,8.11-.69,12.18a21.23,21.23,0,0,0,2.25,9.87,8.21,8.21,0,0,0,6.72,4.76c1.68.24,3.52.36,4.77-1.52m59.91-43.54c-3.51-.56-7-1-10.39-1.35-6.32-.7-12.71-.69-19-1.68-.67-.11-1.52-.24-1.62.84s.15,1.86,1.34,2a1.84,1.84,0,0,0,1.28-.11c-.35-.45-1.51.18-1.3-1a1.94,1.94,0,0,1,1.42-.06c2,.3,4,.67,6,.84,7,.6,14.11.67,21.09,1.87,1.09.19,1.58-.16,1.23-1.41M74.77,49.24c2.65.43,5.29.92,8,1.28,4.35.58,8.71,1.15,13.08,1.6,2.16.22,4.22.94,6.4,1.05A103.89,103.89,0,0,1,118.7,55c1.75.38,3.52.6,5.29.84.39,0,.92.06,1-.6s-.15-.8-.73-.83c-.37,0-.73-.21-1.11-.25-7.18-.71-14.33-1.71-21.48-2.66-4.19-.56-8.38-1.14-12.59-1.56-4.75-.47-9.5-1.06-14.27-.7M66.58,60.48c7.25,2.11,25.43,2.59,31.12.62a28.5,28.5,0,0,0-3.55-.46c-2.45,0-4.9-.18-7.34-.38q-9.11-.73-18.19-1.59c-1.38-.13-1.87.49-2,1.81m5.17-9.72a12.48,12.48,0,0,0,4.57,1c4,0,7.8,1.18,11.74,1.56,3.66.35,7.3,1.23,11,1.36C106.31,55,113.49,56,120.7,57c1.24.16,2.56.76,3.9.22a1,1,0,0,0-.94-.7q-5-.91-10.08-1.73c-5.3-.85-10.71-.68-16-1.64-3.85-.7-7.76-.93-11.62-1.44-4.18-.55-8.36-1.22-12.54-1.8a1.27,1.27,0,0,0-1.66.86M137.22,80.1c9.61.75,19.06,2.39,28.63,2.8C155.92,81,145.92,79.67,136,78.65c-.37,2.31.88,2.86,2.66,3.11s3.58.78,5.39,1.08a47.25,47.25,0,0,0,7.71,1,51.72,51.72,0,0,1,11.45,1.27,2.7,2.7,0,0,0,2.74-.83A49.14,49.14,0,0,0,156.45,83c-5.68-.46-11.27-1.74-17-1.8-.66,0-1.95.3-2.23-1.13M68,57.75C77.25,59.11,86.67,59.17,96,60s18.46,3.22,28.1,3.26a1.9,1.9,0,0,0-1.74-1c-1.66-.23-3.33-.46-5-.72-4.67-.75-9.39-1.08-14.1-1.53q-4.37-.4-8.73-.94c-2.31-.28-4.6-.79-6.92-1-6-.53-11.89-1.15-17.82-1.92-1.17-.15-1.76.17-1.86,1.59M69.26,55c.1.47.33.46.55.48,5,.54,9.92,1.15,14.89,1.62,6,.57,12,1.56,18.09,2.12,6.68.61,13.41.93,20,2.47.56.13,1.27.1,1.43-.71s-.52-.84-1.12-.95c-2.06-.38-4.18,0-6.19-.39a169.2,169.2,0,0,0-20.66-2.45c-6-.4-11.76-1.87-17.71-2.22-2.71-.16-5.39-.73-8.12-.51-.48,0-1.19-.17-1.14.54m97.8,29.69c-1.81,1.86-3.66,1.52-5.55,1.11a26.8,26.8,0,0,0-5.28-.85A87.84,87.84,0,0,1,142,83.39c-1.82-.32-3.65-1-5.51-.71-.37,1.35-.06,2,1.3,2.3a78.27,78.27,0,0,0,11.85,1.85c4.81.42,9.59,1,14.38,1.57,1.43.17,3,.8,4.42-.37a8.19,8.19,0,0,1-1.42-3.38M67.92,14.49s-.53-.14-.71.57.17,1,.81,1.09a20.72,20.72,0,0,0,4,.64c3.15.08,6.31-.26,9.45.3a61.78,61.78,0,0,0,6.76,1,78.37,78.37,0,0,1,11.43,1.47q9.81,2.16,19.61,4.35c.64.15,1.26.23,1.37-.62.09-.64-.09-1.15-.91-1.25-5.73-.75-11.24-2.52-17-3.1-5.25-.53-10.44-1.8-15.75-2.24-6.21-.52-12.38-1.4-19-2.17m56.71,44.72c-.19-1-.87-1-1.39-1.13a30.09,30.09,0,0,0-3.51-.65c-7.87-1-15.75-1.82-23.66-2.37-3.94-.28-7.86-.92-11.76-1.55-4.23-.68-8.53-.81-12.7-1.85-.8-.2-1.27.42-1.34,1.09s.64.68,1.17.73c4.38.45,8.82.61,13.12,1.45,6.2,1.23,12.52,1.14,18.74,2.12,4,.63,8,.88,11.94,1.56,3.11.54,6.2.24,9.39.6M6.47,14.54a2,2,0,0,0-2.34.87,12.86,12.86,0,0,0-2.39,5.1C.53,26.15.69,31.9.84,37.6c.06,2.44.42,5.21,3.55,6.19A.83.83,0,0,0,5,42.7c-.45-1.52-.4-3.13-.75-4.65A34.58,34.58,0,0,1,4.57,21c.57-2.13,1.24-4.22,1.9-6.45M65.35,42.06c.65-1.25-.25-2.23-.4-3.34a35.9,35.9,0,0,1,.54-10.55,5.81,5.81,0,0,0,0-2.42,15,15,0,0,1,.09-8c.41-1.44,1.66-3.09,1-4.32-1.14-2.23,0-4,.41-5.88.07-.37.24-.73.29-1.1a2.14,2.14,0,0,0-2.06-2c-1.11.14-.94,1-.85,1.78.2,1.57.55,3.15-.06,4.69-1.44,3.63-1.55,7.49-1.95,11.3-.15,1.46-.62,2.85-.68,4.33-.22,5.53,3.07,10.2,3.68,15.52M135,69.11c.29,1.44-.3,3.13,1.4,3.29,3,.27,6,.86,9,1,6.67.31,13.29,1,19.91,1.79,1.72.2,1.67-.86,1.77-1.77.14-1.23-.95-.88-1.63-.94-2.55-.23-5.1-.37-7.63-.64-2.69-.28-5.36-.85-8-1a79.3,79.3,0,0,1-8.72-.93c-1.91-.3-3.83-.53-6.09-.84m32.44,0c-10.79-1-21.49-2.25-32.23-3-.19,2.13-.15,2.11,1.57,2.45,6.35,1.25,12.83,1.37,19.21,2.31,3,.44,6,.45,8.91.85,2.39.32,2.62.21,2.54-2.63m-37.18,36.78c1.21.12,1.17-.65,1.17-1.28,0-1.69,0-3.38,0-5.06-.28-7.07-.62-14.14-.88-21.21-.05-1.51.16-3,.25-4.56.11-2-.62-3.87-.58-5.82.08-3.77-.54-7.5-.37-11.27a8.42,8.42,0,0,0-.39-2c-.5,2.75.09,5.44,0,8.16s.39,5.39-.49,8c-.68-5.64-.08-11.32-.57-17a3.29,3.29,0,0,0-.17,1.11q0,13.24,0,26.49c0,7.84-.12,15.69.27,23.53,0,.34-.08.81.54.84.52-.87-.09-2,.48-3a7.64,7.64,0,0,1,.78,3M133.67,52c-.75,1.4-.47,2.12,1.07,2.41a29.51,29.51,0,0,0,3.39.2c4.66.3,9.33,0,14,.72,4.29.67,8.69.61,13,1.12,1.93.22,4,.39,5.56,1.94.31.31.55.8,1.22.41s.59-1,.48-1.55A3.46,3.46,0,0,0,169,54.14a65.3,65.3,0,0,0-9.19-.89c-3.91.08-7.84-.2-11.75-.46-4.77-.32-9.54-.71-14.38-.75M120.12,29.19v-.52c-.1-.12-.18-.3-.31-.34a30.86,30.86,0,0,0-9.21-1.71,47.45,47.45,0,0,1-8.93-.78c-8.09-1.63-16.3-2.28-24.48-3.18-3.34-.37-6.68-.73-10-1.14-.53-.06-1.11-.42-1.42.26A1.67,1.67,0,0,0,66,23.63a2.52,2.52,0,0,0,1.92.68c3.38-.06,6.75.09,10.12.33,4.38.31,8.72.9,13.07,1.51,3.79.54,7.56,1.55,11.37,1.66,4,.12,8,.94,12,1.29a43.87,43.87,0,0,0,5.73.09M23,69.06a12.24,12.24,0,0,0-4.37-1.48,60.45,60.45,0,0,1-8.34-1.28C8.31,65.76,7.37,65,7.34,63.15c0-2.94-.61-5.85-.35-8.79a9.54,9.54,0,0,0-.21-3,21.14,21.14,0,0,1-.09-4.65c.81.23.38,1.06.82,1.41a9.11,9.11,0,0,0,.34-1.26c.1-.83.5-1.8-.61-2.26a1.78,1.78,0,0,0-2.44,1A19,19,0,0,0,2.09,55,30.29,30.29,0,0,0,4.42,65.72,1.75,1.75,0,0,0,5.93,67c5.66.91,11.31,1.9,17,2.85a6,6,0,0,0,.95,0,1.78,1.78,0,0,0,0-1.51c-.9-.21-.71.64-.92.75M56.37,43.41a23.75,23.75,0,0,0-6.07-.73c-8.23.12-16.42,1-24.66,1a59.56,59.56,0,0,0-11.4.53c-.85.15-1.38.34-1,1.36.38,0,.23-.62.78-.48.14,1.28,1.2,1.15,2.15,1.18,6.66.25,13.31,0,20-.14,3.75,0,7.5.39,11.26.48,1.73,0,3.61.39,4.92-1.07.45-.07.24.72.8.5.2-.78-.16-1.62.34-2.42.75.81-.06,1.85.71,2.53,1.23-.26.2-1.66,1.13-2.12.31.47.07,1.22.7,1.52.69-.54.45-1.26.37-2.09m64.26-26.7a48.53,48.53,0,0,0,1,6c.17,1.1.63,1.22,1.58,1.33,4.31.47,8.7.07,12.95,1.19,1.37.36,1.78-.14,1.53-1.59-.28-1.6-.87-3.14-1.17-4.71-.26-1.34-.92-1.58-2-1.84-4.54-1.06-9.1,0-13.84-.36M106.87,69.29c5.65.32,11.1,1.51,16.63,1.76.68-1.29.39-2-1.15-2.2q-6.48-.63-13-1.3c-1.24-.12-2.48-.29-3.72-.39a1.75,1.75,0,0,0-1.77.92c-.42.7.23,1,.49,1.38a5.42,5.42,0,0,1,.71,4.64c-.19.76-.88,1.33-.89,2.11,2.58,1.11,5.3.79,7.88,1.26a99.67,99.67,0,0,0,10,.92c.7.06,1.52.23,1.51-.9,0-.89.29-1.94-1.14-2.08-.65-.06-1.28-.23-1.92-.32-4-.54-8.13-.52-12.14-1.29a1.9,1.9,0,0,1-1.74-1.11C112.43,73.93,118,74,123.4,74.75c.54-2.56.28-3.07-2-3.24-4.49-.32-8.91-1.41-13.44-1.34-.4,0-.91.12-1.07-.88m31.55-40.41c7.34.66,14.59,1.38,21.93,2.7-.65.71-1.15.43-1.68.35-6.39-.88-12.75-2.05-19.21-2.3-.63,0-1.58-.42-1.68.69s.86,1,1.48,1.17c4.77,1,9.7.88,14.46,2,3,.71,6.09,0,9.11.64,1.75.35,3.55.48,5.33.69a1.25,1.25,0,0,0,1.55-1.08c-.23-.73-.9-.42-1.25-.75A4.56,4.56,0,0,0,170,29.65c-.46-.1-.94-.22-1.42-.3a14,14,0,0,1-1.45-.16C158.34,27,149.35,27,140.39,26.61c-2-.08-2,0-2,2.27M118.6,21.15c.79-.14,1.64.17,1.59-1-.1-2.45-1-3.42-3.36-3.7-4-.48-8.06-.95-12.07-1.6-6.25-1-12.44-2.35-18.8-2.75-5.89-.38-11.73-1.43-17.6-2.17-.69-.09-1.3-.05-1.45.87a2.63,2.63,0,0,0,2.19,3c3.73.35,7.43.94,11.13,1.43,6.61.88,13.3,1.1,19.84,2.52,4.28.92,8.7,1,12.94,2.24,1.86.53,3.81.78,5.59,1.14m15.1,35.61a60.86,60.86,0,0,1,1,6.47c.09,1.67,1,2,2.29,2.05,1.84.15,3.67.38,5.51.57,3.29.34,6.56.85,9.86,1.12a86.69,86.69,0,0,1,9.1.85c2,.38,4,.49,6.07.72,0-1.06-.75-1.15-1.24-1.25a32,32,0,0,0-3.39-.39c-3.85-.36-7.71-.35-11.56-.89-3.69-.52-7.33-1.5-11.12-1.46a8.13,8.13,0,0,1-4.91-1.3c11,1,21.77,3.3,32.86,3.33a1.16,1.16,0,0,0-.72-.68c-1.49-.49-3-.16-4.54-.39A120.07,120.07,0,0,0,148,64a76.37,76.37,0,0,1-12-1.31c-.52-.1-1-.24-1.11-1.18,5.48,1.73,11.05,1.41,16.54,1.95s11.05,1.46,16.7,1.72c.26-1.35-1.14-.88-1.69-1.46a2.8,2.8,0,0,1,.72-.16c.76.08,1.58,0,1.62-.89s-.92-.87-1.56-.95c-1.24-.16-2.5-.19-3.74-.38-7.65-1.21-15.4-1.16-23.08-2-1.75-.18-3.61,0-5.19-1.11a6.88,6.88,0,0,1,2.11-.13c3.56.39,7.11,1,10.68,1.19a199.17,199.17,0,0,1,20.26,1.91c.9.13,1.34-.17,1.44-.88-.22-.73-.86-.73-1.26-.77Q153,58.1,137.61,56.77c-1.18-.1-2.38,0-3.91,0M120.08,27.65c.93-2.34.82-2.6-1.33-3.08-4.37-1-8.76-1.9-13.12-2.92a103,103,0,0,0-12.08-2.32c-2.92-.32-5.84-.58-8.75-.94-2-.25-4-.75-6.09-.91-3.45-.28-6.95.78-10.38-.38a1.78,1.78,0,0,0-1,0c-1.15.33-1.21,1.38-1.4,2.3s.27,1.21,1.05,1.31c3.28.44,6.55.93,9.83,1.32,5.44.65,10.9,1.18,16.34,1.88,3.54.46,7,1.34,10.58,1.68,5.44.52,11,.26,16.32,2.08M64.21,67.73c.43-.2.59-.34.72-.32a102,102,0,0,0,15.12,1.18,27.2,27.2,0,0,1,3.88.47c3.54.48,7.08,1,10.64,1.43.66.08,1.59.36,2-1.12-10.54-1.6-21.17-1.91-31.91-3.3.91-.8.91-.82,1.39-.73,5.09.93,10.27,1,15.38,1.64,3.34.43,6.69.53,10,.9,1.77.2,3.54.48,5.32.66,1,.1,1.94-.31,1.88-1.31s.33-2.39-1.42-2.68A76,76,0,0,0,84.92,63a93.33,93.33,0,0,1-17-1.45A2,2,0,0,0,65.31,63c-.15.34-.38.65-.51,1-.95,2.72-2.44,5.31-2.07,8.33a10.63,10.63,0,0,0,3.32.52c3.08.34,6.19.25,9.28.52,3.73.32,7.43,1.34,11.2.75a12.07,12.07,0,0,1,5.9.61c1.25.43,2.56.71,4,1.09-.38-1-.28-2.16-1.45-2.31a63.58,63.58,0,0,0-9.4-.95c-6.57.16-13-1.16-19.45-1.84-.85-.09-2,.22-2.8-.81a18.19,18.19,0,0,1,3.73.14,108.07,108.07,0,0,0,15.52,1.73c3.94.07,7.81.48,11.7.89.6.06,1.34.29,1.45-.54s-.7-.88-1.35-1c-2-.22-4-.32-6-.71-6.91-1.36-14-1.07-20.91-1.92a6.41,6.41,0,0,1-3.27-.8m46.4,36.07a35.54,35.54,0,0,0-2.2-8.92,21.78,21.78,0,0,1-.89,2.81c-.25.56-.41,1.57-1.4,1.16a1.61,1.61,0,0,1-1.08-2c.44-1.72.64-3.55,1.91-4.95.5-.56.32-1,0-1.61a36,36,0,0,0-4.33-7.06c-1-1.28-1.38-1.24-2.3,0-1.94,2.73-2.91,5.86-4,9,.29,0,.58,0,.67,0a22.57,22.57,0,0,1,3.57,6.13,1.37,1.37,0,0,1-.72,1.67c-.65.37-1.15-.1-1.61-.44-.71-.54-.71-1.43-.88-2.21-.34-1.55-.63-3.12-1-4.67A25.29,25.29,0,0,0,95.15,102a8.33,8.33,0,0,0,2.52-.31,2,2,0,0,1,2,1.06,1.34,1.34,0,0,1-.12,1.66,1.75,1.75,0,0,1-1.94.35,13.32,13.32,0,0,0-2.68-.17c-.57,3-.27,6.41.76,8.22.48-1.94,1.85-3.15,3-4.55.48-.62.85-1.52,1.87-1s.93,1.46.56,2.41a6.16,6.16,0,0,1-1.71,2.55,20.65,20.65,0,0,1-3.47,2.07A6.88,6.88,0,0,0,101.7,120c2.66.43,5.72-1.41,7.35-4.37-1.63-2.21-2.37-4.77-3.26-7.25a1.26,1.26,0,0,1,.8-1.72,1.39,1.39,0,0,1,1.63,1,7.36,7.36,0,0,1,.32,1.08c.29,1.79.54,3.57.81,5.36,1.09-2.81,1.07-5.76,1.53-8.79a28.09,28.09,0,0,1-4.16-1.06,1.73,1.73,0,0,1-1.43-1.56,1.59,1.59,0,0,1,.68-1.85,1.71,1.71,0,0,1,2,.43,34.87,34.87,0,0,1,2.69,2.52m-43-95.09c.38.12.68.25,1,.32a130.35,130.35,0,0,0,17.23,2.42c5.43.39,10.74,1.39,16.08,2.23,4.66.72,9.29,1.79,14,1.73,3.22,0,6.35,1.09,9.59.62a34.33,34.33,0,0,1,13.08,1,86.17,86.17,0,0,0,17.15,2.58c4.33.14,8.48,1.46,12.78,1.73-10.24-.6-20.43-2.2-30.83-1.93a6.21,6.21,0,0,1,.29,1c.1,1.42.56,2.26,2.25,2.3a58.87,58.87,0,0,1,6.47.67c4.18.57,8.36,1.19,12.54,1.8.72.1,1.53-.08,2.27.76-7.8-.26-15.22-2.48-23-2.62a5.08,5.08,0,0,0,.41,2.24c1.57.11,3.16.13,4.72.36,3.2.48,6.42-.24,9.62.23,5.25.76,10.53,1.37,15.72,2.52,1,.22,2.2.49,3.21-.55-2.38-.33-4.38-2.08-7-1.46,1.67-1.86,3.39-.06,5.29-.21-.44-2.26-2.48-4.49.08-6.65a21.2,21.2,0,0,0-7.15-2.68c-5.4-.9-10.84-1.53-16.25-2.39C142.17,14,137.06,14,132,13.23a188.15,188.15,0,0,0-19.38-2.39c-5-.26-9.92-1.58-14.94-2.09-5.26-.53-10.54-.51-15.78-1.17-3.66-.47-7.36-.53-11-1.29-2.64-.56-2.64-.55-3.3,2.42M12.42,52.05V66.17c1.41-1.54.32-3,.45-4.32a20.47,20.47,0,0,0,.27-4.22,10.84,10.84,0,0,1,0-4.37c.57.73.35,1.3.42,1.81a51.44,51.44,0,0,1,0,9.12c-.05,1.36.45,2.35,2,2.32,1.68,0,3.32.66,5,.32.51-.42-.08-1.26.64-1.54.57.52-.16,1.65,1,1.85.66-1-.53-2,.19-3,.86.85.31,2.23,1.2,3.12,1.08-1.22.08-2.66.6-3.93,1.08,1.14.12,2.73.92,4,.83-1.29-.22-2.61.31-3.91,1.19,1.2.15,2.84,1,4,.48-.23.06-.88.5-1,.61.21.22.89.78,1.11.63-1,0-2.19.68-3.44.51,1.44.09,2.66.5,4.25.22-1.84.39-3.24.55-4.64h.16L30,68.17c.81-1.41.38-2.9.72-4.65.91,1.72.19,3.29.62,4.71,1-1.87,0-3.84.35-6.23,1.05,2.41.11,4.66,1.18,6.61V63.28c1,1.66.29,3.62,1.36,5.61V62.45l.5,0c.19,2.19,0,4.43.71,6.57.67-2.18.16-4.45.72-6.66l.33,6.92c.81-2.07.36-4.24.74-6.35.44,2.26-.08,4.62.6,6.84.59-2.26.24-4.53.55-6.8a25.1,25.1,0,0,1,.43,7.14,72.53,72.53,0,0,0,13.7,1.72c-.2-1.57.44-2.87.72-4.23A28.89,28.89,0,0,1,55,60.86c1.45-3,.56-5.72.11-8.56h-.46v7l-.48,0c.21-4.06-.43-8.12.42-12.2-1.6,3-1.18,6.32-1.89,9.44-.12-3.09-.61-6.17.57-9.2-1,0-.75.86-1.29.94-.22-.05,0-.56-.55-.41a23.58,23.58,0,0,1,.14,7.41c-.42-2.54-.45-5.13-1.21-7.61-.21,2.66.09,5.31-.52,7.95,0-2.68.14-5.36-1-8.12-.21,2.67.33,5.19-.42,7.6-.51-2.46.21-5-.85-7.41-.62,2,.25,4-.48,6.26-.94-2.25.5-4.54-1-6.33-.24,1.82.39,3.66-.53,5.81-.59-1.91,0-3.6-.53-5.24-.48,1.5.35,3.1-.82,4.73V48.65c0-.88-.33-1.31-1.32-1.46a43.61,43.61,0,0,0-6.35-.35c-4.59-.09-9.15.56-13.74.32-2.32-.12-4.64,0-7,0-.38,1.43.38,3.07-.52,4.93-.29-1.9,0-3.44-.88-4.82V51.8c-1.11-1.61-.12-3.23-1.26-4.88V53c-.47-.29-.16-.77-.78-.94m50.62,3c-.18-.75.33-1.34.47-2,.38-1.94,2-3.75.53-5.88l-.56,1.32c-.58-.33.24-1-.65-1.28-.2,1.19-.39,2.37-.59,3.54-.49-1.14,0-2.31-.32-3.47-.52.45.14,1.46-.82,1.64-.23-.63.25-1.39-.42-2.18-1.07,1.53-.25,3.42-1.41,5,.13-1.51.24-2.77.37-4.31-.79,1.56-.47,3.1-1.24,4.38a31.49,31.49,0,0,0-.14-4.85c-.58,3.84-1.11,7.27-.77,10.75s1.62,6.59,1.61,10A11.32,11.32,0,0,0,59.88,66c.19-.46.41-1.12-.05-1.29-.77-.3-.49-.83-.36-1.16,1.18-2.87,2.41-5.72,3.63-8.57a7.1,7.1,0,0,1-.51,2.87,26,26,0,0,0-2.15,7.26c-.52,2.94-1.26,5.83-.37,8.9-1.46.31-2.67-.31-3.88-.6C50.64,72.07,44.9,72.13,39.32,71c-1.6-.33-3.33-1.13-5-.41-1.07.46-2-.33-3,0-.34,1.22.77,1.13,1.46,1.26,2.77.51,5.5,1.14,8.3,1.52,4.83.64,9.62,1.54,14.45,2.21,2.38.34,4.75.07,7.14.47s5,.86,7.56,1c7.75.6,15.52,1,23.26,1.72,2.17.2,4.41.1,6.51,1,.32-1.36.07-2.49-1.4-2.64A46,46,0,0,1,91,75.17a8.17,8.17,0,0,0-3.86-.32,17.09,17.09,0,0,1-6,0,91.94,91.94,0,0,0-16.57-1.17c-2.29,0-3.08-.68-2.86-3a9.94,9.94,0,0,1,.49-2.21c2.07-6.24,5.18-12,8-17.93A12.1,12.1,0,0,1,72.35,48a1.52,1.52,0,0,1,1.51-.43,56.86,56.86,0,0,0,8.71.94c7,.48,13.89,1.8,20.86,2.46,5.94.56,11.85,1.44,17.76,2.22a10.57,10.57,0,0,0,4,.17,6.77,6.77,0,0,0,0-3.1c-1.23-.23-2.49-.52-3.76-.7-4.12-.6-8.25-1.15-12.37-1.74a164.52,164.52,0,0,0-18.13-1.88,9.9,9.9,0,0,1-2.11-.14c-6.26-1.57-12.69-2.16-19-3.16-.84-.13-1.93.07-2.4-1.23,14.53,2.4,29.09,4.34,43.44,5.64a41.2,41.2,0,0,0-9.15-2c-4.19-.49-8.35-1.27-12.48-2.1C87.07,42.52,85,43,83,42.5c-5.09-1.25-10.08-3-15.43-2.84-.46,0-1.14,0-1.18-.89a20.64,20.64,0,0,1,6.81.48c5.26,1.22,10.51,2.25,15.89,3,7.14,1,14.39,1.75,21.38,3.77a6.08,6.08,0,0,0,1.27.25c4.34.34,8.67.68,13,1,.59,0,1.31.72,1.76-.14s-.35-1.28-.72-1.83a3.49,3.49,0,0,1,.14-4.74A3.71,3.71,0,0,1,128.81,39c-2.06-1.69-2.23-2.66-.94-4.06.42-.46,1.23-.78.95-1.57s-1.2-.54-1.81-.83a2.29,2.29,0,0,0-.65,0c-2.6-.21-5.32.41-7.69-1.22-.16-.11-.44,0-.64-.09-4.52-1.31-9.25-1.18-13.81-2-7.46-1.4-15-2.37-22.49-3.38-2.17-.29-4.5-.6-6.5,0a9.38,9.38,0,0,1-7.29-.61,1.84,1.84,0,0,0-1.62,0,23.8,23.8,0,0,1-.34,4.2c-.24.92.09,1.52,1.23,1.6s2.45.51,3.69.58c6.63.37,13,2.16,19.62,2.87,4,.43,7.93,1.68,12,2.08a85.73,85.73,0,0,1,13.33,2c1.36.36,2.84.47,4,1.58-8.78-2.79-18-2.85-27-4.49s-18-3.3-27.15-3.71a7.08,7.08,0,0,0,.17,2.85c19.49,1.76,38.73,5.8,58.06,9.37a1.81,1.81,0,0,1-1.14.25c-4.32-.69-8.66-1.35-13-2.13C105.17,41.29,100.6,40,96,39.46c-6.84-.83-13.56-2.39-20.43-3a56.33,56.33,0,0,1-8.06-1c-1.63-.38-2,.12-1.95,1.82a27.34,27.34,0,0,0,.86,3.79,3.09,3.09,0,0,1-2.92,3.79c-.51,0-1.05-.16-1.48.42.69.38,1.39.15,2,.37a2.06,2.06,0,0,0,3-1.24c.31-.68.71-1.32,1.64-1.14A84.15,84.15,0,0,1,63,55.06M46.51,12c-.41,1.45-.31,8.8.33,9.41A80,80,0,0,0,46.51,12a9.2,9.2,0,0,1,0-3.91c1.69,3,.56,6.49,1.63,9.85,2.06-3.31-.2-6.58.43-9.76a41.07,41.07,0,0,1,2,10.29V9.35a99,99,0,0,1,.74,11c.6-1.8-.25-3.75.93-5.48v4.56h.28V8.9c.74.06.09.85.66.93.47-1,.21-2.12.26-3.35a3.81,3.81,0,0,1,.37.47c.72,1.5-.29,2.73-.5,4.09a52.8,52.8,0,0,0-.13,8.16h.44c.36-1.4-.18-3,.32-4.24a11.3,11.3,0,0,0,.52-4.28c0-.53-.29-1.25.72-1.15-.48,1.65,0,3.28,0,5.39a7.15,7.15,0,0,0,0-5.36v-3c1.54,2.35.82,5.06,1.18,8a14.3,14.3,0,0,0,1.76-9.43c-.11-1-.81-.74-1.49-.59C54.32,5.05,52,5.42,49.77,6c-2,.49-4.1.6-5.91,1.31.6,2.93.79,5.73,1.72,8.83v-6c.59.7.09,1.62.93,1.82m80,83.55c-1-.13-.52-.93-.53-1.39,0-4.79.3-9.56.53-14.34s-.14-9.66-.26-14.49c0-.09-.1-.18-.33-.59V66c0,5.26.16,10.53,0,15.77-.18,4.13-.53,8.25-.6,12.38-.06,3.69,0,7.38,0,11.07a15.26,15.26,0,0,0,.4-5c0-1.63-.35-3.35.86-4.77a89.56,89.56,0,0,0-.2,11c1.32.12,1.23-.69,1.22-1.38,0-2.67,0-5.32-.19-8a78.14,78.14,0,0,1,.21-9.3c0-1.21-.36-2.35-.27-3.57.56-7.26.22-14.52.21-21.89a1.72,1.72,0,0,0-.59,1.61c.19,2.82-.16,5.64,0,8.48.31,7.69-.35,15.38-.36,23.08M35,41.52c-.88-.26-1.11-1.11-1.51-1.77-1.8-3-3.39-6.11-5.73-8.78-.25.47.1.76.24,1.08,1.39,3.09,3.92,5.53,5.07,8.78a2.82,2.82,0,0,0,1.13,1.35c.65.39,1,.13.78-.69.5.32.79,1,1.73.89A8.9,8.9,0,0,0,34.28,39c-.17,1.08,1,1.56.76,2.49M28.25,87.2c.69.28,1,1.2,1.89,1.14-.22-2.23.09-4.71-2.72-5.7a7.84,7.84,0,0,0,.87,4.6c-.92.08-.75.68-.46,1.16a4.7,4.7,0,0,0,2.33,2.14c.17-.92-.4-1.3-.82-1.78s-1.07-.8-1.09-1.56m9.9-1.93-3.79-3.52c.78,2.45,2.88,4,3.82,6.39l-3.29-3.92c-.41,1.12-.4,1.11.94,2.55a6.37,6.37,0,0,1,1.8,2.78c-1.31-.91-1.8-2.21-3-2.84-.81,2.14,1.6,2.79,2,4.44-1-.22-1.23-1.19-2.19-1.54.07,1.79,1.73,2.57,2.29,4.06-1.29.13-1.18-1.46-2.13-1.63.81,4.18.58,8.44,1.14,12.64a6.62,6.62,0,0,0,2,4Q41.45,112.29,45,116c.35.35.91.61.83,1.29-.7.12-.95-.46-1.3-.81-2.08-2.16-4.13-4.35-6.2-6.51a23,23,0,0,0-1.82-1.61c-.9-.75-2.18-1.4-1.44-3.09.32-.74-.28-1.55-.82-2.2s-1-1.21-1.54-1.94c1,0,1,.92,1.81.89a3.74,3.74,0,0,0-.76-3.55c-.47-.64-1.16-1.15-1.26-2,.62.1.83,1,1.79.88A11.19,11.19,0,0,0,31,93.13c-.2,1.3.91,1.82,1.18,2.72a2.18,2.18,0,0,1-2-1.61A10.91,10.91,0,0,0,28.43,92c-.15,1-.21,1.51-.31,2.14a5.87,5.87,0,0,1-.81-2.94c-.31-2.79-.42-5.6-.69-8.39-.12-1.23-.26-2.47-.37-3.71-.15-1.82-.11-2,1.58-2.94.42.66.78,1.67,1.89.29.25,2.47,2,3.49,3.45,4.93.63-2.19-.59-3.48-2.22-4.77,1.42,0,1.74,1.27,2.86,1.39-.16-1.23-1.37-1.39-2.06-2.3,1.58.07,2.14,1.77,3.63,1.67l-.47-1c1.26,0,1.68,1.68,3,1.23,0-.81-1.06-.71-1.29-1.42,1.4-.12,2,1.45,3.24,1.61.17-.7-.5-.88-.72-1.29a1.84,1.84,0,0,1,.27-.18c1.19,1,2.6,1,4.11,1.21,4,.45,8.16.68,12.05,2.49-.45.58-1.08.21-1.53.44,0,.38.35.75.5.73,2.4-.41,1.67,1.39,1.56,2.4A3.2,3.2,0,0,0,57.89,87c1.27-6.61,1.27-6.61,3.25-8.07,1.23,2.31,3.43,1.73,5.44,1.74,3.88,0,7.77-.21,11.62,0,6,.41,12,1.17,18.08.92.79,0,1.08.65,1.62.93,1.42-1.09,1.42-1.09,1.8-2-1.77-.9-3.73-.54-5.57-.76-6-.73-12.14-1-18.22-1.44-4.16-.3-8.32-.83-12.45-1.43-2.39-.34-4.78,0-7.17-.45-3.29-.65-6.62-1.15-10-1.5C37.11,74,28.19,71.3,19,70.13c-3.48-.44-6.92-1.2-10.37-1.85-2.73-.52-3.43-.2-4.19,2.51A91,91,0,0,0,1.83,84.32c-.51,4.25,1,8.32,2.48,12.3.3.83,1.19.84,1.67,1.39L5.92,98c1,2.29,2.15,4.11,4.74,5.23,7.1,3,14.16,6.23,21,9.86,8.84,4.7,18.34,7.81,27.7,11.26,1.27.46,2.5,1,3.74,1.56a2.13,2.13,0,0,1,.4.34c-.37.45-.73.33-1.15.15-6.71-2.87-13.77-4.85-20.5-7.64-6.18-2.55-12.08-5.8-18.12-8.69-4.35-2.07-8.62-4.4-13.15-6-4-1.4-6.14-4.15-7.42-7.81-1.49-4.32-2.67-8.77-2-13.38a76.34,76.34,0,0,1,3-13.94A2.7,2.7,0,0,0,4,66.76,34.47,34.47,0,0,1,1.13,55.31,12.43,12.43,0,0,1,2,49.89c.52-1.3.94-2.65,1.48-3.94A1.28,1.28,0,0,0,3,44.17c-2.55-1.91-3-4.7-3-7.62,0-3.27,0-6.55.14-9.82.17-4,.68-7.88,2.9-11.36,1.42-2.22,2.76-2.59,5-1.2.66.41,1.28,0,1.87-.1,6.61-1.15,13.05-3,19.57-4.59,2.09-.5,4.17-1.09,6.25-1.66.35-.1.68-.39,1.19.27-2.81,1.21-5.8,1.6-8.66,2.68.17,4.89,1.09,9.87-.47,14.85a1.78,1.78,0,0,1-1.14-2c.41-3.22-.05-6.41-.3-9.6,0-.48,0-1,0-1.9,1,1.61.55,3.23,1.41,4.46a10.19,10.19,0,0,0-.15-4.66c-.06-.2-.13-.49-.28-.56-1.2-.6-2.29.22-3.45.34-.81.08-.85.8-.85,1.51,0,3.38.06,6.76.28,10.14.05.73.29,1.55-.64,2.25-.59-2.27-.2-4.48-.27-6.66s.79-4.35-.5-6.46c-.15,4.74,1,9.6-1.25,14.3-1.08-4.56-.42-9-.75-14,1.45,2.24.28,4.47,1.4,6.74.12-2.66.34-4.88-.67-7-1.57,0-2.07.83-1.87,2.21a58.49,58.49,0,0,1,.65,10.74c0,.56.26,1.22-.42,1.66-1.29-.79-.65-2.18-1.09-3.58-.08,1.09-.13,1.86-.18,2.63-.87.24-.77-.85-1.41-.9-.34.41,0,1.13-1.07,1.58a86.17,86.17,0,0,0,.27-9c.79-.05.45.65.88.78.34-1.65-.39-3.19-.24-4.88-2.57.52-4.94,1.07-7.33,1.47-1.67.29-2.27,1.08-1.71,2.73.41-.53,0-1.17.36-1.81,1.44-.29,1.54,1.16,2.14,1.87A2.32,2.32,0,0,1,9.88,20a38.49,38.49,0,0,0-.3,5.88c0,.56.16,1.2-.44,1.62-.68-.27-.39-1-.64-1.49l-1.3.58c-.92-.68-.32-1.74-.77-3a7.45,7.45,0,0,1-.89,3.77,38.42,38.42,0,0,1,.76-8c-2.44,3-3.32,17.13-.12,19.15a7.55,7.55,0,0,1-.73-5.22c.47-.06.48.57.89.6l2.18,3.85c.52,1.79,2.15,3.1,2.1,5.15L8.81,40c-.28,1,.85,1.47.69,2.23-.35.28-.62-.41-.88.09.44,1.15,1.37,1,2.32,1,3.47-.23,6.94-.49,10.41-.59s6.87,0,10.31,0c.49,0,1.09.25,1.57-.42a6.17,6.17,0,0,0-2.12-2.67c-.61.94.71,1.5.33,2.35-1.06-.48-1.12-1.79-2.05-2.43-.24.47-.46.88-.79,1.53-2.41-2.38-3.76-5.47-6.13-7.73,1.68,2.79,3.72,5.36,5.12,8.31-1.16-.64-1.45-2-2.62-3,.06,1,1.2,1.36.85,2.37l-2.95-3.61c-.42.73.4,1.26.1,1.75-2.15-.51-3.12-2.38-4.44-3.88.36,1.48,1.58,2.52,1.9,4.32-1.47-1.78-2.16-3.72-3.62-5.1l-1-1.65-.65-1.68a1.76,1.76,0,0,1,2-.5c.78.36,1.85-.19,2.38.8.58-.23-.27-.65.05-.87.67-.35.83.44,1.33.45-.15-.5-.18-.94.46-1.12,1-.28,1.26.59,1.71,1.14.44-.38-.35-.69.06-1.09,1.24.85,2.41-.32,3.7-.32a4.6,4.6,0,0,1,2.27.45c0-.69.14-.93.83-.59,1.4.7,2.83.19,4.24,0,.47-.07.14-.59.53-.92.73,1.35,2.24.66,3.31,1.27l0-.05,5.55,9.38-.37.23c-1.09-1.86-2.9-3.18-3.49-5.44a3.37,3.37,0,0,0-2.66-2.68,3,3,0,0,0,1.15,1.88c2.14,2.16,2.26,5.32,3.92,7.72a2.06,2.06,0,0,0,2,1.12,15.5,15.5,0,0,0,3.25-.26,9,9,0,0,1,4.94.12,22.88,22.88,0,0,0,6.54.44c-.58-3-2.13-5.54-3.13-8.27.14,1.85,1.12,3.42,1.68,5.12-.46.61-1,.35-1.58-.08.15.57.25,1,.35,1.38-1.61-1.78-2.43-4.08-4.3-6a9.57,9.57,0,0,0,2,4.56c0,.68-.83.35-.9,1.21-1-2.32-2.59-3.92-4-6,.09,2.51,2.2,3.84,2.58,6.2-1.63-1.9-2.3-4.14-3.91-5.72l0,.06c-.74-1.64-1-3.55-2.69-4.64l.06.07c.2-.55-.67-.93-.22-1.53.55-.15.62.49,1.07.67.06-1.14.79-1.51,1.78-1.46A2.74,2.74,0,0,0,50,27c.8-.89,1.88-.62,2.89-.78.84-.13,2.22.3,2.24-1.19,0-1.23-.9-1.6-2.08-1.79A15,15,0,0,0,47.76,23c-1.95.37-2.65-.59-2.38-2.56.1-.64.21-1.29.26-1.94a3.6,3.6,0,0,0-.22-1.63c-.21,1.78-.43,3.57-.64,5.35-.77-1.88,0-3.69-.42-5.55-1.26,2.1-.24,4.56-1,6.75-.76-2.86.3-5.78-.24-8.65C41.9,18,42.88,21.63,42,24.94l-.47-.05q.42-8.57.86-17.14c-1.78-.18-2.19.21-1.94,2.07A79.2,79.2,0,0,1,41.05,22a5.52,5.52,0,0,1-.64,2.45,2.3,2.3,0,0,1-.26-2,7.3,7.3,0,0,0-.27-4.92,2,2,0,0,1,0-1.44c.54-2.35-.06-4.67-.22-7-.06-1-.7-1.42-1.73-1.54L61.69,2.73C63.5-.34,64-.5,67.67.68c.25.08.59.07.76.24,2.34,2.28,5.08,1.66,7.77,1a8.74,8.74,0,0,1,5,.29A50.35,50.35,0,0,0,90.74,4c4.08.57,8.19.84,12.22,1.76,1.83.41,3.69.15,5.52.43,3.15.49,6.29,1.06,9.45,1.5,2.1.29,4.25.27,6.33.62,5.29.88,10.66.39,16,1,2.88.33,5.71,1.13,8.59,1.61a79.26,79.26,0,0,0,9.62.61,11.2,11.2,0,0,1,4.15.63,9.13,9.13,0,0,0,6.21.58c2.22-.67,3.05.06,4.22,1.67a22.14,22.14,0,0,1,2.78,3.91c.29.66.33,1.54,1.36,1.51-.2.81-1,1-.85,1.73a5.17,5.17,0,0,1-1-2.31c-.24-1.71-1.64-2.82-2.73-4a6,6,0,0,1-1-1.21,1.34,1.34,0,0,0-1.43-.82c-1.46.14-3-.13-4.36.46a2.38,2.38,0,0,1-1.87-.27,16.63,16.63,0,0,0-6.35-1.17,63.57,63.57,0,0,1-16.92-2.07,17.69,17.69,0,0,0-4.87-.28A42.61,42.61,0,0,1,125.93,9a4.35,4.35,0,0,0-1.14-.08c-4.9.35-9.6-.82-14.33-1.8a29.9,29.9,0,0,0-3.25-.28c-3-.26-6-.7-9-1.17-5-.78-10.11-1.32-15.18-1.94-1.71-.22-3.2-1.41-5-1.05-1.69.32-3.47.12-5.1.84a1.43,1.43,0,0,1-1.5-.13,25.24,25.24,0,0,0-6-2.35,1.72,1.72,0,0,0-2.5,1.46,2.45,2.45,0,0,1-1.19,1.69A6,6,0,0,0,59.56,8c-.85,3.7-2.8,7.05-3.28,10.86-.06.53-.15,1.07-.16,1.61,0,1,0,2-1.47,2.2,1.53,1.41,2,2.67.73,4.41-.46.65.4,1.88.5,2.9.47,4.43,2.6,8.34,4.12,12.43.42,1.13,3.06,2,4.12,1.54.64-.31.54-.82.42-1.4a65.82,65.82,0,0,0-2.6-9.68,15.29,15.29,0,0,1-.52-10A13.81,13.81,0,0,0,62,17.66a11.24,11.24,0,0,1,.86-4.61,11.5,11.5,0,0,0,.54-7,2.45,2.45,0,0,1,.84-2.36c.69-.72,1.55-.29,2.13,0C69.7,5.67,73.4,5.88,77.13,6.37c5.73.77,11.5.71,17.23,1.25q8.1.77,16.11,2.18c3.25.58,6.59.53,9.87,1,5.08.81,10.19,1.46,15.29,2.15a24.19,24.19,0,0,0,4.54.46c4.35-.23,8.49,1.12,12.76,1.49A66.16,66.16,0,0,1,164,16.74a31.68,31.68,0,0,1,9.91,4c.61.42,2.13-.08,1.75,1.59a18.58,18.58,0,0,1-4-2.26c-1.06.83-1.78,1.55-1.28,3.13s.68,3.34,2.23,4.51c1,.75.61,1.46-.51,1.83S170,32,170.54,33c.19.37.4.7.14,1.05-1.55,2.07-.58,4.25-.32,6.41.07.53.09,1.07.13,1.6-10.57-.3-21-1.38-31.57-1.15.17-1.09.84-.89,1.31-.86,3.73.23,7.5-.43,11.21.59a12.31,12.31,0,0,0,3.1.05c3.85,0,7.69.29,11.53.63l.49,0c1,0,2.2.21,2.67-.73a4.8,4.8,0,0,0-.11-3.66c-.17-.49-.65-.51-1.08-.6a63.28,63.28,0,0,0-8.21-1.23c-6.17-.46-12.38-.39-18.49-1.58a4,4,0,0,0-1.6.19c-1,.22-1.2.07-2.16-1.37,1.67,1,3.1.16,4.48.59,2.53.48,5,1.23,7.66.63a32.29,32.29,0,0,0-7.66-.64,4.23,4.23,0,0,0-5.1.2c-.48.42-1,.3-1.54.32a13.69,13.69,0,0,0-4.23.38c1.34,1.79,2.06,3.54-.18,5.08.8.68,1.49,1.18,2.08,1.78a3.41,3.41,0,0,1,.14,4.94c-.68.76-1.25,1.49-.73,2.55s1.5,1,2.38,1c4.17.25,8.35.68,12.5.85a66.92,66.92,0,0,0,10.21.07c1.23-.15,2.38-.81,3.71-.32.54.2.94.38,1.12.77-9.85,1.39-19.61-.73-29.44-.26a5.83,5.83,0,0,0,3.42.82c6.86.18,13.67,1.06,20.54,1.08,4,0,7.91.57,11.85,1a6.28,6.28,0,0,1,2.61.85c1.35.83,2-.19,2.51-.94.66-.94.05-2.13-.51-2.79s-1.37-.18-1.37.92c-1.17-.37-1-1.27-.89-1.92.26-1.94-.58-3-2.55-3h-2.78a8.05,8.05,0,0,1,3.79-.64c2.08.08,2.34-.33,1.38-2.17-.07-.14-.11-.29-.18-.47,1.9.91,2.16,2.22.63,3.58,1.12,1,1.41,2.58,2.87,3.46s1.16,3.66-.34,4.63c-1.18.76-1.51,1.5-.89,2.79A1.65,1.65,0,0,1,171.69,60c-.93.16-1.08.59-1.33,1.3a31,31,0,0,0-2,11.07,4.73,4.73,0,0,1-.29,1.43,6.51,6.51,0,0,0-.25,4.14,3.16,3.16,0,0,1-.05,2.25c-1.33,2.45,0,4.43,1,6.43s.42,3-1.65,2.93c-3.7,0-7.32-.84-11-1.21-.25.83.39,1.41.55,2.1.2.9.36,1.86-1.08,1.72-.93-.09-1,.55-1.22,1.2-1.29,4.07-1.36,8.32-1.9,12.5-.67,5.15,1,9.82,2.42,14.56a5.67,5.67,0,0,0,1.68,2.52c1.81,1.64,1.44,3.37-1.19,4.74.46-1.53,2.83-3.08,0-4.19a.5.5,0,0,1-.53-.5,23.83,23.83,0,0,0-1.63-4.56,1.76,1.76,0,0,0-1.49-1.28c-2.9-.39-5.82-.66-8.72-1.07-3.42-.5-6.86-.17-10.29-.41-.38,0-.84.11-1-.51,6.9.27,13.78.35,20.57,1.62a3.83,3.83,0,0,0,0-2.44c-.41-1.56-1.1-3.19-1-4.74.5-5.54.64-11.15,2.17-16.57.52-1.82,0-2.44-2-2.49a21.44,21.44,0,0,1-3.57-.32c-3.19-.61-6.48-.5-9.66-1.3-.89-.22-1.39,0-1.34,1.29.11,2.49,1.14,4.89.68,7.68a5.68,5.68,0,0,1-.5-1.19c-1-6.16-1.53-12.37-2-18.58-.32-4.18-.54-8.36-.95-12.52-.34-3.4-.82-6.79-1.4-10.15-.36-2.08-.21-4.27-1.2-6.25.2,5.9.59,11.78,1.28,17.63-1.47-6.23-1.42-12.63-2.39-18.92-.43.49-.31,1-.32,1.54-.07,3.72.65,7.36,1,11,.48,4.58.36,9.22,2,13.67a35.55,35.55,0,0,1,1.3,7c.47,3.17.74,6.36,1.14,9.54.52,4.1,1.26,8.16,1.17,12.31a6.59,6.59,0,0,0,.46,2.75c.84-1.6.37-3.32.63-5.12a5.1,5.1,0,0,1,.75,4c-.42,1.92.64,1.89,1.66,1.89a40.83,40.83,0,0,1,5.86.42c1.32.21,2.79,0,4.08.9-.61.53-1.08.23-1.6.15-4.14-.67-8.26-1.94-12.47-.22-1.21.49-2.12-.05-2.3-1.45-.29-2.2-.54-4.4-.73-6.62-.2-2.51,0-5-.07-7.49-.16-3.58-.73-7.13-.92-10.72-.13-2.52,0-5.1-.79-7.58a197.13,197.13,0,0,0,.36,20c.23,4,.58,7.91.51,11.89,0,1-.64,1.43-1.43,1.32a11.71,11.71,0,0,0-3.19.29,8.88,8.88,0,0,1-5.75-1.14c1.25-.9,1-1.44-.09-1.71-2.15-.51-4.31-1-6.72-1.5,2.83-.64,5.3,1.27,7.87.32-2.73-1.38-5.72-1.49-8.55-2.27,2.88,0,5.66.77,8.68,1.06,0-2.79,0-5.51,0-8.22,0-.73-.58-.79-.94-1.13,1.66-1.17,1.62-2.72-.15-3.89.47-.19,1,0,1.3-.48a2.15,2.15,0,0,0-1.7-3.24c-4.22-.32-8.45-.6-12.66-1a9.71,9.71,0,0,1-4.46-1.1c6.23.8,12.53.59,18.93,1.58-.16-.94.46-1.84-.91-2.07-3.64-.62-7.29-1-11-1.39-2.47-.23-5,.13-7.42-.81-.47-.19-1.23-.39-1.64.24s.07,1.2.5,1.68A26.22,26.22,0,0,1,108,91c2.11,5.72,4.21,11.47,3.27,17.84-.57,3.84-1.08,7.6-3.23,11a5.2,5.2,0,0,1-4.29,2.51,9,9,0,0,1-9.4-5.33,3.77,3.77,0,0,0-3.07-2.25,111.36,111.36,0,0,0-17.19-1.61c-.58,0-1.33.32-1.71-.61a168.89,168.89,0,0,1,20.84,2c-.28-.95-.5-1.61-.66-2.29-.78-3.22-.8-3.23-4.18-3.7-2-.27-4-.59-6-.9,3.2-.48,6.26.83,9.75.54-.93-9,.58-17.47,5.66-25.16a9.33,9.33,0,0,0-4.88-.55,10.14,10.14,0,0,1-3.25.11,99.22,99.22,0,0,0-14.29-1.2c-4,0-8,.22-11.93.28-.91,0-1.2.37-1.36,1.21a39.48,39.48,0,0,0,0,13c.09.59.52,1.15.13,1.78-.41-.1-.41-.39-.5-.64-1.38-3.85-1-7.82-.81-11.78.07-1.72,1-3.45.16-5.31A4.05,4.05,0,0,0,59.7,82c-1.61,5-1.08,9.93.14,14.92,1.32,5.4,3,10.73,3.55,16.31.27,2.69,1,5.33,1.49,8a32,32,0,0,0-.61-13.06c.88,1.23.78,2.68,1.18,4a20.71,20.71,0,0,1,.62,7.76c-.22,2.72-.23,2.88,2.42,3.55a7.85,7.85,0,0,0,1.46.12c1.58.1,3.15,0,4.74.17a56.58,56.58,0,0,0,10.24.7c2.34-.17,4.68-.28,7-.47,3.51-.27,6.92.75,10.38.85,5,.14,10,.25,15,.36,5.67.12,11.35,0,17,0,3.66,0,7.32-.08,11,.06,3.31.13,6.74,1.17,9.47-1.76.09-.09.31-.06.47-.09-.74,2-2.08,2.83-4.35,2.81-11.84-.1-23.69.21-35.52-.16-6.39-.19-12.82,0-19.2-1.1-3.58-.6-7.3-.07-10.93.3a32.68,32.68,0,0,1-8.61-.51,25.74,25.74,0,0,0-4.88-.22,12.56,12.56,0,0,1-7.25-2,3.47,3.47,0,0,1-1.24-2c-1.85-5-2.47-10.17-3.27-15.36-.25-1.6-.63-3.18-.82-4.79a3.66,3.66,0,0,0-1.77-2.79c-.25,2,0,4-.14,5.95a18.77,18.77,0,0,0,.89,6.2c.39,1.51,0,2.81.22,4.21-1.53-1.33-3-2.62-4.46-3.91l.4-.47c1.21.45,1.83,1.72,3.07,2.55.21-2.37-2.12-2.92-2.84-4.54.93.11,1.32,1.16,2.33,1.2.24-1.41-1.15-2-1.55-3.2l1.5.72c-.4-3.11-3.39-3.76-4.9-6,1.61.47,2.24,1.86,3.69,2.29-.79-2.13-2.85-2.89-4.29-4.68,2.07.67,3,2.44,4.82,3a18.8,18.8,0,0,0-4.3-4.3c2,.29,2.72,1.83,4.32,2.49-.68-1.67-2.32-2-3-3.29.28-.24.82-.19.93-.67.77.26,1.06,1.06,1.8,1.39-.11-2.52-2.53-3.45-3.77-5.45,1.62.61,2.26,2.19,3.61,2.84.19-.75.19-.75-2.16-4,1,0,1.18,1.1,2.19,1.24-.3-1.95-1.9-2.77-3.09-3.8s-1.25-3-2.79-3.92c1.39.26,1.93,1.64,3.41,2.41-2.5-3.41-5.9-5.16-8.69-7.63l-.29.28L48,82.3l-.32.32c-2-1.08-3-3.39-5.43-4.53.67,1.83,2.24,2.39,2.94,3.9-2-.48-2.36-3.19-4.7-3.33.86,1.67,2.62,2.41,3.39,4.32-2.4-1.22-3-4.25-6.12-4.61,1.55,2.45,3.73,3.84,4.87,6.07-2.36-1.74-3.88-4.36-6.36-6,1.23,2.17,3.46,3.51,4.59,5.78-2.44-1.57-3.67-4.49-6.36-5.85-.32,1,.72,1.33.83,2.06l-1.17-.16c1.17,1.89,3.06,3,3.95,5"/><path class="cls-1" d="M17.46,87.65a16.54,16.54,0,0,0-4.1-4.37,13.19,13.19,0,0,0,4.1,4.37M6.09,75.56l-.35.37L11,80.87l.29-.3a21.15,21.15,0,0,0-5.24-5m6.25-3c1.73,1.18,2.79,2.74,4.6,3.58.06-2-1.84-3.53-4.6-3.58M5.75,77.08A2.57,2.57,0,0,0,7,79.8a37,37,0,0,1,6.58,6.53c1.24,1.59,2.65,2.89,4.08,4.6,0-1.79-9-12-11.93-13.85M9.3,93.25c2.45,1.42,3.77,4,6.18,5.54-1.28-2.31-3.28-4.07-4.86-6.15,2.56,1.78,4.14,4.56,6.75,6.26-3.48-4.38-7.49-8.27-11.11-13C5.55,90.22,7.45,95.19,10,96.32c-.72-1.24-1.9-2-2.5-3.61,2.26,1.6,3.23,4.15,5.65,5.12L9.3,93.25m8.39-.13c0-1.57-9.32-11.91-11.52-12.94C5.82,83,5.62,85.7,8.43,87.56A9.22,9.22,0,0,1,10,89.26l8,8.93.41-.34c-1.22-2.87-3.79-4.68-5.83-6.91s-4-4.66-5.92-7l.32-.28c3.68,3.8,6.87,8.07,10.9,11.55-.78-2.81-3.44-4.22-5-6.48S9,84.55,7.09,82.42c4.61,2.45,6.69,7.42,10.6,10.7m1.1.4c-.13,1.79,1.65,2.53,2,4-1-.12-1.14-1.17-2-1.75,0,2,1.9,2.76,2.29,4.43-1.15.12-1.1-1.15-1.85-1.39-.19.7.46,1.33.18,2-.52.12-.64-.77-1.25-.47-.23.59.46.91.46,1.52-1.23,0-1.2-1.71-2.35-1.92-.21.65.46,1,.41,1.59-1.33-.13-1.28-2-2.65-2-.36.69.9,1.11.34,1.91-1.27-.75-1.64-2.39-3.21-3.22.69,1.5,1.9,2.42,2.54,4.16-2.14-1.65-2.94-4-5.16-5.48.76,2,2.34,3,2.58,4.85C8.93,99,6.82,96,4.38,93.28c.9-.33,1,.86,1.88.73a39.42,39.42,0,0,1-.91-10.72c.14-3.54-1.09-7.13.33-10.64.12,0,.3.09.3.1-.31,1.63.71,2.46,1.82,3.39a35.88,35.88,0,0,1,5,4.71c1.3,1.62,2.36,3.44,4,4.75.16.13.33.25.51.38.39-.74-.41-1-.51-1.59,1.24-1.12.47-2-.42-3-2.7-3-5.35-6-8.23-8.84,3.07,2.62,5.79,5.7,9,8.25a55.77,55.77,0,0,0-8.62-8.69c3.58,1.25,5.38,4.73,8.43,6.72.56-.88,0-1.38-.49-2-1.85-2.14-4.34-3.43-6.56-5.07-.31-.23-.59-.48-.88-.71.31-.75.78-.44,1.22-.25a14.61,14.61,0,0,0,5.32,1.35,2,2,0,0,1,1.85,1.14,9.62,9.62,0,0,0,2.09,3.16c-.69.34-.94-.39-1.58-.3-.54,1.49,1.24,2,1.46,3.21-.63.17-.73-.65-1.32-.57-.63,1.64,1.46,2.07,1.58,3.37-.68.29-.85-.62-1.48-.51-.17,1.29,1.33,1.67,1.52,2.8-.64.4-.8-.65-1.42-.46-.67,1.57,1.37,2.1,1.45,3.39-.64.15-.67-.67-1.19-.65-.28.84.62,1.08.83,1.67,0,.56-.55.33-.93.44.34,1.3,1.83,1.82,1.87,3.19-.81.14-.92-.93-1.85-.85.27,1.83,2.5,2.54,2.61,4.43-1.07-.39-1.23-1.6-2.25-2.11"/><path class="cls-1" d="M64.34,126.81c0-.83.45-.9.84-.86,4.33.38,8.66.83,13,1.15,3.75.27,7.47.77,11.2,1,7.67.54,15.35.75,23,.7,2.71,0,5.42-.1,8.13-.29,1.76-.12,3.47.35,5.22.29,5.17-.17,10.35-.6,15.5-.4,3.83.14,7.6-.65,11.4-.28a4.45,4.45,0,0,0,2-.28c.17.88-.34,1-.9,1-1.14,0-2.29-.09-3.43,0-7.56.36-15.13.76-22.71.66-4.42-.06-8.83.16-13.25.26-7.63.16-15.26-.27-22.88-.68-6.56-.35-13.08-1.25-19.63-1.85-2.47-.23-5-.29-7.49-.43"/><path class="cls-1" d="M8.52,37.72,6.34,33.87c-.16-.55-.33-1.1-.51-1.68a2.43,2.43,0,0,1,1.46-.65A7.45,7.45,0,0,0,9.12,33.9c0-1.06-1.1-1.75-.72-2.91,1.06.48,1.17,1.73,2,2.37,0-.83-.83-1.47-.38-2.37.95.55,1,1.84,2,2.4.05-.79-.9-1.3-.52-2.14.63-.38.54.53.95.54.44.75.88,1.49,1.31,2.24.47,1.65,1.61,2.92,2.44,4.36.52.91,1,1.85,1.48,2.78l-.4.2c-1.53-2.23-3.07-4.45-4.61-6.68.91,2.39,2.72,4.25,3.51,6.68-1.57-1.22-2.19-3.17-3.63-4.48.65,1.75,2,3.13,2.45,5-1.77-1.48-2.35-3.87-4.2-5.31.53,2,2.08,3.48,2.38,5.58L9.59,36.55c.08,2.18,2.06,3.38,2.61,5.5-1-.26-1.14-1-1.57-1.55-.75-.89-1-2.15-2.11-2.78"/><path class="cls-1" d="M59.7,118.22c-1.32-.57-2.05-1.88-3.41-2.38-.5.32.49.71,0,1.1a4.63,4.63,0,0,0-2.84-1.57l-.5.54,5.49,4.48-.47.49c-.83,0-1.09-.77-1.56-1.28-2.39-2.6-4.7-5.29-7.87-7a1.79,1.79,0,0,0-1.19-.19l7.37,7.23c-1.75-.53-2.81-1.86-4-3-2.11-2-4.17-4.15-6.28-6.19a3,3,0,0,0-3.07-.78,48.46,48.46,0,0,1,6.55,7c-3.14-2.92-6.1-6-9.32-8.85,3.11.55,6.1,1.25,8.79,3.51-.37-1.22-1.4-1.63-1.63-2.58,2,1.74,3.79,3.67,6.36,4.77.33,0,0-.67.54-.62.92.5,1.43,1.82,2.76,1.94.19-.92-.87-1-.83-2,1.76,2,4.05,3.13,5.15,5.5"/><path class="cls-1" d="M29.42,25.81a101,101,0,0,1-.06-13.7c.68,1.75.41,3.59,1.1,5.55a37.55,37.55,0,0,0,0-6.11c1.3,3.64.51,7.43,1.25,11.15V11.9h.47l.46,5,.26,0V12.57c.94,1.24.93,11.28,0,13.14-.8-2.26.51-4.43-.3-6.66-.71,1.48-.35,2.9-.41,4.26s0,1.51-1.55,2.42c-.39-1.19.24-2.5-.48-3.9-.55,1.42.12,2.84-.75,4"/><path class="cls-1" d="M24.67,102.55a1.89,1.89,0,0,1-2.14-2q-.34-3.89-.81-7.77c-.5-4.14-1.09-8.27-1.55-12.42-.2-1.78-.47-3.67,1.37-5.11-1.24,5.83.27,11.37.77,17a43.69,43.69,0,0,0,1,8c.07.26.05.55.46.66.78-.65.58-1.53.46-2.35a188.15,188.15,0,0,1-2.18-20.22c0-.61-.61-1.21.24-2.22.67,3.13.19,6,.74,8.83a83,83,0,0,1,1,8.88c.23,2.87,1.47,5.69.57,8.67"/><path class="cls-1" d="M36.61,24.57c-1.19-1.45-1.62-.07-2.7,0,.6-3.81-.57-7.54.12-11.8.82,1.73.17,3.22.61,4.62.65-1.61-.15-3.29.6-4.8.54,2.58.54,5.2,1,7.8V12.59l.41,0Z"/><path class="cls-1" d="M13.83,34c-.43-.75-.87-1.49-1.31-2.24-.26-1.24,1.46-.5,1.37-1.57,1.06.68,1,2,1.93,2.61l1,1.65c.58,2.08,2.34,3.6,2.67,5.82-.4-.5-.81-1-1.49-1.85.34,1.45,1.29,2.16,1.3,3.27-.54-.06-.59-.44-.77-.69-1.59-2.32-2.87-4.84-4.69-7"/><path class="cls-1" d="M38.54,10.2a3.25,3.25,0,0,1,1,2.91c-.19,2.93-.15,5.88-.15,8.83a5.39,5.39,0,0,1-.64,2.9V17.26c-.58,2.2-.33,4.51-1.28,6.64a9.86,9.86,0,0,1,.06-4.19,22.29,22.29,0,0,0-.07-7.29c-.28-1.22,1.11-1.2,1-2.22"/><path class="cls-1" d="M25.23,23.86V18.39c-.15,1.82-.67,3.65,0,5.47m.41,2.29-.77-1.45c-.25.42-.46.73-1.1.42.61-3.91.05-7.91.28-12.06,1,1.38.33,2.94.84,4.45,1.12-1.52-.38-3,.44-4.4.89,4.2,1.41,8.41.31,13"/><path class="cls-1" d="M32,27c-1.54.84-26,2.85-27.39,2.1C14,28.07,23,27.75,32,27"/><path class="cls-1" d="M11.26,22.86c1.52-1.93.54-4.13.84-6.21,1.05,3.25.86,6.56.75,10-.94-.33-.43-1-.89-1.55.19,1.32-1.56.84-1.45,2.13-.56-3,.12-5.82,0-8.7,1.1,1.32.26,3,.75,4.34"/><path class="cls-1" d="M28.43,94.93c.28,2,.6,4,.8,6a4.74,4.74,0,0,0,1.62,3.19A102.22,102.22,0,0,1,39.56,113a6.62,6.62,0,0,0,2,1.64,1.9,1.9,0,0,1,1,1.65c-.86.38-1.15-.31-1.5-.72a132.07,132.07,0,0,0-9.42-10c-.35-.33-.63-.8-1.21-.67-1.33.3-1.48-.39-1.56-1.52-.2-2.8-.58-5.59-.88-8.39l.41-.08"/><path class="cls-1" d="M41.22,28C44,31.25,46,35,47.86,38.75c-2.23.36-2.46-1.88-3.47-3a33.16,33.16,0,0,1-4.28-6.59c1.81,1.1,2.2,3.48,4.07,4.53-.57-2.15-2.42-3.58-3-5.73"/><path class="cls-1" d="M138.13,43.5c3-.24,5.93.48,8.89.63s6.17.24,9.24.63c-1.47.71-15.3-.1-18.13-1.26"/><path class="cls-1" d="M14.59,14.9V26.74H14a45.21,45.21,0,0,1,.62-11.83"/><path class="cls-1" d="M38.07,29.85c.19-.5-.6-.82,0-1.63,2.86,4,5.59,7.87,8,12-.79-.39-3.62-4.11-4.32-5.37a17.75,17.75,0,0,0-3.7-5l0,.05"/><path class="cls-1" d="M47.59,34.76c.37,1.75,1.69,3.07,2,4.84a96.61,96.61,0,0,1-6.43-10.94c1.12.13,1.05,1.31,1.82,1.59L45,30.18a20.06,20.06,0,0,0,2.69,4.64Z"/><path class="cls-1" d="M37.92,114c-2.66-2-4.68-4.65-6.82-7.16A39.87,39.87,0,0,1,37.92,114"/><path class="cls-1" d="M7.16,74.58a15,15,0,0,1,6.32,5.81c-2.31-1.71-4.05-4-6.32-5.81"/><path class="cls-1" d="M6,98C5.82,97,4.67,96.47,4.45,95.42,5.86,96,9,100,9.16,101.57c-1.37-1-1.82-2.75-3.24-3.62L6,98"/><path class="cls-1" d="M31.65,103.86c-.86-2.36-1.66-4.72-1.07-7.32.36,2.44.71,4.88,1.07,7.32"/><path class="cls-1" d="M45.83,25.73c1.91-.83,3.9-.38,5.86-.3-1.89,1.09-3.92,0-5.86.3"/><path class="cls-1" d="M38.8,85.57c-.26-1.38-1.51-2.09-2.14-3.22-.21-.37-.62-.63-.54-1.13,1.29.83,2,2.21,3,3.31.41.45.41.88-.32,1"/><path class="cls-1" d="M43.69,26.3a3.71,3.71,0,0,1-4.07,0Z"/><path class="cls-1" d="M163.9,50.78c1-1.49,2-.37,2.92-.34-.82.68-1.75.3-2.92.34"/><path class="cls-1" d="M53.86,104.65,50.77,102a4.66,4.66,0,0,1,3.09,2.65"/><path class="cls-1" d="M47.45,108l2.91,3,.09-.1-3-3v0"/><path class="cls-1" d="M30.08,107.27c1.21,1,2.23,1.56,2.77,2.66-1.25-.39-1.83-.9-2.77-2.66"/><path class="cls-1" d="M170.73,50.84a3.27,3.27,0,0,1-3-.09,4.72,4.72,0,0,1,3,.09"/><path class="cls-1" d="M36.52,26.42c-.89.73-1.87.57-3.06.45,1.07-.85,2.1-.44,3.06-.45"/><path class="cls-1" d="M127.78,121.62c6.7.32,13.43.27,20.08,1.48-6.68-.69-13.41-.47-20.08-1.48"/><path class="cls-1" d="M150.4,121.51c-6.83-1.54-13.83-1.1-20.89-1.61,2.61-.58,17.24-.12,20.89,1.61"/><path class="cls-1" d="M73.6,115.9c6,.17,12,.27,17.81,1.93-5.89-1.1-11.89-1.17-17.81-1.93"/><path class="cls-1" d="M150,111.94c-6.15-.67-12.33-.78-18.5-1.21a90.23,90.23,0,0,1,18.5,1.21"/><path class="cls-1" d="M149.49,113.82c-6.28-.68-12.61-.21-18.9-.91a94.92,94.92,0,0,1,18.9.91"/><path class="cls-1" d="M129.63,117.82c6.72-.09,13.45-.38,20.07,1.16-6.69-.45-13.38-1.06-20.07-1.16"/><path class="cls-1" d="M129.34,113.44c-5.34-.66-10.6-1.77-15.91-2.58a88.27,88.27,0,0,1,15.91,2.58"/><path class="cls-1" d="M112.57,113a63.19,63.19,0,0,1,16.12,1.94c-5.35-.94-10.76-1.34-16.12-1.94"/><path class="cls-1" d="M127,124.35c5.38-.51,10.74-1.56,16.19-.42-5.42-.41-10.8.3-16.19.42"/><path class="cls-1" d="M111.79,116.21c5.54.65,11.14.91,16.5,2.67-5.46-1.14-11-1.56-16.5-2.67"/><path class="cls-1" d="M112.61,109.77c1.43-1,12.37,0,14.66,1.33-4.88-.49-9.69-1.81-14.66-1.33"/><path class="cls-1" d="M88.94,95c-4.08-.64-8.25.07-12.34-.67,4.13-.12,8.27-.49,12.34.67"/><path class="cls-1" d="M73.48,115c5.49-.28,11-.35,16.45,1-5.47-.51-10.93-1-16.45-1"/><path class="cls-1" d="M79,111a35.14,35.14,0,0,1,13,1.62c-4.3-.6-8.6-1.31-13-1.62"/><path class="cls-1" d="M76.28,108.31a8.85,8.85,0,0,0,3.24.21,36.73,36.73,0,0,1,9.52,1c.21.06.45.06.44.55-1.48.11-2.87-.49-4.31-.63-2.6-.27-5.2-.42-7.8-.6-.4,0-1.06.32-1.09-.53Z"/><path class="cls-1" d="M113.49,118.39a35.66,35.66,0,0,1,12.92,2c-4.3-.72-8.55-1.69-12.92-2"/><path class="cls-1" d="M113.53,114.9A37.36,37.36,0,0,1,128,117.2a91.47,91.47,0,0,0-14.43-2.3"/><path class="cls-1" d="M126.49,108.54c-4-.16-7.94-1-11.95-1.2,4.06-.44,8,.45,11.95,1.2"/><path class="cls-1" d="M77.14,100.76c3.83.08,7.67,0,11.42,1-3.8-.35-7.63-.47-11.42-1"/><path class="cls-1" d="M89,86.55c-3.55-.11-7.12.06-10.69-.17,3.56,0,7.11-.85,10.69.17"/><path class="cls-1" d="M73.58,120.54a35.55,35.55,0,0,1,12.26,0,80.93,80.93,0,0,0-12.26,0"/><path class="cls-1" d="M80.3,104.3c2.85.33,5.79,0,8.53,1.23-2.76-.23-5.52-.46-8.28-.72-.1,0-.16-.33-.25-.51Z"/><path class="cls-1" d="M113.54,95.1a26.56,26.56,0,0,1,8.63,1.42c-2.91-.3-5.76-1-8.63-1.42"/><path class="cls-1" d="M135.76,109a32.86,32.86,0,0,1,10,0Z"/><path class="cls-1" d="M83.93,118.77l-9.16-.67,0-.4a49.86,49.86,0,0,1,9.13,1.07"/><path class="cls-1" d="M86.86,88.79a28.28,28.28,0,0,1-7.73-.51c2.49.08,5-.41,7.73.51"/><path class="cls-1" d="M88,91c-2,0-4,.31-5.92-.32A15.53,15.53,0,0,1,88,91"/><path class="cls-1" d="M83.18,92.53c2.32.16,4.7-.39,7,.58-2.34.14-4.63-.59-7-.58"/><path class="cls-1" d="M89.47,97.5c-2.41,0-4.77-.66-7.2-.57a15.45,15.45,0,0,1,7.2.57"/><path class="cls-1" d="M122.17,122.84l-6.34-.93a15.37,15.37,0,0,1,6.37.53l0,.4"/><path class="cls-1" d="M91,103.88c-2.38,0-4.29-.86-6.29-.68a8.77,8.77,0,0,1,6.29.68"/><path class="cls-1" d="M140.42,97.52c1.75.12,3.53-.28,5.23.41a14.41,14.41,0,0,1-5.23-.41"/><path class="cls-1" d="M85.76,98.88c-1.84.39-3.65-.3-5.48-.43H85.8Z"/><path class="cls-1" d="M64.26,106.78a19,19,0,0,1-1.56-5.32c.79.87,1.18,2.16,1.56,5.32"/><path class="cls-1" d="M146.29,100.25c-1.56-.64-3.28.07-4.83-.68a9.74,9.74,0,0,1,4.83.68"/><path class="cls-1" d="M90.46,85.08a4.07,4.07,0,0,1-3.78,0Z"/><path class="cls-1" d="M76.28,108.3c-1.48,1-3,.18-4.47.08a19.1,19.1,0,0,1,4.47-.07h0"/><path class="cls-1" d="M118.2,93.72l3.89.6c0,.14,0,.27-.07.41a7.47,7.47,0,0,1-3.82-1"/><path class="cls-1" d="M80.3,104.3c-1.86,1-3.79-.12-5.68.2,1.88-.57,3.79-.07,5.68-.2h0"/><path class="cls-1" d="M119.08,97.49a3.65,3.65,0,0,1,3,.76,4.06,4.06,0,0,1-3-.76"/><path class="cls-1" d="M14.71,53.51v6.68c-.85-2.45-.37-4.58-.54-6.67h.54"/><path class="cls-1" d="M39.37,63.33c1.11,2,.27,4.12,1.11,6.1l-.59.06c-.17-2-.35-4.11-.52-6.16"/><path class="cls-1" d="M14.59,64.72a5.35,5.35,0,0,1,0-3.38c.77,2.13.77,2.13,0,3.38"/><path class="cls-1" d="M16.69,48v3.21a2.92,2.92,0,0,1,0-3.21"/><path class="cls-1" d="M15.31,58.84a9.15,9.15,0,0,1,0-3.48,2.94,2.94,0,0,1,0,3.48"/><path class="cls-1" d="M103.61,110.29l-.51,0V116c.52-1.9,1.42-3.79.51-5.75m-.16,9.08a1.55,1.55,0,0,1-1.09-1.53c-.11-2.28-.22-4.56-.23-6.84,0-.7,0-1.69,1-1.78a1.39,1.39,0,0,1,1.57,1.49,22.91,22.91,0,0,1-1.25,8.66"/><path class="cls-1" d="M101.51,86.25a22.6,22.6,0,0,1,2.1,6,13.18,13.18,0,0,1,.37,4.2c0,1.16-.53,1.45-1.73.74,1.76-.77,1.13-2.14.94-3.3-.21-1.37-.66-2.7-1.14-4.55-.67,2.41-.21,4.45-.61,6.42-.8-3.16,0-6.34.07-9.55"/><path class="cls-1" d="M102.75,100.92c-.4,2.19-1.06,4.19.68,6,.88-1.54.67-3.42-.68-6m.44-1.72a16,16,0,0,1,1.72,7,1.39,1.39,0,0,1-1.26,1.46c-.76.1-1.17-.35-1.5-1-1-1.92-.59-5.86,1-7.45"/><path class="cls-1" d="M66.05,63.2c10.71.71,21.42,1.53,32,3.53-10.69-1-21.35-2.24-32-3.53"/><path class="cls-1" d="M164.83,63.48c-2.51-.22-5-.43-7.52-.67-4.75-.44-9.45-1.47-14.23-1.43a28.26,28.26,0,0,1-6.94-.37,2.8,2.8,0,0,1-1.49-.74,220,220,0,0,1,30.18,3.21"/><path class="cls-1" d="M105.26,74.67l17.54,2.2c-1.87.78-15.81-1-17.54-2.2"/><path class="cls-1" d="M122.12,73.2A71.67,71.67,0,0,1,108,71.46c4.78.1,9.42,1.23,14.15,1.74"/><path class="cls-1" d="M6.54,61c.71,1.12.19,2.16-.1,3.59-.72-1.48.26-2.51.1-3.59"/><path class="cls-1" d="M129.77,97.94a19.1,19.1,0,0,1,0-8.64Z"/><path class="cls-1" d="M129.5,78.73a17.32,17.32,0,0,1,.14,6.46,13.08,13.08,0,0,1-.14-6.46"/><path class="cls-1" d="M57.67,5.43V10h-.46a19.41,19.41,0,0,1,0-4.57l.42,0"/><path class="cls-1" d="M58.49,53.92a7,7,0,0,1,.06,3.43,3.74,3.74,0,0,1-.06-3.43"/><path class="cls-1" d="M9.71,91.38c-1.58-.27-2.14-1.6-2.86-2.76a9.64,9.64,0,0,1,2.86,2.76"/></g></g></svg>